SplineFontDB: 3.0
FontName: DEV-KautilyaNormal
FullName: DEV Kautilya Normal
FamilyName: DEV Kautilya
Weight: Book
Copyright: Copyright (c) 2009-2015, NLCI (http://www.nlci.in/fonts/)
Version: 1.0 Wed Sep 13 15:04:00 1995
ItalicAngle: 0
UnderlinePosition: -594
UnderlineWidth: 41
Ascent: 1638
Descent: 410
InvalidEm: 0
LayerCount: 2
Layer: 0 0 "Back" 1
Layer: 1 0 "Fore" 0
XUID: [1021 683 1592367770 11327694]
FSType: 0
OS2Version: 0
OS2_WeightWidthSlopeOnly: 0
OS2_UseTypoMetrics: 1
CreationTime: 1258083833
ModificationTime: 1433222838
PfmFamily: 81
TTFWeight: 400
TTFWidth: 5
LineGap: 0
VLineGap: 0
Panose: 5 0 0 0 0 0 0 0 0 0
OS2TypoAscent: 115
OS2TypoAOffset: 1
OS2TypoDescent: -335
OS2TypoDOffset: 1
OS2TypoLinegap: 0
OS2WinAscent: -700
OS2WinAOffset: 1
OS2WinDescent: -298
OS2WinDOffset: 1
HheadAscent: -700
HheadAOffset: 1
HheadDescent: 298
HheadDOffset: 1
OS2SubXSize: 1434
OS2SubYSize: 1331
OS2SubXOff: 0
OS2SubYOff: 293
OS2SupXSize: 1434
OS2SupYSize: 1331
OS2SupXOff: 0
OS2SupYOff: 928
OS2StrikeYSize: 102
OS2StrikeYPos: 530
OS2Vendor: 'Alts'
OS2UnicodeRanges: 00000000.00000000.00000000.00000000
Lookup: 1 0 0 "Wide I-matra" { "Wide I-matra-1"  } []
Lookup: 1 0 0 "'nukt' Nukta Forms in Devanagari lookup 6" { "'locl' Local Forms in Devanagari lookup 6-1"  } ['nukt' ('deva' <'NEP ' > ) ]
Lookup: 4 0 0 "'akhn' Akhand in Devanagari lookup 0" { "'akhn' Akhand in Devanagari lookup 0 subtable"  } ['akhn' ('deva' <'HIN ' 'NEP ' 'dflt' > ) ]
Lookup: 4 0 0 "'rphf' Reph Form in Devanagari lookup 1" { "'rphf' Reph Form in Devanagari lookup 1 subtable"  } ['rphf' ('deva' <'HIN ' 'NEP ' 'dflt' > ) ]
Lookup: 4 0 0 "'blwf' Below Base Forms in Devanagari lookup 2" { "'blwf' Below Base Forms in Devanagari lookup 2 subtable"  } ['blwf' ('deva' <'HIN ' 'NEP ' 'dflt' > ) ]
Lookup: 4 8 0 "'half' Half Forms in Devanagari lookup 3" { "'half' Half Forms in Devanagari lookup 3 subtable"  } ['half' ('deva' <'HIN ' 'NEP ' 'dflt' > ) ]

StartChar: .notdef
Encoding: 65536 -1 0
Width: 1024
Flags: HW
LayerCount: 2
Back
Fore
SplineSet
64 0 m 1
 64 1383 l 1
 960 1383 l 1
 960 0 l 1
 64 0 l 1
896 64 m 1
 896 1319 l 1
 128 1319 l 1
 128 64 l 1
 896 64 l 1
EndSplineSet
EndChar

StartChar: quotedbl
Encoding: 34 34 3
Width: 682
GlyphClass: 2
Flags: HW
LayerCount: 2
Back
Fore
SplineSet
193 862 m 1
 160 862 l 1
 88 1362 l 1
 88 1394 95.6666666667 1418.66666667 111 1436 c 128
 126.333333333 1453.33333333 148 1462 176 1462 c 0
 204.666666667 1462 226.166666667 1453.33333333 240.5 1436 c 128
 254.833333333 1418.66666667 262 1394 262 1362 c 1
 193 862 l 1
522 862 m 1
 489 862 l 1
 420 1362 l 1
 420 1394 427.333333333 1418.66666667 442 1436 c 128
 456.666666667 1453.33333333 478 1462 506 1462 c 0
 534.666666667 1462 556.5 1453.33333333 571.5 1436 c 128
 586.5 1418.66666667 594 1394 594 1362 c 1
 522 862 l 1
EndSplineSet
EndChar

StartChar: numbersign
Encoding: 35 35 4
Width: 1522
GlyphClass: 2
Flags: HW
LayerCount: 2
Back
Fore
SplineSet
664 862 m 1
 563 569 l 1
 860 569 l 1
 961 862 l 1
 664 862 l 1
1073 862 m 1
 977 569 l 1
 1307 569 l 1
 1307 467 l 1
 940 467 l 1
 768 -47 l 1
 666 -14 l 1
 825 467 l 1
 528 467 l 1
 354 -47 l 1
 254 -12 l 1
 418 467 l 1
 127 467 l 1
 127 569 l 1
 451 569 l 1
 551 862 l 1
 219 862 l 1
 219 967 l 1
 586 967 l 1
 750 1450 l 1
 854 1417 l 1
 696 967 l 1
 995 967 l 1
 1157 1450 l 1
 1266 1417 l 1
 1110 967 l 1
 1397 967 l 1
 1397 862 l 1
 1073 862 l 1
EndSplineSet
EndChar

StartChar: dollar
Encoding: 36 36 5
Width: 1153
GlyphClass: 2
Flags: HW
LayerCount: 2
Back
Fore
SplineSet
848 350 m 0
 848 387.333333333 842 419.333333333 830 446 c 128
 818 472.666666667 801.666666667 495.5 781 514.5 c 128
 760.333333333 533.5 736.666666667 549.166666667 710 561.5 c 128
 683.333333333 573.833333333 655.666666667 584.666666667 627 594 c 1
 627 109 l 1
 655.666666667 113.666666667 683.333333333 122 710 134 c 128
 736.666666667 146 760.333333333 161.833333333 781 181.5 c 128
 801.666666667 201.166666667 818 225 830 253 c 128
 842 281 848 313.333333333 848 350 c 0
535 1266 m 1
 507.666666667 1260 482.333333333 1250.83333333 459 1238.5 c 128
 435.666666667 1226.16666667 415.333333333 1210.33333333 398 1191 c 128
 380.666666667 1171.66666667 367 1148.83333333 357 1122.5 c 128
 347 1096.16666667 342 1066 342 1032 c 0
 342 998.666666667 348.166666667 970 360.5 946 c 128
 372.833333333 922 388.333333333 901.5 407 884.5 c 128
 425.666666667 867.5 446.333333333 853.333333333 469 842 c 128
 491.666666667 830.666666667 513.666666667 821 535 813 c 1
 535 1266 l 1
1034 389 m 0
 1034 347 1027 308.333333333 1013 273 c 128
 999 237.666666667 980.833333333 205.833333333 958.5 177.5 c 128
 936.166666667 149.166666667 910.5 124.333333333 881.5 103 c 128
 852.5 81.6666666667 822.833333333 63.5 792.5 48.5 c 128
 762.166666667 33.5 732.666666667 22 704 14 c 128
 675.333333333 6 649.666666667 1.33333333333 627 0 c 1
 627 -211 l 1
 532 -211 l 1
 532 0 l 1
 506.666666667 1.33333333333 477.333333333 3 444 5 c 128
 410.666666667 7 375.833333333 9.83333333333 339.5 13.5 c 128
 303.166666667 17.1666666667 266 22.1666666667 228 28.5 c 128
 190 34.8333333333 153.666666667 43 119 53 c 1
 119 401 l 1
 221 401 l 1
 258 172 l 1
 267.333333333 160.666666667 281.5 150.5 300.5 141.5 c 128
 319.5 132.5 341.5 125 366.5 119 c 128
 391.5 113 418.333333333 108.333333333 447 105 c 128
 475.666666667 101.666666667 504 100 532 100 c 1
 532 618 l 1
 487.333333333 628 442.5 642.166666667 397.5 660.5 c 128
 352.5 678.833333333 311.833333333 702.666666667 275.5 732 c 128
 239.166666667 761.333333333 209.5 797.166666667 186.5 839.5 c 128
 163.5 881.833333333 152 932.333333333 152 991 c 0
 152 1032.33333333 157.666666667 1069.83333333 169 1103.5 c 128
 180.333333333 1137.16666667 195.666666667 1167.16666667 215 1193.5 c 128
 234.333333333 1219.83333333 256.833333333 1243 282.5 1263 c 128
 308.166666667 1283 335.166666667 1300 363.5 1314 c 128
 391.833333333 1328 420.833333333 1339.5 450.5 1348.5 c 128
 480.166666667 1357.5 508.333333333 1364 535 1368 c 1
 535 1522 l 1
 629 1522 l 1
 629 1374 l 1
 673 1374 715.833333333 1371.5 757.5 1366.5 c 128
 799.166666667 1361.5 836.333333333 1356 869 1350 c 0
 907 1342.66666667 943 1335 977 1327 c 1
 977 1004 l 1
 870 1004 l 1
 840 1221 l 1
 808 1256.33333333 737.666666667 1274 629 1274 c 1
 629 786 l 1
 658.333333333 777.333333333 688.833333333 768 720.5 758 c 128
 752.166666667 748 783 736 813 722 c 128
 843 708 871.333333333 691.666666667 898 673 c 128
 924.666666667 654.333333333 948.166666667 631.666666667 968.5 605 c 128
 988.833333333 578.333333333 1004.83333333 547.333333333 1016.5 512 c 128
 1028.16666667 476.666666667 1034 435.666666667 1034 389 c 0
EndSplineSet
EndChar

StartChar: percent
Encoding: 37 37 6
Width: 1761
GlyphClass: 2
Flags: HW
LayerCount: 2
Back
Fore
SplineSet
537 977 m 256
 537 1031 534 1079.66666667 528 1123 c 128
 522 1166.33333333 512.833333333 1203.16666667 500.5 1233.5 c 128
 488.166666667 1263.83333333 472.166666667 1287.33333333 452.5 1304 c 128
 432.833333333 1320.66666667 409 1329 381 1329 c 256
 353 1329 328.833333333 1320.66666667 308.5 1304 c 128
 288.166666667 1287.33333333 271.333333333 1263.83333333 258 1233.5 c 128
 244.666666667 1203.16666667 234.833333333 1166.33333333 228.5 1123 c 128
 222.166666667 1079.66666667 219 1031 219 977 c 256
 219 923 222.166666667 874.333333333 228.5 831 c 128
 234.833333333 787.666666667 244.666666667 750.833333333 258 720.5 c 128
 271.333333333 690.166666667 288.166666667 666.666666667 308.5 650 c 128
 328.833333333 633.333333333 353 625 381 625 c 256
 409 625 432.833333333 633.333333333 452.5 650 c 128
 472.166666667 666.666666667 488.166666667 690.166666667 500.5 720.5 c 128
 512.833333333 750.833333333 522 787.666666667 528 831 c 128
 534 874.333333333 537 923 537 977 c 256
1538 397 m 256
 1538 451 1535 499.666666667 1529 543 c 128
 1523 586.333333333 1513.83333333 623.333333333 1501.5 654 c 128
 1489.16666667 684.666666667 1473.16666667 708.333333333 1453.5 725 c 128
 1433.83333333 741.666666667 1410 750 1382 750 c 0
 1354.66666667 750 1330.83333333 741.666666667 1310.5 725 c 128
 1290.16666667 708.333333333 1273.33333333 684.666666667 1260 654 c 128
 1246.66666667 623.333333333 1236.83333333 586.333333333 1230.5 543 c 128
 1224.16666667 499.666666667 1221 451 1221 397 c 256
 1221 343 1224.16666667 294.333333333 1230.5 251 c 128
 1236.83333333 207.666666667 1246.66666667 170.5 1260 139.5 c 128
 1273.33333333 108.5 1290.16666667 84.6666666667 1310.5 68 c 128
 1330.83333333 51.3333333333 1354.66666667 43 1382 43 c 0
 1410 43 1433.83333333 51.3333333333 1453.5 68 c 128
 1473.16666667 84.6666666667 1489.16666667 108.5 1501.5 139.5 c 128
 1513.83333333 170.5 1523 207.666666667 1529 251 c 128
 1535 294.333333333 1538 343 1538 397 c 256
694 977 m 0
 694 915.666666667 687.666666667 858.833333333 675 806.5 c 128
 662.333333333 754.166666667 643 708.833333333 617 670.5 c 128
 591 632.166666667 558.333333333 602 519 580 c 128
 479.666666667 558 433.666666667 547 381 547 c 256
 328.333333333 547 282.333333333 558 243 580 c 128
 203.666666667 602 170.833333333 632.166666667 144.5 670.5 c 128
 118.166666667 708.833333333 98.5 754.166666667 85.5 806.5 c 128
 72.5 858.833333333 66 915.666666667 66 977 c 0
 66 1037.66666667 72.5 1094.33333333 85.5 1147 c 128
 98.5 1199.66666667 118.166666667 1245.16666667 144.5 1283.5 c 128
 170.833333333 1321.83333333 203.666666667 1352 243 1374 c 128
 282.333333333 1396 328.333333333 1407 381 1407 c 256
 433.666666667 1407 479.666666667 1396 519 1374 c 128
 558.333333333 1352 591 1321.83333333 617 1283.5 c 128
 643 1245.16666667 662.333333333 1199.66666667 675 1147 c 128
 687.666666667 1094.33333333 694 1037.66666667 694 977 c 0
512 0 m 1
 383 0 l 1
 1253 1374 l 1
 1380 1374 l 1
 512 0 l 1
1696 397 m 256
 1696 336.333333333 1689.5 279.833333333 1676.5 227.5 c 128
 1663.5 175.166666667 1644 129.666666667 1618 91 c 128
 1592 52.3333333333 1559.33333333 22 1520 0 c 128
 1480.66666667 -22 1434.66666667 -33 1382 -33 c 256
 1329.33333333 -33 1283.33333333 -22 1244 0 c 128
 1204.66666667 22 1171.83333333 52.3333333333 1145.5 91 c 128
 1119.16666667 129.666666667 1099.5 175.166666667 1086.5 227.5 c 128
 1073.5 279.833333333 1067 336.333333333 1067 397 c 256
 1067 457.666666667 1073.5 514.333333333 1086.5 567 c 128
 1099.5 619.666666667 1119.16666667 665.166666667 1145.5 703.5 c 128
 1171.83333333 741.833333333 1204.66666667 772 1244 794 c 128
 1283.33333333 816 1329.33333333 827 1382 827 c 256
 1434.66666667 827 1480.66666667 816 1520 794 c 128
 1559.33333333 772 1592 741.833333333 1618 703.5 c 128
 1644 665.166666667 1663.5 619.666666667 1676.5 567 c 128
 1689.5 514.333333333 1696 457.666666667 1696 397 c 256
EndSplineSet
EndChar

StartChar: ampersand
Encoding: 38 38 7
Width: 1432
GlyphClass: 2
Flags: HW
LayerCount: 2
Back
Fore
SplineSet
434 682 m 1
 413.333333333 668 394.166666667 652.5 376.5 635.5 c 128
 358.833333333 618.5 343.333333333 599.833333333 330 579.5 c 128
 316.666666667 559.166666667 306.166666667 536.5 298.5 511.5 c 128
 290.833333333 486.5 287 458.666666667 287 428 c 0
 287 382 294.666666667 339.5 310 300.5 c 128
 325.333333333 261.5 346.333333333 227.833333333 373 199.5 c 128
 399.666666667 171.166666667 431.166666667 149 467.5 133 c 128
 503.833333333 117 542.666666667 109 584 109 c 0
 615.333333333 109 643.833333333 112.166666667 669.5 118.5 c 128
 695.166666667 124.833333333 718.833333333 133.333333333 740.5 144 c 128
 762.166666667 154.666666667 782.5 166.833333333 801.5 180.5 c 128
 820.5 194.166666667 838.666666667 208.333333333 856 223 c 1
 434 682 l 1
743 1079 m 0
 743 1108.33333333 739.166666667 1136.33333333 731.5 1163 c 128
 723.833333333 1189.66666667 712 1213.16666667 696 1233.5 c 128
 680 1253.83333333 660 1270 636 1282 c 128
 612 1294 583.666666667 1300 551 1300 c 0
 523 1300 497.666666667 1295 475 1285 c 128
 452.333333333 1275 433 1261.33333333 417 1244 c 128
 401 1226.66666667 388.666666667 1206.33333333 380 1183 c 128
 371.333333333 1159.66666667 367 1134.66666667 367 1108 c 0
 367 1074 373.5 1042.16666667 386.5 1012.5 c 128
 399.5 982.833333333 415.5 955.5 434.5 930.5 c 128
 453.5 905.5 474 882.5 496 861.5 c 128
 518 840.5 538.333333333 821 557 803 c 1
 587 817.666666667 613.5 833.833333333 636.5 851.5 c 128
 659.5 869.166666667 678.833333333 889.166666667 694.5 911.5 c 128
 710.166666667 933.833333333 722.166666667 958.833333333 730.5 986.5 c 128
 738.833333333 1014.16666667 743 1045 743 1079 c 0
1014 0 m 1
 1014 49 l 1
 922 152 l 1
 895.333333333 130.666666667 867.666666667 109.5 839 88.5 c 128
 810.333333333 67.5 779.333333333 48.6666666667 746 32 c 128
 712.666666667 15.3333333333 676.333333333 1.66666666667 637 -9 c 128
 597.666666667 -19.6666666667 554 -25 506 -25 c 0
 447.333333333 -25 392.166666667 -14.8333333333 340.5 5.5 c 128
 288.833333333 25.8333333333 243.666666667 54 205 90 c 128
 166.333333333 126 135.833333333 168.833333333 113.5 218.5 c 128
 91.1666666667 268.166666667 80 322.333333333 80 381 c 0
 80 425.666666667 86.6666666667 466.5 100 503.5 c 128
 113.333333333 540.5 132.166666667 573.833333333 156.5 603.5 c 128
 180.833333333 633.166666667 209.833333333 659.333333333 243.5 682 c 128
 277.166666667 704.666666667 314 724.333333333 354 741 c 1
 342.666666667 752.333333333 327.333333333 767.833333333 308 787.5 c 128
 288.666666667 807.166666667 269.666666667 830.333333333 251 857 c 128
 232.333333333 883.666666667 216.166666667 913.666666667 202.5 947 c 128
 188.833333333 980.333333333 182 1016.33333333 182 1055 c 0
 182 1106.33333333 191.833333333 1153.16666667 211.5 1195.5 c 128
 231.166666667 1237.83333333 258.5 1274.33333333 293.5 1305 c 128
 328.5 1335.66666667 369.666666667 1359.33333333 417 1376 c 128
 464.333333333 1392.66666667 515.666666667 1401 571 1401 c 0
 623 1401 671 1393.16666667 715 1377.5 c 128
 759 1361.83333333 797 1340.33333333 829 1313 c 128
 861 1285.66666667 886.166666667 1253.16666667 904.5 1215.5 c 128
 922.833333333 1177.83333333 932 1136.66666667 932 1092 c 0
 932 1042 923.333333333 998.333333333 906 961 c 128
 888.666666667 923.666666667 865.833333333 891 837.5 863 c 128
 809.166666667 835 777 810.5 741 789.5 c 128
 705 768.5 668.333333333 749.666666667 631 733 c 1
 975 362 l 1
 985.666666667 376 997.166666667 392.666666667 1009.5 412 c 128
 1021.83333333 431.333333333 1033.5 451.666666667 1044.5 473 c 128
 1055.5 494.333333333 1065.16666667 516.166666667 1073.5 538.5 c 128
 1081.83333333 560.833333333 1087.33333333 582 1090 602 c 0
 1090.66666667 608 1087.16666667 615.666666667 1079.5 625 c 128
 1071.83333333 634.333333333 1063.66666667 639.666666667 1055 641 c 2
 944 657 l 1
 944 743 l 1
 1364 743 l 1
 1364 657 l 1
 1217 635 l 1
 1207 600.333333333 1195.16666667 566.666666667 1181.5 534 c 128
 1167.83333333 501.333333333 1153.16666667 470.166666667 1137.5 440.5 c 128
 1121.83333333 410.833333333 1105.66666667 383.333333333 1089 358 c 128
 1072.33333333 332.666666667 1056.66666667 309.666666667 1042 289 c 1
 1208 98 l 1
 1391 88 l 1
 1391 0 l 1
 1014 0 l 1
EndSplineSet
EndChar

StartChar: quotesingle
Encoding: 39 39 8
Width: 350
GlyphClass: 2
Flags: HW
LayerCount: 2
Back
Fore
SplineSet
193 862 m 1
 160 862 l 1
 88 1362 l 1
 88 1394 95.3333333333 1418.66666667 110 1436 c 128
 124.666666667 1453.33333333 146 1462 174 1462 c 0
 202.666666667 1462 224.5 1453.33333333 239.5 1436 c 128
 254.5 1418.66666667 262 1394 262 1362 c 1
 193 862 l 1
EndSplineSet
EndChar

StartChar: asterisk
Encoding: 42 42 9
Width: 1024
GlyphClass: 2
Flags: HW
LayerCount: 2
Back
Fore
SplineSet
406 743 m 1
 264 690 l 1
 268 842 l 1
 475 1008 l 1
 500 989 l 1
 406 743 l 1
467 1036 m 1
 201 1051 l 1
 109 1167 l 1
 254 1210 l 1
 475 1065 l 1
 467 1036 l 1
618 743 m 1
 524 989 l 1
 549 1008 l 1
 756 842 l 1
 760 690 l 1
 618 743 l 1
526 1085 m 1
 498 1085 l 1
 428 1341 l 1
 512 1466 l 1
 598 1341 l 1
 526 1085 l 1
823 1051 m 1
 559 1036 l 1
 549 1065 l 1
 770 1210 l 1
 915 1167 l 1
 823 1051 l 1
EndSplineSet
EndChar

StartChar: plus
Encoding: 43 43 10
Width: 2048
GlyphClass: 2
Flags: HW
LayerCount: 2
Back
Fore
SplineSet
1087 551 m 1
 1087 0 l 1
 961 0 l 1
 961 551 l 1
 410 551 l 1
 410 678 l 1
 961 678 l 1
 961 1229 l 1
 1087 1229 l 1
 1087 678 l 1
 1638 678 l 1
 1638 551 l 1
 1087 551 l 1
EndSplineSet
EndChar

StartChar: less
Encoding: 60 60 11
Width: 2048
GlyphClass: 2
Flags: HW
LayerCount: 2
Back
Fore
SplineSet
410 551 m 1
 410 678 l 1
 1638 1149 l 1
 1638 1022 l 1
 541 614 l 1
 1638 207 l 1
 1638 80 l 1
 410 551 l 1
EndSplineSet
EndChar

StartChar: equal
Encoding: 61 61 12
Width: 2048
GlyphClass: 2
Flags: HW
LayerCount: 2
Back
Fore
SplineSet
410 365 m 1
 410 492 l 1
 1638 492 l 1
 1638 365 l 1
 410 365 l 1
410 737 m 1
 410 864 l 1
 1638 864 l 1
 1638 737 l 1
 410 737 l 1
EndSplineSet
EndChar

StartChar: greater
Encoding: 62 62 13
Width: 2048
GlyphClass: 2
Flags: HW
LayerCount: 2
Back
Fore
SplineSet
410 80 m 1
 410 207 l 1
 1507 614 l 1
 410 1022 l 1
 410 1149 l 1
 1638 678 l 1
 1638 551 l 1
 410 80 l 1
EndSplineSet
EndChar

StartChar: at
Encoding: 64 64 14
Width: 1917
GlyphClass: 2
Flags: HW
LayerCount: 2
Back
Fore
SplineSet
1196 805 m 2
 1198 813.666666667 1196.33333333 824.666666667 1191 838 c 128
 1185.66666667 851.333333333 1177.5 864.166666667 1166.5 876.5 c 128
 1155.5 888.833333333 1142.16666667 899.5 1126.5 908.5 c 128
 1110.83333333 917.5 1093.66666667 922 1075 922 c 0
 1024.33333333 922 978.666666667 910.166666667 938 886.5 c 128
 897.333333333 862.833333333 862.666666667 830.5 834 789.5 c 128
 805.333333333 748.5 783.333333333 700.5 768 645.5 c 128
 752.666666667 590.5 745 531.666666667 745 469 c 0
 745 395 758.833333333 339.666666667 786.5 303 c 128
 814.166666667 266.333333333 853.666666667 248 905 248 c 0
 927.666666667 248 949.333333333 252.5 970 261.5 c 128
 990.666666667 270.5 1009.83333333 281.666666667 1027.5 295 c 128
 1045.16666667 308.333333333 1061.33333333 322.666666667 1076 338 c 128
 1090.66666667 353.333333333 1103.33333333 367.666666667 1114 381 c 1
 1196 805 l 2
1769 764 m 0
 1769 694.666666667 1761.5 630.5 1746.5 571.5 c 128
 1731.5 512.5 1711.16666667 459 1685.5 411 c 128
 1659.83333333 363 1630.16666667 320.5 1596.5 283.5 c 128
 1562.83333333 246.5 1527.5 215.5 1490.5 190.5 c 128
 1453.5 165.5 1416 146.666666667 1378 134 c 128
 1340 121.333333333 1304 115 1270 115 c 0
 1213.33333333 115 1172.5 129.166666667 1147.5 157.5 c 128
 1122.5 185.833333333 1110 228.333333333 1110 285 c 1
 1056.66666667 231 1005.83333333 189.5 957.5 160.5 c 128
 909.166666667 131.5 861 117 813 117 c 0
 775.666666667 117 741.333333333 124.833333333 710 140.5 c 128
 678.666666667 156.166666667 651.666666667 178.5 629 207.5 c 128
 606.333333333 236.5 588.666666667 271.5 576 312.5 c 128
 563.333333333 353.5 557 399.666666667 557 451 c 0
 557 529 571.5 602 600.5 670 c 128
 629.5 738 667.833333333 797 715.5 847 c 128
 763.166666667 897 817.5 936.333333333 878.5 965 c 128
 939.5 993.666666667 1002.33333333 1008 1067 1008 c 0
 1081.66666667 1008 1097.66666667 1006.66666667 1115 1004 c 128
 1132.33333333 1001.33333333 1149.83333333 997.5 1167.5 992.5 c 128
 1185.16666667 987.5 1202.5 981.5 1219.5 974.5 c 128
 1236.5 967.5 1252.66666667 960 1268 952 c 1
 1305 999 l 1
 1419 999 l 1
 1417.66666667 995 1414.66666667 983.166666667 1410 963.5 c 128
 1405.33333333 943.833333333 1399.66666667 919.5 1393 890.5 c 128
 1386.33333333 861.5 1378.83333333 828.833333333 1370.5 792.5 c 128
 1362.16666667 756.166666667 1354 719.666666667 1346 683 c 0
 1326 596.333333333 1304 499 1280 391 c 1
 1274 367.666666667 1271 346.166666667 1271 326.5 c 128
 1271 306.833333333 1274 290 1280 276 c 128
 1286 262 1295.33333333 251 1308 243 c 128
 1320.66666667 235 1336.66666667 231 1356 231 c 0
 1386 231 1419.33333333 243.333333333 1456 268 c 128
 1492.66666667 292.666666667 1526.66666667 328 1558 374 c 128
 1589.33333333 420 1615.66666667 475.833333333 1637 541.5 c 128
 1658.33333333 607.166666667 1669 680.666666667 1669 762 c 0
 1669 858 1652.66666667 941.333333333 1620 1012 c 128
 1587.33333333 1082.66666667 1544.16666667 1141.16666667 1490.5 1187.5 c 128
 1436.83333333 1233.83333333 1375.66666667 1268.33333333 1307 1291 c 128
 1238.33333333 1313.66666667 1168 1325 1096 1325 c 0
 1018 1325 944.166666667 1315.83333333 874.5 1297.5 c 128
 804.833333333 1279.16666667 740.5 1253.16666667 681.5 1219.5 c 128
 622.5 1185.83333333 569.166666667 1145 521.5 1097 c 128
 473.833333333 1049 433.5 995.333333333 400.5 936 c 128
 367.5 876.666666667 342 812.5 324 743.5 c 128
 306 674.5 297 602 297 526 c 0
 297 422 313.166666667 325 345.5 235 c 128
 377.833333333 145 424.666666667 67 486 1 c 128
 547.333333333 -65 622.333333333 -116.833333333 711 -154.5 c 128
 799.666666667 -192.166666667 900.666666667 -211 1014 -211 c 0
 1074 -211 1130 -206.333333333 1182 -197 c 128
 1234 -187.666666667 1282.33333333 -175.666666667 1327 -161 c 128
 1371.66666667 -146.333333333 1412.83333333 -130 1450.5 -112 c 128
 1488.16666667 -94 1522.66666667 -76.3333333333 1554 -59 c 1
 1583 -133 l 1
 1537 -157.666666667 1490 -180.833333333 1442 -202.5 c 128
 1394 -224.166666667 1344.5 -243.166666667 1293.5 -259.5 c 128
 1242.5 -275.833333333 1189.83333333 -288.833333333 1135.5 -298.5 c 128
 1081.16666667 -308.166666667 1024.33333333 -313 965 -313 c 0
 891.666666667 -313 820.666666667 -304.666666667 752 -288 c 128
 683.333333333 -271.333333333 618.833333333 -247.166666667 558.5 -215.5 c 128
 498.166666667 -183.833333333 443 -144.833333333 393 -98.5 c 128
 343 -52.1666666667 300 0.666666666667 264 60 c 128
 228 119.333333333 200 185 180 257 c 128
 160 329 150 406.333333333 150 489 c 0
 150 590.333333333 162.166666667 683.5 186.5 768.5 c 128
 210.833333333 853.5 244.333333333 930.333333333 287 999 c 128
 329.666666667 1067.66666667 380.166666667 1128 438.5 1180 c 128
 496.833333333 1232 560 1275.33333333 628 1310 c 128
 696 1344.66666667 767.5 1370.83333333 842.5 1388.5 c 128
 917.5 1406.16666667 993 1415 1069 1415 c 0
 1170.33333333 1415 1263.83333333 1400.83333333 1349.5 1372.5 c 128
 1435.16666667 1344.16666667 1509 1302.5 1571 1247.5 c 128
 1633 1192.5 1681.5 1124.5 1716.5 1043.5 c 128
 1751.5 962.5 1769 869.333333333 1769 764 c 0
EndSplineSet
EndChar

StartChar: A
Encoding: 65 65 15
Width: 1380
GlyphClass: 2
Flags: HW
LayerCount: 2
Back
Fore
SplineSet
643 1143 m 1
 444 606 l 1
 844 606 l 1
 643 1143 l 1
883 0 m 1
 883 88 l 1
 1001 98 l 2
 1007.66666667 98 1013.33333333 102.5 1018 111.5 c 128
 1022.66666667 120.5 1024 127.666666667 1022 133 c 2
 881 508 l 1
 408 508 l 1
 272 139 l 2
 270.666666667 135 270.666666667 130.666666667 272 126 c 128
 273.333333333 121.333333333 275.666666667 116.833333333 279 112.5 c 128
 282.333333333 108.166666667 286 104.666666667 290 102 c 128
 294 99.3333333333 297.666666667 98 301 98 c 2
 422 88 l 1
 422 0 l 1
 10 0 l 1
 10 88 l 1
 129 113 l 1
 606 1407 l 1
 760 1407 l 1
 1235 143 l 2
 1239.66666667 129 1244.16666667 119.666666667 1248.5 115 c 128
 1252.83333333 110.333333333 1262.66666667 106.666666667 1278 104 c 2
 1370 88 l 1
 1370 0 l 1
 883 0 l 1
EndSplineSet
EndChar

StartChar: B
Encoding: 66 66 16
Width: 1239
GlyphClass: 2
Flags: HW
LayerCount: 2
Back
Fore
SplineSet
1159 406 m 0
 1159 350.666666667 1151.16666667 302.166666667 1135.5 260.5 c 128
 1119.83333333 218.833333333 1098.66666667 183 1072 153 c 128
 1045.33333333 123 1014.5 98.1666666667 979.5 78.5 c 128
 944.5 58.8333333333 907.833333333 43.1666666667 869.5 31.5 c 128
 831.166666667 19.8333333333 792.166666667 11.6666666667 752.5 7 c 128
 712.833333333 2.33333333333 675 0 639 0 c 2
 66 0 l 1
 66 88 l 1
 174 96 l 2
 188.666666667 97.3333333333 199.5 102.666666667 206.5 112 c 128
 213.5 121.333333333 217 131 217 141 c 2
 217 1233 l 2
 217 1243 213.5 1252.66666667 206.5 1262 c 128
 199.5 1271.33333333 188.666666667 1276.66666667 174 1278 c 2
 66 1286 l 1
 66 1374 l 1
 614 1374 l 2
 695.333333333 1374 765.166666667 1366.5 823.5 1351.5 c 128
 881.833333333 1336.5 929.666666667 1314.66666667 967 1286 c 128
 1004.33333333 1257.33333333 1031.66666667 1222.66666667 1049 1182 c 128
 1066.33333333 1141.33333333 1075 1095.33333333 1075 1044 c 256
 1075 992.666666667 1065.33333333 949 1046 913 c 128
 1026.66666667 877 1002.33333333 846.666666667 973 822 c 128
 943.666666667 797.333333333 911.666666667 777.666666667 877 763 c 128
 842.333333333 748.333333333 810 737 780 729 c 1
 826 729 871.5 723.5 916.5 712.5 c 128
 961.5 701.5 1002 683.333333333 1038 658 c 128
 1074 632.666666667 1103.16666667 599.333333333 1125.5 558 c 128
 1147.83333333 516.666666667 1159 466 1159 406 c 0
936 389 m 0
 936 482.333333333 908.333333333 550.666666667 853 594 c 128
 797.666666667 637.333333333 715.333333333 659 606 659 c 0
 589.333333333 659 570.833333333 658.333333333 550.5 657 c 128
 530.166666667 655.666666667 511 654.333333333 493 653 c 128
 475 651.666666667 459.333333333 650.333333333 446 649 c 128
 432.666666667 647.666666667 424.666666667 647 422 647 c 1
 422 106 l 1
 438.666666667 104.666666667 455 103.666666667 471 103 c 1
 484.333333333 101.666666667 498.166666667 100.833333333 512.5 100.5 c 128
 526.833333333 100.166666667 539 100 549 100 c 0
 621 100 681.5 106 730.5 118 c 128
 779.5 130 819.333333333 148 850 172 c 128
 880.666666667 196 902.666666667 226 916 262 c 128
 929.333333333 298 936 340.333333333 936 389 c 0
854 1030 m 0
 854 1110.66666667 828 1172.5 776 1215.5 c 128
 724 1258.5 645 1280 539 1280 c 0
 528.333333333 1280 516.833333333 1279.66666667 504.5 1279 c 128
 492.166666667 1278.33333333 480.5 1277.66666667 469.5 1277 c 128
 458.5 1276.33333333 448.666666667 1275.66666667 440 1275 c 128
 431.333333333 1274.33333333 425.333333333 1274 422 1274 c 1
 422 756 l 1
 431.333333333 755.333333333 440.666666667 755 450 755 c 1
 458 754.333333333 466 754 474 754 c 2
 496 754 l 2
 562.666666667 754 618.833333333 760.166666667 664.5 772.5 c 128
 710.166666667 784.833333333 747 802.666666667 775 826 c 128
 803 849.333333333 823.166666667 878.166666667 835.5 912.5 c 128
 847.833333333 946.833333333 854 986 854 1030 c 0
EndSplineSet
EndChar

StartChar: C
Encoding: 67 67 17
Width: 1284
GlyphClass: 2
Flags: HW
LayerCount: 2
Back
Fore
SplineSet
1204 47 m 1
 1201.33333333 45.6666666667 1188.33333333 40.8333333333 1165 32.5 c 128
 1141.66666667 24.1666666667 1111.33333333 15.1666666667 1074 5.5 c 128
 1036.66666667 -4.16666666667 993.833333333 -13 945.5 -21 c 128
 897.166666667 -29 847 -33 795 -33 c 0
 718.333333333 -33 647.5 -23.8333333333 582.5 -5.5 c 128
 517.5 12.8333333333 458.5 38.3333333333 405.5 71 c 128
 352.5 103.666666667 305.833333333 142.666666667 265.5 188 c 128
 225.166666667 233.333333333 191.166666667 282.666666667 163.5 336 c 128
 135.833333333 389.333333333 115 446 101 506 c 128
 87 566 80 627.333333333 80 690 c 0
 80 796 97.3333333333 893 132 981 c 128
 166.666666667 1069 215.333333333 1144.5 278 1207.5 c 128
 340.666666667 1270.5 416 1319.5 504 1354.5 c 128
 592 1389.5 689.666666667 1407 797 1407 c 0
 830.333333333 1407 862.5 1405.16666667 893.5 1401.5 c 128
 924.5 1397.83333333 956 1392.66666667 988 1386 c 128
 1020 1379.33333333 1053.66666667 1371 1089 1361 c 128
 1124.33333333 1351 1162.66666667 1339.66666667 1204 1327 c 1
 1204 1006 l 1
 1081 1006 l 1
 1051 1192 l 2
 1049.66666667 1201.33333333 1045 1210.66666667 1037 1220 c 128
 1029 1229.33333333 1022 1235.66666667 1016 1239 c 1
 1008 1242.33333333 997.5 1247 984.5 1253 c 128
 971.5 1259 956 1264.83333333 938 1270.5 c 128
 920 1276.16666667 900 1281.16666667 878 1285.5 c 128
 856 1289.83333333 832.333333333 1292 807 1292 c 0
 737 1292 672 1279 612 1253 c 128
 552 1227 500 1188.66666667 456 1138 c 128
 412 1087.33333333 377.5 1024.5 352.5 949.5 c 128
 327.5 874.5 315 788 315 690 c 0
 315 594.666666667 326.833333333 509.333333333 350.5 434 c 128
 374.166666667 358.666666667 408.333333333 294.666666667 453 242 c 128
 497.666666667 189.333333333 552 149.166666667 616 121.5 c 128
 680 93.8333333333 752.666666667 80 834 80 c 0
 858 80 879.833333333 81.6666666667 899.5 85 c 128
 919.166666667 88.3333333333 936.333333333 92.1666666667 951 96.5 c 128
 965.666666667 100.833333333 977 104.833333333 985 108.5 c 128
 993 112.166666667 997.666666667 114.333333333 999 115 c 0
 1009.66666667 119 1018.33333333 124.666666667 1025 132 c 128
 1031.66666667 139.333333333 1036 147.333333333 1038 156 c 2
 1085 379 l 1
 1204 379 l 1
 1204 47 l 1
EndSplineSet
EndChar

StartChar: D
Encoding: 68 68 18
Width: 1425
GlyphClass: 2
Flags: HW
LayerCount: 2
Back
Fore
SplineSet
1114 686 m 0
 1114 793.333333333 1101.5 884.5 1076.5 959.5 c 128
 1051.5 1034.5 1015.83333333 1095.5 969.5 1142.5 c 128
 923.166666667 1189.5 867.166666667 1223.5 801.5 1244.5 c 128
 735.833333333 1265.5 662.666666667 1276 582 1276 c 2
 426 1276 l 1
 426 98 l 1
 592 100 l 2
 670.666666667 100.666666667 742.166666667 111.833333333 806.5 133.5 c 128
 870.833333333 155.166666667 925.666666667 189.333333333 971 236 c 128
 1016.33333333 282.666666667 1051.5 343 1076.5 417 c 128
 1101.5 491 1114 580.666666667 1114 686 c 0
1346 690 m 0
 1346 630 1340.33333333 571.5 1329 514.5 c 128
 1317.66666667 457.5 1300 403.333333333 1276 352 c 128
 1252 300.666666667 1221.16666667 253.5 1183.5 210.5 c 128
 1145.83333333 167.5 1100.66666667 130.333333333 1048 99 c 128
 995.333333333 67.6666666667 934.833333333 43.3333333333 866.5 26 c 128
 798.166666667 8.66666666667 721 0 635 0 c 2
 66 0 l 1
 66 88 l 1
 174 96 l 2
 188.666666667 97.3333333333 199.833333333 102.666666667 207.5 112 c 128
 215.166666667 121.333333333 219 131 219 141 c 2
 219 1233 l 2
 219 1243 215.166666667 1252.66666667 207.5 1262 c 128
 199.833333333 1271.33333333 188.666666667 1276.66666667 174 1278 c 2
 66 1286 l 1
 66 1374 l 1
 594 1374 l 2
 701.333333333 1374 801 1360.5 893 1333.5 c 128
 985 1306.5 1064.5 1265 1131.5 1209 c 128
 1198.5 1153 1251 1082 1289 996 c 128
 1327 910 1346 808 1346 690 c 0
EndSplineSet
EndChar

StartChar: E
Encoding: 69 69 19
Width: 1194
GlyphClass: 2
Flags: HW
LayerCount: 2
Back
Fore
SplineSet
66 0 m 1
 66 88 l 1
 172 96 l 2
 186.666666667 97.3333333333 197.833333333 102.666666667 205.5 112 c 128
 213.166666667 121.333333333 217 131 217 141 c 2
 217 1233 l 2
 217 1243 213.166666667 1252.66666667 205.5 1262 c 128
 197.833333333 1271.33333333 186.666666667 1276.66666667 172 1278 c 2
 66 1286 l 1
 66 1374 l 1
 1061 1374 l 1
 1061 1069 l 1
 938 1069 l 1
 907 1237 l 2
 905.666666667 1247 901.5 1256 894.5 1264 c 128
 887.5 1272 879.333333333 1276 870 1276 c 2
 426 1276 l 1
 426 766 l 1
 733 766 l 2
 742.333333333 766 750.833333333 770 758.5 778 c 128
 766.166666667 786 770 793.666666667 770 801 c 1
 791 942 l 1
 895 942 l 1
 895 485 l 1
 791 485 l 1
 770 627 l 1
 770 634.333333333 766 642.333333333 758 651 c 128
 750 659.666666667 741.666666667 664 733 664 c 2
 426 664 l 1
 426 100 l 1
 944 100 l 2
 952.666666667 100 960.666666667 104.666666667 968 114 c 128
 975.333333333 123.333333333 979.666666667 131.666666667 981 139 c 2
 1018 342 l 1
 1128 342 l 1
 1128 0 l 1
 66 0 l 1
EndSplineSet
EndChar

StartChar: F
Encoding: 70 70 20
Width: 1108
GlyphClass: 2
Flags: HW
LayerCount: 2
Back
Fore
SplineSet
926 1049 m 1
 897 1237 l 2
 895 1247 891 1255.66666667 885 1263 c 128
 879 1270.33333333 871.333333333 1274 862 1274 c 2
 426 1274 l 1
 426 741 l 1
 739 741 l 2
 748.333333333 741 756.5 745.333333333 763.5 754 c 128
 770.5 762.666666667 774.666666667 770.666666667 776 778 c 2
 795 922 l 1
 897 922 l 1
 897 461 l 1
 795 461 l 1
 776 604 l 2
 774.666666667 611.333333333 770.333333333 619.333333333 763 628 c 128
 755.666666667 636.666666667 747.666666667 641 739 641 c 2
 426 641 l 1
 426 141 l 2
 426 131 429.5 121.333333333 436.5 112 c 128
 443.5 102.666666667 454.333333333 97.3333333333 469 96 c 2
 606 88 l 1
 606 0 l 1
 68 0 l 1
 68 88 l 1
 176 96 l 2
 190.666666667 97.3333333333 201.5 102.666666667 208.5 112 c 128
 215.5 121.333333333 219 131 219 141 c 2
 219 1233 l 2
 219 1243 215.5 1252.66666667 208.5 1262 c 128
 201.5 1271.33333333 190.666666667 1276.66666667 176 1278 c 2
 51 1286 l 1
 51 1374 l 1
 1047 1374 l 1
 1047 1049 l 1
 926 1049 l 1
EndSplineSet
EndChar

StartChar: G
Encoding: 71 71 21
Width: 1423
GlyphClass: 2
Flags: HW
LayerCount: 2
Back
Fore
SplineSet
1268 565 m 2
 1253.33333333 563.666666667 1242.5 558.833333333 1235.5 550.5 c 128
 1228.5 542.166666667 1225 532.666666667 1225 522 c 2
 1225 49 l 1
 1183.66666667 33.6666666667 1139.66666667 20 1093 8 c 0
 1053 -2.66666666667 1007.16666667 -12.1666666667 955.5 -20.5 c 128
 903.833333333 -28.8333333333 850.333333333 -33 795 -33 c 0
 719 -33 648.5 -24 583.5 -6 c 128
 518.5 12 459.5 37.3333333333 406.5 70 c 128
 353.5 102.666666667 306.666666667 141.5 266 186.5 c 128
 225.333333333 231.5 191.166666667 280.666666667 163.5 334 c 128
 135.833333333 387.333333333 115 444.166666667 101 504.5 c 128
 87 564.833333333 80 626.666666667 80 690 c 0
 80 797.333333333 97 895.166666667 131 983.5 c 128
 165 1071.83333333 214 1147.33333333 278 1210 c 128
 342 1272.66666667 419.833333333 1321.16666667 511.5 1355.5 c 128
 603.166666667 1389.83333333 706.333333333 1407 821 1407 c 0
 859.666666667 1407 896.5 1404.83333333 931.5 1400.5 c 128
 966.5 1396.16666667 1000.33333333 1390.66666667 1033 1384 c 128
 1065.66666667 1377.33333333 1097.66666667 1369.83333333 1129 1361.5 c 128
 1160.33333333 1353.16666667 1191.66666667 1345 1223 1337 c 1
 1223 1006 l 1
 1100 1006 l 1
 1067 1190 l 2
 1065 1202 1060 1212.16666667 1052 1220.5 c 128
 1044 1228.83333333 1035.33333333 1235 1026 1239 c 0
 1016 1243 1003.83333333 1248 989.5 1254 c 128
 975.166666667 1260 959 1265.83333333 941 1271.5 c 128
 923 1277.16666667 903.166666667 1282 881.5 1286 c 128
 859.833333333 1290 837 1292 813 1292 c 0
 739 1292 671.333333333 1279 610 1253 c 128
 548.666666667 1227 496 1189 452 1139 c 128
 408 1089 373.833333333 1027.16666667 349.5 953.5 c 128
 325.166666667 879.833333333 313 795.333333333 313 700 c 0
 313 602 325.333333333 514.666666667 350 438 c 128
 374.666666667 361.333333333 409.833333333 296.666666667 455.5 244 c 128
 501.166666667 191.333333333 556.333333333 151.166666667 621 123.5 c 128
 685.666666667 95.8333333333 758 82 838 82 c 0
 860.666666667 82 882.333333333 83.6666666667 903 87 c 128
 923.666666667 90.3333333333 942 93.8333333333 958 97.5 c 128
 974 101.166666667 987.333333333 104.666666667 998 108 c 128
 1008.66666667 111.333333333 1015.33333333 113 1018 113 c 1
 1018 522 l 2
 1018 532.666666667 1014.5 542.166666667 1007.5 550.5 c 128
 1000.5 558.833333333 989.666666667 563.666666667 975 565 c 2
 838 575 l 1
 838 664 l 1
 1372 664 l 1
 1372 575 l 1
 1268 565 l 2
EndSplineSet
EndChar

StartChar: H
Encoding: 72 72 22
Width: 1522
GlyphClass: 2
Flags: HW
LayerCount: 2
Back
Fore
SplineSet
938 0 m 1
 938 88 l 1
 1055 96 l 2
 1069 97.3333333333 1079.66666667 102.666666667 1087 112 c 128
 1094.33333333 121.333333333 1098 131 1098 141 c 2
 1098 670 l 1
 424 670 l 1
 424 141 l 2
 424 131 427.5 121.333333333 434.5 112 c 128
 441.5 102.666666667 452.333333333 97.3333333333 467 96 c 2
 584 88 l 1
 584 0 l 1
 66 0 l 1
 66 88 l 1
 172 96 l 2
 186.666666667 97.3333333333 197.833333333 102.666666667 205.5 112 c 128
 213.166666667 121.333333333 217 131 217 141 c 2
 217 1233 l 2
 217 1243 213.166666667 1252.33333333 205.5 1261 c 128
 197.833333333 1269.66666667 186.666666667 1274.66666667 172 1276 c 2
 66 1284 l 1
 66 1374 l 1
 584 1374 l 1
 584 1284 l 1
 467 1276 l 2
 452.333333333 1274.66666667 441.5 1269.66666667 434.5 1261 c 128
 427.5 1252.33333333 424 1243 424 1233 c 2
 424 772 l 1
 1098 772 l 1
 1098 1233 l 2
 1098 1243 1094.33333333 1252.33333333 1087 1261 c 128
 1079.66666667 1269.66666667 1069 1274.66666667 1055 1276 c 2
 938 1284 l 1
 938 1374 l 1
 1456 1374 l 1
 1456 1284 l 1
 1350 1276 l 2
 1335.33333333 1274.66666667 1324.16666667 1269.66666667 1316.5 1261 c 128
 1308.83333333 1252.33333333 1305 1243 1305 1233 c 2
 1305 141 l 2
 1305 131 1308.83333333 121.333333333 1316.5 112 c 128
 1324.16666667 102.666666667 1335.33333333 97.3333333333 1350 96 c 2
 1456 88 l 1
 1456 0 l 1
 938 0 l 1
EndSplineSet
EndChar

StartChar: I
Encoding: 73 73 23
Width: 676
GlyphClass: 2
Flags: HW
LayerCount: 2
Back
Fore
SplineSet
68 0 m 1
 68 88 l 1
 190 96 l 2
 204.666666667 97.3333333333 215.5 102.666666667 222.5 112 c 128
 229.5 121.333333333 233 131 233 141 c 2
 233 1233 l 2
 233 1243 229.5 1252.33333333 222.5 1261 c 128
 215.5 1269.66666667 204.666666667 1274.66666667 190 1276 c 2
 68 1284 l 1
 68 1374 l 1
 608 1374 l 1
 608 1284 l 1
 483 1276 l 2
 469 1274.66666667 458.333333333 1269.66666667 451 1261 c 128
 443.666666667 1252.33333333 440 1243 440 1233 c 2
 440 141 l 2
 440 131 443.666666667 121.333333333 451 112 c 128
 458.333333333 102.666666667 469 97.3333333333 483 96 c 2
 608 88 l 1
 608 0 l 1
 68 0 l 1
EndSplineSet
EndChar

StartChar: J
Encoding: 74 74 24
Width: 993
GlyphClass: 2
Flags: HW
LayerCount: 2
Back
Fore
SplineSet
821 1278 m 2
 807 1276.66666667 796.333333333 1271.33333333 789 1262 c 128
 781.666666667 1252.66666667 778 1243 778 1233 c 2
 778 518 l 2
 778 432.666666667 770 356 754 288 c 128
 738 220 712.333333333 162.333333333 677 115 c 128
 641.666666667 67.6666666667 595.333333333 31.1666666667 538 5.5 c 128
 480.666666667 -20.1666666667 410.666666667 -33 328 -33 c 0
 294.666666667 -33 262 -30.1666666667 230 -24.5 c 128
 198 -18.8333333333 169.333333333 -12.5 144 -5.5 c 128
 118.666666667 1.5 97.5 8 80.5 14 c 128
 63.5 20 53.6666666667 23.6666666667 51 25 c 1
 51 375 l 1
 174 375 l 1
 219 125 l 2
 221 115 225.166666667 106.5 231.5 99.5 c 128
 237.833333333 92.5 245.333333333 87 254 83 c 128
 262.666666667 79 272.166666667 76.1666666667 282.5 74.5 c 128
 292.833333333 72.8333333333 303 72 313 72 c 0
 359.666666667 72 399.333333333 81 432 99 c 128
 464.666666667 117 491.333333333 144 512 180 c 128
 532.666666667 216 547.666666667 261 557 315 c 128
 566.333333333 369 571 432 571 504 c 2
 571 1233 l 2
 571 1243 567.5 1252.66666667 560.5 1262 c 128
 553.5 1271.33333333 542.666666667 1276.66666667 528 1278 c 2
 399 1286 l 1
 399 1374 l 1
 940 1374 l 1
 940 1286 l 1
 821 1278 l 2
EndSplineSet
EndChar

StartChar: K
Encoding: 75 75 25
Width: 1307
GlyphClass: 2
Flags: HW
LayerCount: 2
Back
Fore
SplineSet
948 0 m 1
 948 63 l 1
 567 610 l 1
 424 610 l 1
 424 141 l 2
 424 131 427.833333333 121.333333333 435.5 112 c 128
 443.166666667 102.666666667 454.333333333 97.3333333333 469 96 c 2
 586 88 l 1
 586 0 l 1
 66 0 l 1
 66 88 l 1
 174 96 l 2
 188.666666667 97.3333333333 199.5 102.666666667 206.5 112 c 128
 213.5 121.333333333 217 131 217 141 c 2
 217 1233 l 2
 217 1243 213.5 1252.66666667 206.5 1262 c 128
 199.5 1271.33333333 188.666666667 1276.66666667 174 1278 c 2
 66 1286 l 1
 66 1374 l 1
 586 1374 l 1
 586 1286 l 1
 469 1278 l 2
 454.333333333 1276.66666667 443.166666667 1271.33333333 435.5 1262 c 128
 427.833333333 1252.66666667 424 1243 424 1233 c 2
 424 696 l 1
 498 696 l 1
 944 1241 l 2
 948.666666667 1247 948.833333333 1254 944.5 1262 c 128
 940.166666667 1270 934.666666667 1274.66666667 928 1276 c 1
 823 1286 l 1
 823 1374 l 1
 1257 1374 l 1
 1257 1286 l 1
 1233 1284 1211.33333333 1281.66666667 1192 1279 c 0
 1175.33333333 1277 1159.66666667 1275.16666667 1145 1273.5 c 128
 1130.33333333 1271.83333333 1121.33333333 1270.66666667 1118 1270 c 1
 700 770 l 1
 1159 98 l 1
 1307 88 l 1
 1307 0 l 1
 948 0 l 1
EndSplineSet
EndChar

StartChar: L
Encoding: 76 76 26
Width: 1087
GlyphClass: 2
Flags: HW
LayerCount: 2
Back
Fore
SplineSet
55 0 m 1
 55 88 l 1
 174 96 l 2
 188.666666667 97.3333333333 199.5 102.666666667 206.5 112 c 128
 213.5 121.333333333 217 131 217 141 c 2
 217 1233 l 2
 217 1243 213.5 1252.66666667 206.5 1262 c 128
 199.5 1271.33333333 188.666666667 1276.66666667 174 1278 c 2
 55 1286 l 1
 55 1374 l 1
 578 1374 l 1
 578 1286 l 1
 469 1278 l 2
 454.333333333 1276.66666667 443.166666667 1271.33333333 435.5 1262 c 128
 427.833333333 1252.66666667 424 1243 424 1233 c 2
 424 100 l 1
 854 100 l 2
 863.333333333 100 872.833333333 103.5 882.5 110.5 c 128
 892.166666667 117.5 897.666666667 125.666666667 899 135 c 2
 932 381 l 1
 1051 381 l 1
 1051 0 l 1
 55 0 l 1
EndSplineSet
EndChar

StartChar: M
Encoding: 77 77 27
Width: 1794
GlyphClass: 2
Flags: HW
LayerCount: 2
Back
Fore
SplineSet
1214 0 m 1
 1214 88 l 1
 1323 96 l 2
 1337.66666667 97.3333333333 1348.83333333 102.666666667 1356.5 112 c 128
 1364.16666667 121.333333333 1368 131 1368 141 c 2
 1368 1270 l 1
 897 0 l 1
 795 0 l 1
 340 1251 l 1
 340 141 l 2
 340 131 343.833333333 121.333333333 351.5 112 c 128
 359.166666667 102.666666667 370.333333333 97.3333333333 385 96 c 2
 502 88 l 1
 502 0 l 1
 59 0 l 1
 59 88 l 1
 176 96 l 2
 190.666666667 97.3333333333 201.5 102.666666667 208.5 112 c 128
 215.5 121.333333333 219 131 219 141 c 2
 219 1233 l 2
 219 1243 215.5 1252.66666667 208.5 1262 c 128
 201.5 1271.33333333 190.666666667 1276.66666667 176 1278 c 2
 59 1286 l 1
 59 1374 l 1
 518 1374 l 1
 518 1319 l 1
 889 313 l 1
 1260 1313 l 1
 1260 1374 l 1
 1731 1374 l 1
 1731 1286 l 1
 1620 1278 l 2
 1605.33333333 1276.66666667 1594.16666667 1271.33333333 1586.5 1262 c 128
 1578.83333333 1252.66666667 1575 1243 1575 1233 c 2
 1575 141 l 2
 1575 131 1578.83333333 121.333333333 1586.5 112 c 128
 1594.16666667 102.666666667 1605.33333333 97.3333333333 1620 96 c 2
 1731 88 l 1
 1731 0 l 1
 1214 0 l 1
EndSplineSet
EndChar

StartChar: N
Encoding: 78 78 28
Width: 1477
GlyphClass: 2
Flags: HW
LayerCount: 2
Back
Fore
SplineSet
1303 1278 m 2
 1288.33333333 1276.66666667 1277.5 1271.33333333 1270.5 1262 c 128
 1263.5 1252.66666667 1260 1243 1260 1233 c 2
 1260 0 l 1
 1100 0 l 1
 338 1147 l 1
 338 141 l 2
 338 131 341.5 121.333333333 348.5 112 c 128
 355.5 102.666666667 366.333333333 97.3333333333 381 96 c 2
 498 88 l 1
 498 0 l 1
 55 0 l 1
 55 88 l 1
 172 96 l 2
 186.666666667 97.3333333333 197.833333333 102.666666667 205.5 112 c 128
 213.166666667 121.333333333 217 131 217 141 c 2
 217 1233 l 2
 217 1243 213.166666667 1252.66666667 205.5 1262 c 128
 197.833333333 1271.33333333 186.666666667 1276.66666667 172 1278 c 2
 51 1286 l 1
 51 1374 l 1
 457 1374 l 1
 457 1323 l 1
 1139 293 l 1
 1139 1233 l 2
 1139 1243 1135.33333333 1252.66666667 1128 1262 c 128
 1120.66666667 1271.33333333 1110 1276.66666667 1096 1278 c 2
 979 1286 l 1
 979 1374 l 1
 1417 1374 l 1
 1417 1286 l 1
 1303 1278 l 2
EndSplineSet
EndChar

StartChar: O
Encoding: 79 79 29
Width: 1497
GlyphClass: 2
Flags: HW
LayerCount: 2
Back
Fore
SplineSet
1180 684 m 0
 1180 767.333333333 1171 845.833333333 1153 919.5 c 128
 1135 993.166666667 1108 1057.5 1072 1112.5 c 128
 1036 1167.5 991.166666667 1210.83333333 937.5 1242.5 c 128
 883.833333333 1274.16666667 821.333333333 1290 750 1290 c 0
 676 1290 611.666666667 1274 557 1242 c 128
 502.333333333 1210 457 1166.5 421 1111.5 c 128
 385 1056.5 358.333333333 992.5 341 919.5 c 128
 323.666666667 846.5 315 769.333333333 315 688 c 0
 315 606 323.833333333 528.166666667 341.5 454.5 c 128
 359.166666667 380.833333333 385.833333333 316.333333333 421.5 261 c 128
 457.166666667 205.666666667 501.833333333 161.666666667 555.5 129 c 128
 609.166666667 96.3333333333 672.333333333 80 745 80 c 0
 819 80 883.166666667 96.3333333333 937.5 129 c 128
 991.833333333 161.666666667 1037 205.5 1073 260.5 c 128
 1109 315.5 1135.83333333 379.5 1153.5 452.5 c 128
 1171.16666667 525.5 1180 602.666666667 1180 684 c 0
1417 686 m 256
 1417 586.666666667 1401 493.333333333 1369 406 c 128
 1337 318.666666667 1291.83333333 242.5 1233.5 177.5 c 128
 1175.16666667 112.5 1105 61.1666666667 1023 23.5 c 128
 941 -14.1666666667 850 -33 750 -33 c 0
 649.333333333 -33 557.833333333 -14.8333333333 475.5 21.5 c 128
 393.166666667 57.8333333333 322.666666667 108.333333333 264 173 c 128
 205.333333333 237.666666667 160 313.833333333 128 401.5 c 128
 96 489.166666667 80 584.666666667 80 688 c 0
 80 788 95.6666666667 881.666666667 127 969 c 128
 158.333333333 1056.33333333 203 1132.5 261 1197.5 c 128
 319 1262.5 389.166666667 1313.66666667 471.5 1351 c 128
 553.833333333 1388.33333333 646 1407 748 1407 c 0
 849.333333333 1407 941.166666667 1388 1023.5 1350 c 128
 1105.83333333 1312 1176.16666667 1260.33333333 1234.5 1195 c 128
 1292.83333333 1129.66666667 1337.83333333 1053.33333333 1369.5 966 c 128
 1401.16666667 878.666666667 1417 785.333333333 1417 686 c 256
EndSplineSet
EndChar

StartChar: P
Encoding: 80 80 30
Width: 1186
GlyphClass: 2
Flags: HW
LayerCount: 2
Back
Fore
SplineSet
893 958 m 0
 893 1008 886.333333333 1052.5 873 1091.5 c 128
 859.666666667 1130.5 838.5 1163.5 809.5 1190.5 c 128
 780.5 1217.5 743 1238.16666667 697 1252.5 c 128
 651 1266.83333333 595.333333333 1274 530 1274 c 0
 520.666666667 1274 510 1273.83333333 498 1273.5 c 128
 486 1273.16666667 474.666666667 1273 464 1273 c 0
 452 1272.33333333 439.333333333 1272 426 1272 c 1
 426 627 l 1
 427.333333333 627 432.333333333 626.5 441 625.5 c 128
 449.666666667 624.5 459.666666667 623.166666667 471 621.5 c 128
 482.333333333 619.833333333 494.333333333 618.5 507 617.5 c 128
 519.666666667 616.5 531 616 541 616 c 0
 595 615.333333333 643.666666667 621.666666667 687 635 c 128
 730.333333333 648.333333333 767.166666667 669 797.5 697 c 128
 827.833333333 725 851.333333333 760.666666667 868 804 c 128
 884.666666667 847.333333333 893 898.666666667 893 958 c 0
1106 961 m 0
 1106 885.666666667 1092 819.833333333 1064 763.5 c 128
 1036 707.166666667 997.833333333 660.5 949.5 623.5 c 128
 901.166666667 586.5 844.5 558.833333333 779.5 540.5 c 128
 714.5 522.166666667 645 513.333333333 571 514 c 0
 557.666666667 514 543.166666667 514.333333333 527.5 515 c 128
 511.833333333 515.666666667 496.833333333 516.5 482.5 517.5 c 128
 468.166666667 518.5 455.833333333 519.333333333 445.5 520 c 128
 435.166666667 520.666666667 428.666666667 521.333333333 426 522 c 1
 426 141 l 2
 426 131 429.5 121.333333333 436.5 112 c 128
 443.5 102.666666667 454.333333333 97.3333333333 469 96 c 2
 604 88 l 1
 604 0 l 1
 66 0 l 1
 66 88 l 1
 174 96 l 2
 188.666666667 97.3333333333 199.833333333 102.666666667 207.5 112 c 128
 215.166666667 121.333333333 219 131 219 141 c 2
 219 1233 l 2
 219 1243 215.166666667 1252.66666667 207.5 1262 c 128
 199.833333333 1271.33333333 188.666666667 1276.66666667 174 1278 c 2
 51 1286 l 1
 51 1374 l 1
 541 1374 l 2
 637.666666667 1374 721.5 1366.66666667 792.5 1352 c 128
 863.5 1337.33333333 922.166666667 1313.66666667 968.5 1281 c 128
 1014.83333333 1248.33333333 1049.33333333 1205.83333333 1072 1153.5 c 128
 1094.66666667 1101.16666667 1106 1037 1106 961 c 0
EndSplineSet
EndChar

StartChar: Q
Encoding: 81 81 31
Width: 1513
GlyphClass: 2
Flags: HW
LayerCount: 2
Back
Fore
SplineSet
1192 686 m 0
 1192 766.666666667 1183.33333333 843.5 1166 916.5 c 128
 1148.66666667 989.5 1122.16666667 1053.83333333 1086.5 1109.5 c 128
 1050.83333333 1165.16666667 1005.66666667 1209.5 951 1242.5 c 128
 896.333333333 1275.5 831.333333333 1292 756 1292 c 0
 681.333333333 1292 616.5 1276 561.5 1244 c 128
 506.5 1212 461 1168.5 425 1113.5 c 128
 389 1058.5 362.333333333 994.5 345 921.5 c 128
 327.666666667 848.5 319 771.333333333 319 690 c 0
 319 610 328 533.166666667 346 459.5 c 128
 364 385.833333333 391.166666667 320.833333333 427.5 264.5 c 128
 463.833333333 208.166666667 509.333333333 163.333333333 564 130 c 128
 618.666666667 96.6666666667 682.666666667 80 756 80 c 0
 830 80 894.333333333 96.5 949 129.5 c 128
 1003.66666667 162.5 1049 206.833333333 1085 262.5 c 128
 1121 318.166666667 1147.83333333 382.666666667 1165.5 456 c 128
 1183.16666667 529.333333333 1192 606 1192 686 c 0
1434 686 m 0
 1434 594 1421.16666667 508 1395.5 428 c 128
 1369.83333333 348 1332.66666667 277 1284 215 c 128
 1235.33333333 153 1176 101.5 1106 60.5 c 128
 1036 19.5 956.666666667 -8.33333333333 868 -23 c 1
 869.333333333 -99.6666666667 893.166666667 -160 939.5 -204 c 128
 985.833333333 -248 1056.33333333 -270 1151 -270 c 0
 1175.66666667 -270 1199 -269 1221 -267 c 128
 1243 -265 1262.66666667 -262.833333333 1280 -260.5 c 128
 1297.33333333 -258.166666667 1311.83333333 -255.833333333 1323.5 -253.5 c 128
 1335.16666667 -251.166666667 1343.33333333 -249.333333333 1348 -248 c 1
 1348 -336 l 1
 1340.66666667 -337.333333333 1327.5 -340 1308.5 -344 c 128
 1289.5 -348 1266.33333333 -352 1239 -356 c 128
 1211.66666667 -360 1181.33333333 -363.5 1148 -366.5 c 128
 1114.66666667 -369.5 1080 -371 1044 -371 c 0
 972 -371 911 -363 861 -347 c 128
 811 -331 770.166666667 -308 738.5 -278 c 128
 706.833333333 -248 684 -211.833333333 670 -169.5 c 128
 656 -127.166666667 649 -79.6666666667 649 -27 c 1
 567 -15 491.333333333 10 422 48 c 128
 352.666666667 86 292.666666667 135.5 242 196.5 c 128
 191.333333333 257.5 151.666666667 329.333333333 123 412 c 128
 94.3333333333 494.666666667 80 586 80 686 c 0
 80 752.666666667 87.1666666667 816.833333333 101.5 878.5 c 128
 115.833333333 940.166666667 136.5 997.666666667 163.5 1051 c 128
 190.5 1104.33333333 223.666666667 1152.83333333 263 1196.5 c 128
 302.333333333 1240.16666667 347 1277.66666667 397 1309 c 128
 447 1340.33333333 502 1364.5 562 1381.5 c 128
 622 1398.5 686 1407 754 1407 c 0
 858 1407 951.833333333 1388.33333333 1035.5 1351 c 128
 1119.16666667 1313.66666667 1190.5 1262.66666667 1249.5 1198 c 128
 1308.5 1133.33333333 1354 1057 1386 969 c 128
 1418 881 1434 786.666666667 1434 686 c 0
EndSplineSet
EndChar

StartChar: R
Encoding: 82 82 32
Width: 1329
GlyphClass: 2
Flags: HW
LayerCount: 2
Back
Fore
SplineSet
879 1001 m 0
 879 1045 872.333333333 1083.83333333 859 1117.5 c 128
 845.666666667 1151.16666667 824.5 1179.66666667 795.5 1203 c 128
 766.5 1226.33333333 729.166666667 1244 683.5 1256 c 128
 637.833333333 1268 582.666666667 1274 518 1274 c 2
 424 1274 l 1
 424 713 l 1
 425.333333333 713 430 712.833333333 438 712.5 c 128
 446 712.166666667 455.166666667 712 465.5 712 c 128
 475.833333333 712 486.5 711.833333333 497.5 711.5 c 128
 508.5 711.166666667 518 711 526 711 c 0
 582.666666667 711 633 715.833333333 677 725.5 c 128
 721 735.166666667 758 751.333333333 788 774 c 128
 818 796.666666667 840.666666667 826.5 856 863.5 c 128
 871.333333333 900.5 879 946.333333333 879 1001 c 0
1329 -6 m 1
 1324.33333333 -6.66666666667 1317.66666667 -8.33333333333 1309 -11 c 128
 1300.33333333 -13.6666666667 1290 -16.6666666667 1278 -20 c 128
 1266 -23.3333333333 1252.83333333 -26.3333333333 1238.5 -29 c 128
 1224.16666667 -31.6666666667 1209.33333333 -33 1194 -33 c 0
 1132.66666667 -33 1083 -23.8333333333 1045 -5.5 c 128
 1007 12.8333333333 976.166666667 37.1666666667 952.5 67.5 c 128
 928.833333333 97.8333333333 910.333333333 132.333333333 897 171 c 128
 883.666666667 209.666666667 871.333333333 249.166666667 860 289.5 c 128
 848.666666667 329.833333333 836.166666667 369.333333333 822.5 408 c 128
 808.833333333 446.666666667 789.666666667 481.166666667 765 511.5 c 128
 740.333333333 541.833333333 708.333333333 566.166666667 669 584.5 c 128
 629.666666667 602.833333333 578.666666667 612 516 612 c 0
 505.333333333 612 494.666666667 611.833333333 484 611.5 c 128
 473.333333333 611.166666667 463.833333333 610.666666667 455.5 610 c 128
 447.166666667 609.333333333 440 608.833333333 434 608.5 c 128
 428 608.166666667 424.666666667 608 424 608 c 1
 424 141 l 2
 424 131 427.5 121.333333333 434.5 112 c 128
 441.5 102.666666667 452.333333333 97.3333333333 467 96 c 2
 575 88 l 1
 575 0 l 1
 66 0 l 1
 66 88 l 1
 172 96 l 2
 186.666666667 97.3333333333 197.833333333 102.666666667 205.5 112 c 128
 213.166666667 121.333333333 217 131 217 141 c 2
 217 1233 l 2
 217 1243 213.166666667 1252.66666667 205.5 1262 c 128
 197.833333333 1271.33333333 186.666666667 1276.66666667 172 1278 c 2
 66 1286 l 1
 66 1374 l 1
 600 1374 l 2
 678 1374 748 1367.66666667 810 1355 c 128
 872 1342.33333333 924.666666667 1321.66666667 968 1293 c 128
 1011.33333333 1264.33333333 1044.5 1226.83333333 1067.5 1180.5 c 128
 1090.5 1134.16666667 1102 1077.33333333 1102 1010 c 0
 1102 956 1092.66666667 909.666666667 1074 871 c 128
 1055.33333333 832.333333333 1030.5 799.666666667 999.5 773 c 128
 968.5 746.333333333 932.666666667 724.666666667 892 708 c 128
 851.333333333 691.333333333 809.333333333 678 766 668 c 1
 821.333333333 654.666666667 865.666666667 636.166666667 899 612.5 c 128
 932.333333333 588.833333333 958.666666667 562 978 532 c 128
 997.333333333 502 1011.66666667 470.166666667 1021 436.5 c 128
 1030.33333333 402.833333333 1038.66666667 369.5 1046 336.5 c 128
 1053.33333333 303.5 1061.66666667 272 1071 242 c 128
 1080.33333333 212 1094.83333333 185.333333333 1114.5 162 c 128
 1134.16666667 138.666666667 1160.83333333 120.166666667 1194.5 106.5 c 128
 1228.16666667 92.8333333333 1273 86 1329 86 c 1
 1329 -6 l 1
EndSplineSet
EndChar

StartChar: S
Encoding: 83 83 33
Width: 1067
GlyphClass: 2
Flags: HW
LayerCount: 2
Back
Fore
SplineSet
987 385 m 0
 987 333 976.833333333 282 956.5 232 c 128
 936.166666667 182 904 137.333333333 860 98 c 128
 816 58.6666666667 759.666666667 27 691 3 c 128
 622.333333333 -21 540 -33 444 -33 c 0
 388 -33 337.833333333 -29 293.5 -21 c 128
 249.166666667 -13 211 -4.33333333333 179 5 c 0
 142.333333333 16.3333333333 109.333333333 29 80 43 c 1
 80 406 l 1
 209 406 l 1
 236 174 l 2
 237.333333333 166 241.5 157.333333333 248.5 148 c 128
 255.5 138.666666667 262.666666667 132.333333333 270 129 c 2
 287 120 l 2
 297 115.333333333 310.666666667 110.166666667 328 104.5 c 128
 345.333333333 98.8333333333 366.5 93.6666666667 391.5 89 c 128
 416.5 84.3333333333 445 82 477 82 c 0
 520.333333333 82 560.5 87.5 597.5 98.5 c 128
 634.5 109.5 666.333333333 125.333333333 693 146 c 128
 719.666666667 166.666666667 740.5 192 755.5 222 c 128
 770.5 252 778 286 778 324 c 0
 778 365.333333333 766.166666667 401.5 742.5 432.5 c 128
 718.833333333 463.5 689.166666667 491.166666667 653.5 515.5 c 128
 617.833333333 539.833333333 579 561.666666667 537 581 c 128
 495 600.333333333 455.333333333 619 418 637 c 0
 376 657 335.833333333 677.666666667 297.5 699 c 128
 259.166666667 720.333333333 225.5 745 196.5 773 c 128
 167.5 801 144.5 833.833333333 127.5 871.5 c 128
 110.5 909.166666667 102 954 102 1006 c 0
 102 1066.66666667 114 1121.66666667 138 1171 c 128
 162 1220.33333333 195.166666667 1262.5 237.5 1297.5 c 128
 279.833333333 1332.5 329.833333333 1359.5 387.5 1378.5 c 128
 445.166666667 1397.5 507.666666667 1407 575 1407 c 0
 613.666666667 1407 650.166666667 1404.66666667 684.5 1400 c 128
 718.833333333 1395.33333333 750.833333333 1389.5 780.5 1382.5 c 128
 810.166666667 1375.5 837.833333333 1368 863.5 1360 c 128
 889.166666667 1352 913.333333333 1344.33333333 936 1337 c 1
 936 1018 l 1
 819 1018 l 1
 788 1214 l 2
 786.666666667 1220.66666667 782.833333333 1227.33333333 776.5 1234 c 128
 770.166666667 1240.66666667 764 1245.66666667 758 1249 c 0
 756.666666667 1249.66666667 752.333333333 1252.66666667 745 1258 c 128
 737.666666667 1263.33333333 726.833333333 1268.66666667 712.5 1274 c 128
 698.166666667 1279.33333333 679.833333333 1284.33333333 657.5 1289 c 128
 635.166666667 1293.66666667 608.666666667 1296 578 1296 c 0
 536.666666667 1296 499.666666667 1290 467 1278 c 128
 434.333333333 1266 406.666666667 1249.16666667 384 1227.5 c 128
 361.333333333 1205.83333333 343.833333333 1180.33333333 331.5 1151 c 128
 319.166666667 1121.66666667 313 1089.66666667 313 1055 c 0
 313 1023.66666667 319.166666667 995.166666667 331.5 969.5 c 128
 343.833333333 943.833333333 362.166666667 920.166666667 386.5 898.5 c 128
 410.833333333 876.833333333 440.666666667 856.666666667 476 838 c 128
 511.333333333 819.333333333 552 801.333333333 598 784 c 0
 660 760.666666667 715.166666667 736.333333333 763.5 711 c 128
 811.833333333 685.666666667 852.5 657.333333333 885.5 626 c 128
 918.5 594.666666667 943.666666667 559.5 961 520.5 c 128
 978.333333333 481.5 987 436.333333333 987 385 c 0
EndSplineSet
EndChar

StartChar: T
Encoding: 84 84 34
Width: 1227
GlyphClass: 2
Flags: HW
LayerCount: 2
Back
Fore
SplineSet
1073 1047 m 1
 1044 1239 l 2
 1042 1249.66666667 1038.16666667 1258.16666667 1032.5 1264.5 c 128
 1026.83333333 1270.83333333 1019.33333333 1274 1010 1274 c 2
 717 1274 l 1
 717 141 l 2
 717 131 720.5 121.333333333 727.5 112 c 128
 734.5 102.666666667 745.333333333 97.3333333333 760 96 c 2
 891 88 l 1
 891 0 l 1
 336 0 l 1
 336 88 l 1
 467 96 l 2
 481.666666667 97.3333333333 492.5 102.666666667 499.5 112 c 128
 506.5 121.333333333 510 131 510 141 c 2
 510 1274 l 1
 215 1274 l 2
 205.666666667 1274 197.833333333 1270.83333333 191.5 1264.5 c 128
 185.166666667 1258.16666667 181.333333333 1249.66666667 180 1239 c 2
 152 1047 l 1
 33 1047 l 1
 33 1374 l 1
 1194 1374 l 1
 1194 1047 l 1
 1073 1047 l 1
EndSplineSet
EndChar

StartChar: U
Encoding: 85 85 35
Width: 1458
GlyphClass: 2
Flags: HW
LayerCount: 2
Back
Fore
SplineSet
1284 1278 m 2
 1269.33333333 1276.66666667 1258.5 1271.33333333 1251.5 1262 c 128
 1244.5 1252.66666667 1241 1243 1241 1233 c 2
 1241 455 l 2
 1241 371 1229.66666667 298.333333333 1207 237 c 128
 1184.33333333 175.666666667 1150.83333333 125 1106.5 85 c 128
 1062.16666667 45 1007.16666667 15.3333333333 941.5 -4 c 128
 875.833333333 -23.3333333333 800.333333333 -33 715 -33 c 0
 545.666666667 -33 420 8 338 90 c 128
 256 172 215 293.666666667 215 455 c 2
 215 1233 l 2
 215 1243 211.5 1252.66666667 204.5 1262 c 128
 197.5 1271.33333333 186.666666667 1276.66666667 172 1278 c 2
 63 1286 l 1
 63 1374 l 1
 584 1374 l 1
 584 1286 l 1
 467 1278 l 2
 452.333333333 1276.66666667 441.5 1271.33333333 434.5 1262 c 128
 427.5 1252.66666667 424 1243 424 1233 c 2
 424 508 l 2
 424 448 428.666666667 393.166666667 438 343.5 c 128
 447.333333333 293.833333333 464.666666667 251.333333333 490 216 c 128
 515.333333333 180.666666667 550.5 153.166666667 595.5 133.5 c 128
 640.5 113.833333333 698.666666667 104 770 104 c 0
 840.666666667 104 898.666666667 114.333333333 944 135 c 128
 989.333333333 155.666666667 1025 184.166666667 1051 220.5 c 128
 1077 256.833333333 1095 299.666666667 1105 349 c 128
 1115 398.333333333 1120 451.333333333 1120 508 c 2
 1120 1233 l 2
 1120 1243 1116.16666667 1252.66666667 1108.5 1262 c 128
 1100.83333333 1271.33333333 1089.66666667 1276.66666667 1075 1278 c 2
 958 1286 l 1
 958 1374 l 1
 1403 1374 l 1
 1403 1286 l 1
 1284 1278 l 2
EndSplineSet
EndChar

StartChar: V
Encoding: 86 86 36
Width: 1364
GlyphClass: 2
Flags: HW
LayerCount: 2
Back
Fore
SplineSet
1225 1264 m 1
 766 -33 l 1
 610 -33 l 1
 141 1266 l 1
 20 1286 l 1
 20 1374 l 1
 510 1374 l 1
 510 1286 l 1
 389 1276 l 1
 381.666666667 1274.66666667 376.333333333 1269.66666667 373 1261 c 128
 369.666666667 1252.33333333 369 1245 371 1239 c 2
 731 227 l 1
 1077 1235 l 2
 1079.66666667 1243 1077.83333333 1251.5 1071.5 1260.5 c 128
 1065.16666667 1269.5 1057.66666667 1274.66666667 1049 1276 c 2
 936 1286 l 1
 936 1374 l 1
 1343 1374 l 1
 1343 1286 l 1
 1225 1264 l 1
EndSplineSet
EndChar

StartChar: W
Encoding: 87 87 37
Width: 1907
GlyphClass: 2
Flags: HW
LayerCount: 2
Back
Fore
SplineSet
1761 1262 m 1
 1448 -33 l 1
 1298 -33 l 1
 956 1102 l 1
 621 -33 l 1
 473 -33 l 1
 139 1262 l 1
 20 1286 l 1
 20 1374 l 1
 489 1374 l 1
 489 1286 l 1
 367 1274 l 2
 357.666666667 1272.66666667 351.333333333 1267.83333333 348 1259.5 c 128
 344.666666667 1251.16666667 344 1242.33333333 346 1233 c 2
 590 309 l 1
 911 1374 l 1
 1069 1374 l 1
 1399 276 l 1
 1626 1233 l 2
 1628 1242.33333333 1626.33333333 1251.16666667 1621 1259.5 c 128
 1615.66666667 1267.83333333 1607.66666667 1272.66666667 1597 1274 c 2
 1468 1286 l 1
 1468 1374 l 1
 1886 1374 l 1
 1886 1286 l 1
 1761 1262 l 1
EndSplineSet
EndChar

StartChar: X
Encoding: 88 88 38
Width: 1298
GlyphClass: 2
Flags: HW
LayerCount: 2
Back
Fore
SplineSet
752 0 m 1
 752 88 l 1
 870 100 l 2
 880.666666667 101.333333333 889 106.333333333 895 115 c 128
 901 123.666666667 901 133 895 143 c 2
 623 571 l 1
 307 137 l 2
 301.666666667 129.666666667 300.333333333 121.666666667 303 113 c 128
 305.666666667 104.333333333 315.333333333 99.3333333333 332 98 c 2
 455 88 l 1
 455 0 l 1
 20 0 l 1
 20 88 l 1
 143 113 l 1
 555 678 l 1
 182 1262 l 1
 47 1286 l 1
 47 1374 l 1
 561 1374 l 1
 561 1286 l 1
 457 1276 l 2
 440.333333333 1274.66666667 430.666666667 1269.5 428 1260.5 c 128
 425.333333333 1251.5 426.666666667 1243 432 1235 c 2
 682 850 l 1
 958 1229 l 2
 965.333333333 1239 966 1248.33333333 960 1257 c 128
 954 1265.66666667 946 1270.66666667 936 1272 c 2
 831 1286 l 1
 831 1374 l 1
 1260 1374 l 1
 1260 1286 l 1
 1128 1266 l 1
 748 743 l 1
 1151 113 l 1
 1278 88 l 1
 1278 0 l 1
 752 0 l 1
EndSplineSet
EndChar

StartChar: Y
Encoding: 89 89 39
Width: 1282
GlyphClass: 2
Flags: HW
LayerCount: 2
Back
Fore
SplineSet
1151 1266 m 1
 739 584 l 1
 739 141 l 2
 739 131 742.666666667 121.333333333 750 112 c 128
 757.333333333 102.666666667 768 97.3333333333 782 96 c 2
 913 88 l 1
 913 0 l 1
 360 0 l 1
 360 88 l 1
 487 96 l 2
 501.666666667 97.3333333333 512.833333333 102.666666667 520.5 112 c 128
 528.166666667 121.333333333 532 131 532 141 c 2
 532 553 l 1
 139 1262 l 1
 20 1286 l 1
 20 1374 l 1
 506 1374 l 1
 506 1286 l 1
 403 1276 l 2
 387 1274 378 1268.66666667 376 1260 c 128
 374 1251.33333333 375 1243 379 1235 c 2
 668 700 l 1
 985 1229 l 2
 991 1239 991 1248.33333333 985 1257 c 128
 979 1265.66666667 971 1270.66666667 961 1272 c 2
 846 1286 l 1
 846 1374 l 1
 1262 1374 l 1
 1262 1286 l 1
 1151 1266 l 1
EndSplineSet
EndChar

StartChar: Z
Encoding: 90 90 40
Width: 1178
GlyphClass: 2
Flags: HW
LayerCount: 2
Back
Fore
SplineSet
80 0 m 1
 80 90 l 1
 842 1272 l 1
 309 1272 l 2
 299.666666667 1272 292.166666667 1268.66666667 286.5 1262 c 128
 280.833333333 1255.33333333 276.666666667 1247 274 1237 c 1
 244 1047 l 1
 123 1047 l 1
 123 1374 l 1
 1087 1374 l 1
 1087 1280 l 1
 324 104 l 1
 907 104 l 2
 916.333333333 104 924 107.666666667 930 115 c 128
 936 122.333333333 940 131 942 141 c 2
 977 379 l 1
 1098 379 l 1
 1098 0 l 1
 80 0 l 1
EndSplineSet
EndChar

StartChar: bracketleft
Encoding: 91 91 41
Width: 866
GlyphClass: 2
Flags: HW
LayerCount: 2
Back
Fore
SplineSet
279 -270 m 1
 279 1450 l 1
 776 1450 l 1
 776 1358 l 1
 457 1358 l 1
 457 -176 l 1
 776 -176 l 1
 776 -270 l 1
 279 -270 l 1
EndSplineSet
EndChar

StartChar: backslash
Encoding: 92 92 42
Width: 1001
GlyphClass: 2
Flags: HW
LayerCount: 2
Back
Fore
SplineSet
870 -190 m 1
 0 1374 l 1
 131 1374 l 1
 1001 -190 l 1
 870 -190 l 1
EndSplineSet
EndChar

StartChar: bracketright
Encoding: 93 93 43
Width: 866
GlyphClass: 2
Flags: HW
LayerCount: 2
Back
Fore
SplineSet
90 -270 m 1
 90 -176 l 1
 412 -176 l 1
 412 1358 l 1
 90 1358 l 1
 90 1450 l 1
 590 1450 l 1
 590 -270 l 1
 90 -270 l 1
EndSplineSet
EndChar

StartChar: asciicircum
Encoding: 94 94 44
Width: 670
GlyphClass: 2
Flags: HW
LayerCount: 2
Back
Fore
SplineSet
547 1128 m 1
 336 1331 l 1
 123 1128 l 1
 0 1128 l 1
 258 1475 l 1
 412 1475 l 1
 670 1128 l 1
 547 1128 l 1
EndSplineSet
EndChar

StartChar: underscore
Encoding: 95 95 45
Width: 686
GlyphClass: 2
Flags: HW
LayerCount: 2
Back
Fore
SplineSet
0 -305 m 1
 0 -175 l 1
 686 -175 l 1
 686 -305 l 1
 0 -305 l 1
EndSplineSet
EndChar

StartChar: grave
Encoding: 96 96 46
Width: 717
GlyphClass: 2
Flags: HW
LayerCount: 2
Back
Fore
SplineSet
358 1128 m 1
 47 1327 l 2
 32.3333333333 1336.33333333 20.8333333333 1347.66666667 12.5 1361 c 128
 4.16666666667 1374.33333333 0 1390.33333333 0 1409 c 0
 0 1419.66666667 1.66666666667 1430.5 5 1441.5 c 128
 8.33333333333 1452.5 13.6666666667 1462.33333333 21 1471 c 128
 28.3333333333 1479.66666667 38 1486.83333333 50 1492.5 c 128
 62 1498.16666667 76.6666666667 1501 94 1501 c 0
 108.666666667 1501 121 1499.83333333 131 1497.5 c 128
 141 1495.16666667 150 1491.66666667 158 1487 c 128
 166 1482.33333333 173.333333333 1476.5 180 1469.5 c 128
 186.666666667 1462.5 193.666666667 1454.66666667 201 1446 c 2
 475 1128 l 1
 358 1128 l 1
EndSplineSet
EndChar

StartChar: a
Encoding: 97 97 47
Width: 1042
GlyphClass: 2
Flags: HW
LayerCount: 2
Back
Fore
SplineSet
678 547 m 1
 586 523.666666667 513 500.666666667 459 478 c 128
 405 455.333333333 364.166666667 432.5 336.5 409.5 c 128
 308.833333333 386.5 291.166666667 363.166666667 283.5 339.5 c 128
 275.833333333 315.833333333 272 291.333333333 272 266 c 0
 272 244.666666667 275.5 223.833333333 282.5 203.5 c 128
 289.5 183.166666667 299.5 165 312.5 149 c 128
 325.5 133 341.5 120.166666667 360.5 110.5 c 128
 379.5 100.833333333 401.333333333 96 426 96 c 0
 453.333333333 96 481.833333333 101 511.5 111 c 128
 541.166666667 121 568.333333333 132 593 144 c 0
 621.666666667 158 650 174.333333333 678 193 c 1
 678 547 l 1
705 0 m 1
 678 121 l 1
 642 93.6666666667 605 69.3333333333 567 48 c 0
 550.333333333 38.6666666667 532.666666667 29.6666666667 514 21 c 128
 495.333333333 12.3333333333 476.166666667 4.5 456.5 -2.5 c 128
 436.833333333 -9.5 416.833333333 -15 396.5 -19 c 128
 376.166666667 -23 356 -25 336 -25 c 0
 298.666666667 -25 263.833333333 -18.6666666667 231.5 -6 c 128
 199.166666667 6.66666666667 171 25 147 49 c 128
 123 73 104.166666667 102 90.5 136 c 128
 76.8333333333 170 70 208.666666667 70 252 c 0
 70 277.333333333 72.5 301.333333333 77.5 324 c 128
 82.5 346.666666667 92.6666666667 368.666666667 108 390 c 128
 123.333333333 411.333333333 144.833333333 431.833333333 172.5 451.5 c 128
 200.166666667 471.166666667 236.5 490.666666667 281.5 510 c 128
 326.5 529.333333333 381.5 548.5 446.5 567.5 c 128
 511.5 586.5 588.666666667 605.666666667 678 625 c 1
 678 713 l 2
 678 781.666666667 662.666666667 832.5 632 865.5 c 128
 601.333333333 898.5 553 915 487 915 c 0
 451 915 420.333333333 911.666666667 395 905 c 128
 369.666666667 898.333333333 352 893 342 889 c 1
 342 711 l 1
 193 711 l 2
 183.666666667 711 174.5 711.666666667 165.5 713 c 128
 156.5 714.333333333 148.333333333 717.166666667 141 721.5 c 128
 133.666666667 725.833333333 127.833333333 731.833333333 123.5 739.5 c 128
 119.166666667 747.166666667 117 757.333333333 117 770 c 0
 117 812 129.666666667 848.166666667 155 878.5 c 128
 180.333333333 908.833333333 213.333333333 934 254 954 c 128
 294.666666667 974 340.333333333 988.666666667 391 998 c 128
 441.666666667 1007.33333333 492.333333333 1012 543 1012 c 0
 606.333333333 1012 658.833333333 1004.33333333 700.5 989 c 128
 742.166666667 973.666666667 775.166666667 952.333333333 799.5 925 c 128
 823.833333333 897.666666667 841 865.333333333 851 828 c 128
 861 790.666666667 866 749.666666667 866 705 c 2
 866 131 l 2
 866 118.333333333 870.166666667 108 878.5 100 c 128
 886.833333333 92 897 87.3333333333 909 86 c 2
 1008 80 l 1
 1008 0 l 1
 705 0 l 1
EndSplineSet
EndChar

StartChar: b
Encoding: 98 98 48
Width: 1137
GlyphClass: 2
Flags: HW
LayerCount: 2
Back
Fore
SplineSet
1067 541 m 0
 1067 463.666666667 1055.66666667 392.166666667 1033 326.5 c 128
 1010.33333333 260.833333333 975.166666667 203.666666667 927.5 155 c 128
 879.833333333 106.333333333 818.833333333 68.3333333333 744.5 41 c 128
 670.166666667 13.6666666667 581.666666667 0 479 0 c 2
 184 0 l 1
 184 1362 l 1
 29 1362 l 1
 29 1430 l 1
 293 1509 l 1
 375 1509 l 1
 375 936 l 1
 387 941.333333333 402.666666667 948.333333333 422 957 c 128
 441.333333333 965.666666667 463.5 974 488.5 982 c 128
 513.5 990 540.333333333 997 569 1003 c 128
 597.666666667 1009 627 1012 657 1012 c 0
 724.333333333 1012 783.5 999.333333333 834.5 974 c 128
 885.5 948.666666667 928.333333333 914.333333333 963 871 c 128
 997.666666667 827.666666667 1023.66666667 777.5 1041 720.5 c 128
 1058.33333333 663.5 1067 603.666666667 1067 541 c 0
858 500 m 0
 858 628.666666667 830.5 726 775.5 792 c 128
 720.5 858 643.666666667 891 545 891 c 0
 533.666666667 891 520.333333333 890 505 888 c 128
 489.666666667 886 474.166666667 883.333333333 458.5 880 c 128
 442.833333333 876.666666667 427.5 873 412.5 869 c 128
 397.5 865 385 861.333333333 375 858 c 1
 375 98 l 1
 386.333333333 97.3333333333 398 97 410 97 c 1
 420 96.3333333333 430.666666667 96 442 96 c 2
 475 96 l 2
 535.666666667 96 589.666666667 103 637 117 c 128
 684.333333333 131 724.333333333 154 757 186 c 128
 789.666666667 218 814.666666667 259.666666667 832 311 c 128
 849.333333333 362.333333333 858 425.333333333 858 500 c 0
EndSplineSet
EndChar

StartChar: c
Encoding: 99 99 49
Width: 954
GlyphClass: 2
Flags: HW
LayerCount: 2
Back
Fore
SplineSet
885 76 m 1
 861.666666667 64 837.166666667 51.8333333333 811.5 39.5 c 128
 785.833333333 27.1666666667 758.5 16.3333333333 729.5 7 c 128
 700.5 -2.33333333333 670.166666667 -10 638.5 -16 c 128
 606.833333333 -22 573.666666667 -25 539 -25 c 0
 467 -25 402.166666667 -12.1666666667 344.5 13.5 c 128
 286.833333333 39.1666666667 237.666666667 74.8333333333 197 120.5 c 128
 156.333333333 166.166666667 125 220.333333333 103 283 c 128
 81 345.666666667 70 413.666666667 70 487 c 0
 70 573 83.3333333333 648.666666667 110 714 c 128
 136.666666667 779.333333333 172.666666667 834.166666667 218 878.5 c 128
 263.333333333 922.833333333 315.833333333 956.166666667 375.5 978.5 c 128
 435.166666667 1000.83333333 497.666666667 1012 563 1012 c 0
 607.666666667 1012 649.5 1007.5 688.5 998.5 c 128
 727.5 989.5 761.166666667 976.333333333 789.5 959 c 128
 817.833333333 941.666666667 840.166666667 920.333333333 856.5 895 c 128
 872.833333333 869.666666667 881 840.333333333 881 807 c 0
 881 787 877.5 769.5 870.5 754.5 c 128
 863.5 739.5 854.333333333 726.833333333 843 716.5 c 128
 831.666666667 706.166666667 818.833333333 698.5 804.5 693.5 c 128
 790.166666667 688.5 775.333333333 686 760 686 c 0
 737.333333333 686 717.666666667 689.833333333 701 697.5 c 128
 684.333333333 705.166666667 669.666666667 713 657 721 c 1
 657 899 l 1
 643 907 628.5 913.5 613.5 918.5 c 128
 598.5 923.5 584.333333333 926 571 926 c 0
 525.666666667 926 484.833333333 915.666666667 448.5 895 c 128
 412.166666667 874.333333333 381.5 845.666666667 356.5 809 c 128
 331.5 772.333333333 312.333333333 728.833333333 299 678.5 c 128
 285.666666667 628.166666667 279 573.333333333 279 514 c 0
 279 457.333333333 286.166666667 404 300.5 354 c 128
 314.833333333 304 336.166666667 260.5 364.5 223.5 c 128
 392.833333333 186.5 428.166666667 157.333333333 470.5 136 c 128
 512.833333333 114.666666667 562 104 618 104 c 0
 666 104 711.5 111.5 754.5 126.5 c 128
 797.5 141.5 841 163.666666667 885 193 c 1
 885 76 l 1
EndSplineSet
EndChar

StartChar: d
Encoding: 100 100 50
Width: 1155
GlyphClass: 2
Flags: HW
LayerCount: 2
Back
Fore
SplineSet
780 883 m 1
 771.333333333 885.666666667 760.166666667 888.833333333 746.5 892.5 c 128
 732.833333333 896.166666667 718.166666667 899.5 702.5 902.5 c 128
 686.833333333 905.5 670.5 908 653.5 910 c 128
 636.5 912 620.666666667 913 606 913 c 0
 555.333333333 913 509.333333333 903.166666667 468 883.5 c 128
 426.666666667 863.833333333 391.5 836.166666667 362.5 800.5 c 128
 333.5 764.833333333 311.166666667 721.666666667 295.5 671 c 128
 279.833333333 620.333333333 272 564 272 502 c 0
 272 446 278.666666667 394.5 292 347.5 c 128
 305.333333333 300.5 324.666666667 259.666666667 350 225 c 128
 375.333333333 190.333333333 406.333333333 163.333333333 443 144 c 128
 479.666666667 124.666666667 521.666666667 115 569 115 c 0
 589.666666667 115 609.666666667 117.166666667 629 121.5 c 128
 648.333333333 125.833333333 667 131.5 685 138.5 c 128
 703 145.5 720 153.166666667 736 161.5 c 128
 752 169.833333333 766.666666667 178 780 186 c 1
 780 883 l 1
780 0 m 1
 780 109 l 1
 756.666666667 91 732.5 73.8333333333 707.5 57.5 c 128
 682.5 41.1666666667 656.833333333 27 630.5 15 c 128
 604.166666667 3 577.166666667 -6.66666666667 549.5 -14 c 128
 521.833333333 -21.3333333333 493 -25 463 -25 c 0
 394.333333333 -25 335.166666667 -10.1666666667 285.5 19.5 c 128
 235.833333333 49.1666666667 195 87.5 163 134.5 c 128
 131 181.5 107.5 234.166666667 92.5 292.5 c 128
 77.5 350.833333333 70 409 70 467 c 0
 70 536.333333333 80.6666666667 603.833333333 102 669.5 c 128
 123.333333333 735.166666667 155.666666667 793.333333333 199 844 c 128
 242.333333333 894.666666667 296.666666667 935.333333333 362 966 c 128
 427.333333333 996.666666667 504 1012 592 1012 c 0
 608 1012 625.333333333 1011 644 1009 c 128
 662.666666667 1007 680.833333333 1004.83333333 698.5 1002.5 c 128
 716.166666667 1000.16666667 732.166666667 997.5 746.5 994.5 c 128
 760.833333333 991.5 772 989 780 987 c 1
 780 1362 l 1
 625 1362 l 1
 625 1430 l 1
 889 1509 l 1
 971 1509 l 1
 971 131 l 2
 971 118.333333333 975 108 983 100 c 128
 991 92 1001.33333333 87.3333333333 1014 86 c 2
 1102 80 l 1
 1102 0 l 1
 780 0 l 1
EndSplineSet
EndChar

StartChar: e
Encoding: 101 101 51
Width: 1004
GlyphClass: 2
Flags: HW
LayerCount: 2
Back
Fore
SplineSet
934 102 m 1
 905.333333333 84 875.5 67.3333333333 844.5 52 c 128
 813.5 36.6666666667 781.5 23.3333333333 748.5 12 c 128
 715.5 0.666666666667 682 -8.33333333333 648 -15 c 128
 614 -21.6666666667 579.666666667 -25 545 -25 c 0
 483 -25 423.333333333 -14.5 366 6.5 c 128
 308.666666667 27.5 258.166666667 59 214.5 101 c 128
 170.833333333 143 135.833333333 195.833333333 109.5 259.5 c 128
 83.1666666667 323.166666667 70 397.666666667 70 483 c 0
 70 563 82 635.5 106 700.5 c 128
 130 765.5 163.333333333 821.166666667 206 867.5 c 128
 248.666666667 913.833333333 299.333333333 949.5 358 974.5 c 128
 416.666666667 999.5 481 1012 551 1012 c 0
 614.333333333 1012 670 1001.5 718 980.5 c 128
 766 959.5 806 930.5 838 893.5 c 128
 870 856.5 894 812.166666667 910 760.5 c 128
 926 708.833333333 934 652.666666667 934 592 c 2
 934 565 l 2
 934 554.333333333 933.333333333 544.333333333 932 535 c 1
 268 535 l 1
 268 483 273.5 431 284.5 379 c 128
 295.5 327 314 280.333333333 340 239 c 128
 366 197.666666667 401 164.166666667 445 138.5 c 128
 489 112.833333333 544 100 610 100 c 0
 639.333333333 100 668.333333333 103.833333333 697 111.5 c 128
 725.666666667 119.166666667 753.833333333 129 781.5 141 c 128
 809.166666667 153 835.666666667 166.5 861 181.5 c 128
 886.333333333 196.5 910.666666667 211.666666667 934 227 c 1
 934 102 l 1
729 672 m 2
 729 706 725 737.5 717 766.5 c 128
 709 795.5 696.833333333 820.666666667 680.5 842 c 128
 664.166666667 863.333333333 643.5 880.166666667 618.5 892.5 c 128
 593.5 904.833333333 564 911 530 911 c 256
 496 911 464.333333333 904.5 435 891.5 c 128
 405.666666667 878.5 379.833333333 859.666666667 357.5 835 c 128
 335.166666667 810.333333333 317.166666667 780.5 303.5 745.5 c 128
 289.833333333 710.5 281.666666667 671 279 627 c 1
 729 627 l 1
 729 672 l 2
EndSplineSet
EndChar

StartChar: f
Encoding: 102 102 52
Width: 668
GlyphClass: 2
Flags: HW
LayerCount: 2
Back
Fore
SplineSet
797 1386 m 0
 797 1365.33333333 792.833333333 1348.16666667 784.5 1334.5 c 128
 776.166666667 1320.83333333 766.5 1309.83333333 755.5 1301.5 c 128
 744.5 1293.16666667 733.833333333 1287 723.5 1283 c 128
 713.166666667 1279 706 1276.66666667 702 1276 c 1
 700.666666667 1277.33333333 695.166666667 1281.5 685.5 1288.5 c 128
 675.833333333 1295.5 664.166666667 1303.83333333 650.5 1313.5 c 128
 636.833333333 1323.16666667 622.166666667 1333.33333333 606.5 1344 c 128
 590.833333333 1354.66666667 576.333333333 1364.83333333 563 1374.5 c 128
 549.666666667 1384.16666667 538.333333333 1392.16666667 529 1398.5 c 128
 519.666666667 1404.83333333 514.666666667 1408.33333333 514 1409 c 1
 499.333333333 1401 484.833333333 1389.66666667 470.5 1375 c 128
 456.166666667 1360.33333333 443.166666667 1340.66666667 431.5 1316 c 128
 419.833333333 1291.33333333 410.5 1261.5 403.5 1226.5 c 128
 396.5 1191.5 393 1150 393 1102 c 2
 393 971 l 1
 647 971 l 1
 647 866 l 1
 393 866 l 1
 393 131 l 2
 393 118.333333333 397.166666667 108 405.5 100 c 128
 413.833333333 92 424 87.3333333333 436 86 c 1
 557 80 l 1
 557 0 l 1
 59 0 l 1
 59 80 l 1
 160 86 l 2
 172 87.3333333333 182.166666667 92 190.5 100 c 128
 198.833333333 108 203 118.333333333 203 131 c 2
 203 866 l 1
 72 866 l 1
 72 938 l 1
 203 975 l 1
 203 1009 204.166666667 1039.5 206.5 1066.5 c 128
 208.833333333 1093.5 212.833333333 1118.83333333 218.5 1142.5 c 128
 224.166666667 1166.16666667 231.333333333 1189.16666667 240 1211.5 c 128
 248.666666667 1233.83333333 259.333333333 1257.33333333 272 1282 c 0
 292 1320.66666667 315.166666667 1354.16666667 341.5 1382.5 c 128
 367.833333333 1410.83333333 396.166666667 1434.33333333 426.5 1453 c 128
 456.833333333 1471.66666667 488.5 1485.66666667 521.5 1495 c 128
 554.5 1504.33333333 587.666666667 1509 621 1509 c 0
 649.666666667 1509 675 1505.66666667 697 1499 c 128
 719 1492.33333333 737.5 1483.33333333 752.5 1472 c 128
 767.5 1460.66666667 778.666666667 1447.66666667 786 1433 c 128
 793.333333333 1418.33333333 797 1402.66666667 797 1386 c 0
EndSplineSet
EndChar

StartChar: g
Encoding: 103 103 53
Width: 1075
GlyphClass: 2
Flags: HW
LayerCount: 2
Back
Fore
SplineSet
811 -137 m 0
 811 -109 804 -85.1666666667 790 -65.5 c 128
 776 -45.8333333333 757.5 -29.6666666667 734.5 -17 c 128
 711.5 -4.33333333333 685.5 5.83333333333 656.5 13.5 c 128
 627.5 21.1666666667 598.166666667 27.5 568.5 32.5 c 128
 538.833333333 37.5 510.166666667 41.5 482.5 44.5 c 128
 454.833333333 47.5 430.666666667 51 410 55 c 1
 380 44.3333333333 355 31.5 335 16.5 c 128
 315 1.5 299 -14.6666666667 287 -32 c 128
 275 -49.3333333333 266.5 -67 261.5 -85 c 128
 256.5 -103 254 -120.333333333 254 -137 c 0
 254 -161.666666667 259.333333333 -188 270 -216 c 128
 280.666666667 -244 297 -269.666666667 319 -293 c 128
 341 -316.333333333 368.833333333 -335.833333333 402.5 -351.5 c 128
 436.166666667 -367.166666667 476 -375 522 -375 c 0
 570.666666667 -375 613.166666667 -367.166666667 649.5 -351.5 c 128
 685.833333333 -335.833333333 716 -316.333333333 740 -293 c 128
 764 -269.666666667 781.833333333 -244 793.5 -216 c 128
 805.166666667 -188 811 -161.666666667 811 -137 c 0
696 678 m 0
 696 710 691.833333333 741.166666667 683.5 771.5 c 128
 675.166666667 801.833333333 663 828.5 647 851.5 c 128
 631 874.5 611.166666667 893 587.5 907 c 128
 563.833333333 921 536.666666667 928 506 928 c 0
 477.333333333 928 451 922.333333333 427 911 c 128
 403 899.666666667 382.5 883.166666667 365.5 861.5 c 128
 348.5 839.833333333 335.166666667 813.333333333 325.5 782 c 128
 315.833333333 750.666666667 311 715.333333333 311 676 c 0
 311 642 315.166666667 609.833333333 323.5 579.5 c 128
 331.833333333 549.166666667 344.166666667 522.666666667 360.5 500 c 128
 376.833333333 477.333333333 397.166666667 459.333333333 421.5 446 c 128
 445.833333333 432.666666667 474 426 506 426 c 0
 536.666666667 426 563.833333333 432.666666667 587.5 446 c 128
 611.166666667 459.333333333 631 477.333333333 647 500 c 128
 663 522.666666667 675.166666667 549.333333333 683.5 580 c 128
 691.833333333 610.666666667 696 643.333333333 696 678 c 0
836 850 m 1
 851.333333333 825.333333333 864.333333333 798.5 875 769.5 c 128
 885.666666667 740.5 891 706 891 666 c 0
 891 612 878.666666667 564 854 522 c 128
 829.333333333 480 796.5 445 755.5 417 c 128
 714.5 389 667.5 368.5 614.5 355.5 c 128
 561.5 342.5 506.333333333 338 449 342 c 1
 441 328.666666667 435.5 314.333333333 432.5 299 c 128
 429.5 283.666666667 427.833333333 269.333333333 427.5 256 c 128
 427.166666667 242.666666667 427.666666667 231.166666667 429 221.5 c 128
 430.333333333 211.833333333 431.333333333 206.333333333 432 205 c 1
 462.666666667 201.666666667 497.666666667 198 537 194 c 128
 576.333333333 190 616.5 184.166666667 657.5 176.5 c 128
 698.5 168.833333333 738.833333333 158.666666667 778.5 146 c 128
 818.166666667 133.333333333 853.333333333 116.833333333 884 96.5 c 128
 914.666666667 76.1666666667 939.5 51.5 958.5 22.5 c 128
 977.5 -6.5 987 -41.3333333333 987 -82 c 0
 987 -130.666666667 973.166666667 -178.166666667 945.5 -224.5 c 128
 917.833333333 -270.833333333 880 -312.166666667 832 -348.5 c 128
 784 -384.833333333 727.666666667 -414 663 -436 c 128
 598.333333333 -458 529 -469 455 -469 c 0
 393.666666667 -469 339.166666667 -461.666666667 291.5 -447 c 128
 243.833333333 -432.333333333 203.666666667 -412 171 -386 c 128
 138.333333333 -360 113.333333333 -329.166666667 96 -293.5 c 128
 78.6666666667 -257.833333333 70 -219.333333333 70 -178 c 0
 70 -148 74.3333333333 -119.5 83 -92.5 c 128
 91.6666666667 -65.5 105 -41.1666666667 123 -19.5 c 128
 141 2.16666666667 163.5 20.8333333333 190.5 36.5 c 128
 217.5 52.1666666667 249.666666667 63.3333333333 287 70 c 1
 283 80.6666666667 279.666666667 89.5 277 96.5 c 128
 274.333333333 103.5 272.166666667 110.166666667 270.5 116.5 c 128
 268.833333333 122.833333333 267.666666667 129.5 267 136.5 c 128
 266.333333333 143.5 266 152.666666667 266 164 c 0
 266 190.666666667 274.166666667 220.166666667 290.5 252.5 c 128
 306.833333333 284.833333333 333 319.333333333 369 356 c 1
 335 364 302.666666667 376.666666667 272 394 c 128
 241.333333333 411.333333333 214.333333333 433.166666667 191 459.5 c 128
 167.666666667 485.833333333 149.166666667 516.166666667 135.5 550.5 c 128
 121.833333333 584.833333333 115 622.666666667 115 664 c 0
 115 718 125 766.5 145 809.5 c 128
 165 852.5 193 889 229 919 c 128
 265 949 308.166666667 972 358.5 988 c 128
 408.833333333 1004 464.666666667 1012 526 1012 c 0
 550 1012 573.5 1010 596.5 1006 c 128
 619.5 1002 641.166666667 996.833333333 661.5 990.5 c 128
 681.833333333 984.166666667 700.666666667 977.333333333 718 970 c 128
 735.333333333 962.666666667 750.666666667 956 764 950 c 1
 1040 950 l 1
 1040 850 l 1
 836 850 l 1
EndSplineSet
EndChar

StartChar: h
Encoding: 104 104 54
Width: 1176
GlyphClass: 2
Flags: HW
LayerCount: 2
Back
Fore
SplineSet
672 0 m 1
 672 80 l 1
 756 86 l 2
 768 87.3333333333 778.5 92 787.5 100 c 128
 796.5 108 801 118.333333333 801 131 c 2
 801 659 l 2
 801 688.333333333 797.833333333 715.333333333 791.5 740 c 128
 785.166666667 764.666666667 774.166666667 786 758.5 804 c 128
 742.833333333 822 722 836.166666667 696 846.5 c 128
 670 856.833333333 637.333333333 862 598 862 c 0
 580 862 561 860.5 541 857.5 c 128
 521 854.5 501.166666667 850.333333333 481.5 845 c 128
 461.833333333 839.666666667 442.833333333 833.333333333 424.5 826 c 128
 406.166666667 818.666666667 389.666666667 811 375 803 c 1
 375 131 l 2
 375 118.333333333 378.666666667 108 386 100 c 128
 393.333333333 92 403.333333333 87.3333333333 416 86 c 2
 504 80 l 1
 504 0 l 1
 43 0 l 1
 43 80 l 1
 141 86 l 2
 153.666666667 87.3333333333 164 92 172 100 c 128
 180 108 184 118.333333333 184 131 c 2
 184 1362 l 1
 31 1362 l 1
 31 1430 l 1
 293 1509 l 1
 375 1509 l 1
 375 885 l 1
 393.666666667 896.333333333 416.666666667 909.333333333 444 924 c 128
 471.333333333 938.666666667 500.5 952.5 531.5 965.5 c 128
 562.5 978.5 593.833333333 989.5 625.5 998.5 c 128
 657.166666667 1007.5 686.333333333 1012 713 1012 c 0
 752.333333333 1012 788.833333333 1005.66666667 822.5 993 c 128
 856.166666667 980.333333333 885.5 961.333333333 910.5 936 c 128
 935.5 910.666666667 955.166666667 878.5 969.5 839.5 c 128
 983.833333333 800.5 991 754.666666667 991 702 c 2
 991 131 l 2
 991 118.333333333 995.5 108 1004.5 100 c 128
 1013.5 92 1024 87.3333333333 1036 86 c 2
 1128 80 l 1
 1128 0 l 1
 672 0 l 1
EndSplineSet
EndChar

StartChar: i
Encoding: 105 105 55
Width: 621
GlyphClass: 2
Flags: HW
LayerCount: 2
Back
Fore
SplineSet
70 0 m 1
 70 80 l 1
 170 86 l 2
 182.666666667 87.3333333333 193 92 201 100 c 128
 209 108 213 118.333333333 213 131 c 2
 213 862 l 1
 72 862 l 1
 72 934 l 1
 322 1012 l 1
 403 1012 l 1
 403 131 l 2
 403 118.333333333 407.166666667 108 415.5 100 c 128
 423.833333333 92 434 87.3333333333 446 86 c 2
 551 80 l 1
 551 0 l 1
 70 0 l 1
446 1325 m 256
 446 1307.66666667 442.833333333 1291.16666667 436.5 1275.5 c 128
 430.166666667 1259.83333333 421.333333333 1246.33333333 410 1235 c 128
 398.666666667 1223.66666667 385.5 1214.66666667 370.5 1208 c 128
 355.5 1201.33333333 339.333333333 1198 322 1198 c 256
 304.666666667 1198 288.166666667 1201.33333333 272.5 1208 c 128
 256.833333333 1214.66666667 243.333333333 1223.66666667 232 1235 c 128
 220.666666667 1246.33333333 211.666666667 1259.83333333 205 1275.5 c 128
 198.333333333 1291.16666667 195 1307.66666667 195 1325 c 256
 195 1342.33333333 198.333333333 1358.66666667 205 1374 c 128
 211.666666667 1389.33333333 220.666666667 1402.66666667 232 1414 c 128
 243.333333333 1425.33333333 256.833333333 1434.16666667 272.5 1440.5 c 128
 288.166666667 1446.83333333 304.666666667 1450 322 1450 c 256
 339.333333333 1450 355.5 1446.83333333 370.5 1440.5 c 128
 385.5 1434.16666667 398.666666667 1425.33333333 410 1414 c 128
 421.333333333 1402.66666667 430.166666667 1389.33333333 436.5 1374 c 128
 442.833333333 1358.66666667 446 1342.33333333 446 1325 c 256
EndSplineSet
EndChar

StartChar: j
Encoding: 106 106 56
Width: 598
GlyphClass: 2
Flags: HW
LayerCount: 2
Back
Fore
SplineSet
414 131 m 2
 414 100.333333333 413 66.8333333333 411 30.5 c 128
 409 -5.83333333333 405.166666667 -42.3333333333 399.5 -79 c 128
 393.833333333 -115.666666667 385.833333333 -151.333333333 375.5 -186 c 128
 365.166666667 -220.666666667 351.333333333 -251.666666667 334 -279 c 0
 292 -343.666666667 241 -391.5 181 -422.5 c 128
 121 -453.5 58.6666666667 -469 -6 -469 c 0
 -27.3333333333 -469 -47.3333333333 -466.833333333 -66 -462.5 c 128
 -84.6666666667 -458.166666667 -101.166666667 -451.333333333 -115.5 -442 c 128
 -129.833333333 -432.666666667 -141.166666667 -420.833333333 -149.5 -406.5 c 128
 -157.833333333 -392.166666667 -162 -375.333333333 -162 -356 c 0
 -162 -338.666666667 -159.333333333 -323.5 -154 -310.5 c 128
 -148.666666667 -297.5 -141.833333333 -286.166666667 -133.5 -276.5 c 128
 -125.166666667 -266.833333333 -115.666666667 -258.833333333 -105 -252.5 c 128
 -94.3333333333 -246.166666667 -84 -241.333333333 -74 -238 c 1
 125 -375 l 1
 143.666666667 -364.333333333 159.333333333 -348.5 172 -327.5 c 128
 184.666666667 -306.5 194.833333333 -281.5 202.5 -252.5 c 128
 210.166666667 -223.5 215.5 -191.166666667 218.5 -155.5 c 128
 221.5 -119.833333333 223 -82.3333333333 223 -43 c 2
 223 866 l 1
 78 866 l 1
 78 934 l 1
 330 1012 l 1
 414 1012 l 1
 414 131 l 2
436 1325 m 256
 436 1307.66666667 432.833333333 1291.16666667 426.5 1275.5 c 128
 420.166666667 1259.83333333 411.333333333 1246.33333333 400 1235 c 128
 388.666666667 1223.66666667 375.333333333 1214.66666667 360 1208 c 128
 344.666666667 1201.33333333 328.333333333 1198 311 1198 c 256
 293.666666667 1198 277.333333333 1201.33333333 262 1208 c 128
 246.666666667 1214.66666667 233.166666667 1223.66666667 221.5 1235 c 128
 209.833333333 1246.33333333 200.666666667 1259.83333333 194 1275.5 c 128
 187.333333333 1291.16666667 184 1307.66666667 184 1325 c 256
 184 1342.33333333 187.333333333 1358.66666667 194 1374 c 128
 200.666666667 1389.33333333 209.833333333 1402.66666667 221.5 1414 c 128
 233.166666667 1425.33333333 246.666666667 1434.16666667 262 1440.5 c 128
 277.333333333 1446.83333333 293.666666667 1450 311 1450 c 256
 328.333333333 1450 344.666666667 1446.83333333 360 1440.5 c 128
 375.333333333 1434.16666667 388.666666667 1425.33333333 400 1414 c 128
 411.333333333 1402.66666667 420.166666667 1389.33333333 426.5 1374 c 128
 432.833333333 1358.66666667 436 1342.33333333 436 1325 c 256
EndSplineSet
EndChar

StartChar: k
Encoding: 107 107 57
Width: 1094
GlyphClass: 2
Flags: HW
LayerCount: 2
Back
Fore
SplineSet
745 0 m 1
 745 80 l 1
 489 465 l 1
 375 465 l 1
 375 131 l 2
 375 118.333333333 379 108 387 100 c 128
 395 92 405.333333333 87.3333333333 418 86 c 2
 506 80 l 1
 506 0 l 1
 41 0 l 1
 41 80 l 1
 141 86 l 2
 153.666666667 87.3333333333 164 92 172 100 c 128
 180 108 184 118.333333333 184 131 c 2
 184 1362 l 1
 29 1362 l 1
 29 1430 l 1
 291 1509 l 1
 375 1509 l 1
 375 524 l 1
 416 524 l 1
 717 864 l 2
 722.333333333 870.666666667 723.166666667 877.833333333 719.5 885.5 c 128
 715.833333333 893.166666667 709.333333333 897.666666667 700 899 c 2
 616 907 l 1
 616 987 l 1
 1014 987 l 1
 1014 907 l 1
 883 893 l 1
 612 604 l 1
 965 92 l 1
 1073 80 l 1
 1073 0 l 1
 745 0 l 1
EndSplineSet
EndChar

StartChar: l
Encoding: 108 108 58
Width: 608
GlyphClass: 2
Flags: HW
LayerCount: 2
Back
Fore
SplineSet
55 0 m 1
 55 80 l 1
 164 86 l 2
 173.333333333 86 183.166666667 90.8333333333 193.5 100.5 c 128
 203.833333333 110.166666667 209 119.666666667 209 129 c 2
 209 1362 l 1
 53 1362 l 1
 53 1430 l 1
 315 1509 l 1
 399 1509 l 1
 399 129 l 2
 399 119.666666667 403.833333333 110.166666667 413.5 100.5 c 128
 423.166666667 90.8333333333 432.666666667 86 442 86 c 2
 553 80 l 1
 553 0 l 1
 55 0 l 1
EndSplineSet
EndChar

StartChar: m
Encoding: 109 109 59
Width: 1741
GlyphClass: 2
Flags: HW
LayerCount: 2
Back
Fore
SplineSet
1237 0 m 1
 1237 80 l 1
 1323 86 l 2
 1335.66666667 87.3333333333 1346 92 1354 100 c 128
 1362 108 1366 118.333333333 1366 131 c 2
 1366 653 l 2
 1366 685 1363 713.833333333 1357 739.5 c 128
 1351 765.166666667 1340.83333333 787 1326.5 805 c 128
 1312.16666667 823 1293.33333333 837 1270 847 c 128
 1246.66666667 857 1218 862 1184 862 c 0
 1166.66666667 862 1148.5 860.5 1129.5 857.5 c 128
 1110.5 854.5 1091.5 850.5 1072.5 845.5 c 128
 1053.5 840.5 1034.83333333 834.5 1016.5 827.5 c 128
 998.166666667 820.5 981 813 965 805 c 1
 965 131 l 2
 965 118.333333333 969 108 977 100 c 128
 985 92 995.333333333 87.3333333333 1008 86 c 2
 1094 80 l 1
 1094 0 l 1
 645 0 l 1
 645 80 l 1
 731 86 l 2
 743.666666667 87.3333333333 754 92 762 100 c 128
 770 108 774 118.333333333 774 131 c 2
 774 666 l 2
 774 694.666666667 770.833333333 721.166666667 764.5 745.5 c 128
 758.166666667 769.833333333 747.833333333 790.5 733.5 807.5 c 128
 719.166666667 824.5 700.5 837.833333333 677.5 847.5 c 128
 654.5 857.166666667 626.666666667 862 594 862 c 0
 574.666666667 862 554.5 860.166666667 533.5 856.5 c 128
 512.5 852.833333333 492.333333333 848.166666667 473 842.5 c 128
 453.666666667 836.833333333 435.5 830.5 418.5 823.5 c 128
 401.5 816.5 387 809.666666667 375 803 c 1
 375 131 l 2
 375 118.333333333 379 108 387 100 c 128
 395 92 405.333333333 87.3333333333 418 86 c 2
 504 80 l 1
 504 0 l 1
 41 0 l 1
 41 80 l 1
 141 86 l 2
 153.666666667 87.3333333333 164 92 172 100 c 128
 180 108 184 118.333333333 184 131 c 2
 184 842 l 1
 43 842 l 1
 43 909 l 1
 291 987 l 1
 375 987 l 1
 375 885 l 1
 397.666666667 899 422.833333333 913.333333333 450.5 928 c 128
 478.166666667 942.666666667 506.666666667 956.333333333 536 969 c 128
 565.333333333 981.666666667 594.833333333 992 624.5 1000 c 128
 654.166666667 1008 682.333333333 1012 709 1012 c 0
 738.333333333 1012 765 1007.83333333 789 999.5 c 128
 813 991.166666667 834.166666667 980.166666667 852.5 966.5 c 128
 870.833333333 952.833333333 886.833333333 937.5 900.5 920.5 c 128
 914.166666667 903.5 925.333333333 886.666666667 934 870 c 1
 954.666666667 882.666666667 979.666666667 897.333333333 1009 914 c 128
 1038.33333333 930.666666667 1069.33333333 946.166666667 1102 960.5 c 128
 1134.66666667 974.833333333 1167.33333333 987 1200 997 c 128
 1232.66666667 1007 1262.66666667 1012 1290 1012 c 0
 1344 1012 1388 1002.16666667 1422 982.5 c 128
 1456 962.833333333 1482.83333333 937.833333333 1502.5 907.5 c 128
 1522.16666667 877.166666667 1535.66666667 843.333333333 1543 806 c 128
 1550.33333333 768.666666667 1554 732.666666667 1554 698 c 2
 1554 131 l 2
 1554 118.333333333 1558.16666667 108 1566.5 100 c 128
 1574.83333333 92 1585 87.3333333333 1597 86 c 2
 1696 80 l 1
 1696 0 l 1
 1237 0 l 1
EndSplineSet
EndChar

StartChar: n
Encoding: 110 110 60
Width: 1161
GlyphClass: 2
Flags: HW
LayerCount: 2
Back
Fore
SplineSet
668 0 m 1
 668 80 l 1
 754 86 l 2
 766 87.3333333333 776.166666667 92 784.5 100 c 128
 792.833333333 108 797 118.333333333 797 131 c 2
 797 664 l 2
 797 728.666666667 782 777.833333333 752 811.5 c 128
 722 845.166666667 671.333333333 862 600 862 c 0
 560.666666667 862 522 856.5 484 845.5 c 128
 446 834.5 409.666666667 820.333333333 375 803 c 1
 375 131 l 2
 375 118.333333333 379 108 387 100 c 128
 395 92 405.333333333 87.3333333333 418 86 c 2
 504 80 l 1
 504 0 l 1
 41 0 l 1
 41 80 l 1
 141 86 l 2
 153.666666667 87.3333333333 164 92 172 100 c 128
 180 108 184 118.333333333 184 131 c 2
 184 842 l 1
 41 842 l 1
 41 909 l 1
 291 987 l 1
 375 987 l 1
 375 885 l 1
 403.666666667 901 432.833333333 916.666666667 462.5 932 c 128
 492.166666667 947.333333333 521.666666667 961 551 973 c 128
 580.333333333 985 608.666666667 994.5 636 1001.5 c 128
 663.333333333 1008.5 689 1012 713 1012 c 0
 802.333333333 1012 870.333333333 984.333333333 917 929 c 128
 963.666666667 873.666666667 987 796 987 696 c 2
 987 131 l 2
 987 118.333333333 991.166666667 108 999.5 100 c 128
 1007.83333333 92 1018 87.3333333333 1030 86 c 2
 1120 80 l 1
 1120 0 l 1
 668 0 l 1
EndSplineSet
EndChar

StartChar: o
Encoding: 111 111 61
Width: 1114
GlyphClass: 2
Flags: HW
LayerCount: 2
Back
Fore
SplineSet
831 494 m 256
 831 550 825.5 603.666666667 814.5 655 c 128
 803.5 706.333333333 786.666666667 751.666666667 764 791 c 128
 741.333333333 830.333333333 713 861.666666667 679 885 c 128
 645 908.333333333 605 920 559 920 c 0
 511.666666667 920 470.666666667 908.333333333 436 885 c 128
 401.333333333 861.666666667 372.833333333 830.333333333 350.5 791 c 128
 328.166666667 751.666666667 311.666666667 706.333333333 301 655 c 128
 290.333333333 603.666666667 285 550 285 494 c 0
 285 438.666666667 290.5 385.333333333 301.5 334 c 128
 312.5 282.666666667 329.333333333 237.333333333 352 198 c 128
 374.666666667 158.666666667 403 127.166666667 437 103.5 c 128
 471 79.8333333333 511 68 557 68 c 0
 603.666666667 68 644.333333333 79.6666666667 679 103 c 128
 713.666666667 126.333333333 742.166666667 157.666666667 764.5 197 c 128
 786.833333333 236.333333333 803.5 281.666666667 814.5 333 c 128
 825.5 384.333333333 831 438 831 494 c 256
1044 492 m 0
 1044 419.333333333 1032.5 351.5 1009.5 288.5 c 128
 986.5 225.5 953.833333333 170.833333333 911.5 124.5 c 128
 869.166666667 78.1666666667 817.833333333 41.6666666667 757.5 15 c 128
 697.166666667 -11.6666666667 629.666666667 -25 555 -25 c 256
 480.333333333 -25 413 -11.8333333333 353 14.5 c 128
 293 40.8333333333 242 77 200 123 c 128
 158 169 125.833333333 223.5 103.5 286.5 c 128
 81.1666666667 349.5 70 418 70 492 c 0
 70 564.666666667 81.3333333333 632.666666667 104 696 c 128
 126.666666667 759.333333333 159.333333333 814.5 202 861.5 c 128
 244.666666667 908.5 296.166666667 945.333333333 356.5 972 c 128
 416.833333333 998.666666667 485 1012 561 1012 c 256
 637 1012 705 998.333333333 765 971 c 128
 825 943.666666667 875.666666667 906.5 917 859.5 c 128
 958.333333333 812.5 989.833333333 757.5 1011.5 694.5 c 128
 1033.16666667 631.5 1044 564 1044 492 c 0
EndSplineSet
EndChar

StartChar: p
Encoding: 112 112 62
Width: 1145
GlyphClass: 2
Flags: HW
LayerCount: 2
Back
Fore
SplineSet
870 479 m 0
 870 531.666666667 863.833333333 581.5 851.5 628.5 c 128
 839.166666667 675.5 821 716.833333333 797 752.5 c 128
 773 788.166666667 743.166666667 816.333333333 707.5 837 c 128
 671.833333333 857.666666667 630.666666667 868 584 868 c 0
 558 868 532.5 864.666666667 507.5 858 c 128
 482.5 851.333333333 460.333333333 844.333333333 441 837 c 0
 418.333333333 828.333333333 396.333333333 818.333333333 375 807 c 1
 375 102 l 1
 391 96 408 90.6666666667 426 86 c 0
 441.333333333 82 459 78.3333333333 479 75 c 128
 499 71.6666666667 519.666666667 70 541 70 c 0
 597 70 645.666666667 81.3333333333 687 104 c 128
 728.333333333 126.666666667 762.5 156.833333333 789.5 194.5 c 128
 816.5 232.166666667 836.666666667 275.666666667 850 325 c 128
 863.333333333 374.333333333 870 425.666666667 870 479 c 0
1075 508 m 0
 1075 427.333333333 1063.16666667 354.166666667 1039.5 288.5 c 128
 1015.83333333 222.833333333 981.833333333 166.833333333 937.5 120.5 c 128
 893.166666667 74.1666666667 838.833333333 38.3333333333 774.5 13 c 128
 710.166666667 -12.3333333333 637.666666667 -25 557 -25 c 0
 538.333333333 -25 518.333333333 -24.1666666667 497 -22.5 c 128
 475.666666667 -20.8333333333 456 -18.6666666667 438 -16 c 0
 416.666666667 -13.3333333333 395.666666667 -10 375 -6 c 1
 375 -311 l 2
 375 -323.666666667 379.333333333 -333.666666667 388 -341 c 128
 396.666666667 -348.333333333 407.333333333 -352.666666667 420 -354 c 2
 541 -367 l 1
 541 -446 l 1
 43 -446 l 1
 43 -367 l 1
 141 -354 l 2
 153.666666667 -352.666666667 164 -348.333333333 172 -341 c 128
 180 -333.666666667 184 -323.666666667 184 -311 c 2
 184 842 l 1
 43 842 l 1
 43 909 l 1
 295 987 l 1
 375 987 l 1
 375 885 l 1
 404.333333333 908.333333333 435.666666667 929.333333333 469 948 c 0
 497.666666667 964 530.666666667 978.666666667 568 992 c 128
 605.333333333 1005.33333333 644 1012 684 1012 c 0
 736.666666667 1012 786.666666667 1000 834 976 c 128
 881.333333333 952 922.833333333 918 958.5 874 c 128
 994.166666667 830 1022.5 777 1043.5 715 c 128
 1064.5 653 1075 584 1075 508 c 0
EndSplineSet
EndChar

StartChar: q
Encoding: 113 113 63
Width: 1124
GlyphClass: 2
Flags: HW
LayerCount: 2
Back
Fore
SplineSet
762 895 m 1
 743.333333333 899 722.166666667 903.833333333 698.5 909.5 c 128
 674.833333333 915.166666667 649 918 621 918 c 0
 565 918 515.5 908 472.5 888 c 128
 429.5 868 393.5 839.833333333 364.5 803.5 c 128
 335.5 767.166666667 313.5 723.5 298.5 672.5 c 128
 283.5 621.5 276 564.666666667 276 502 c 0
 276 449.333333333 281.833333333 398.5 293.5 349.5 c 128
 305.166666667 300.5 323.5 257.333333333 348.5 220 c 128
 373.5 182.666666667 405.5 152.666666667 444.5 130 c 128
 483.5 107.333333333 530.666666667 96 586 96 c 0
 598.666666667 96 612.833333333 96.8333333333 628.5 98.5 c 128
 644.166666667 100.166666667 660 102.333333333 676 105 c 128
 692 107.666666667 707.5 110.833333333 722.5 114.5 c 128
 737.5 118.166666667 750.666666667 121.666666667 762 125 c 1
 762 895 l 1
598 -446 m 1
 598 -369 l 1
 719 -358 l 2
 731 -356.666666667 741.166666667 -352.333333333 749.5 -345 c 128
 757.833333333 -337.666666667 762 -327.666666667 762 -315 c 2
 762 55 l 1
 742.666666667 45.6666666667 721.333333333 36.3333333333 698 27 c 128
 674.666666667 17.6666666667 650.166666667 9.16666666667 624.5 1.5 c 128
 598.833333333 -6.16666666667 573.166666667 -12.5 547.5 -17.5 c 128
 521.833333333 -22.5 497.666666667 -25 475 -25 c 0
 411.666666667 -25 355 -12 305 14 c 128
 255 40 212.666666667 75.3333333333 178 120 c 128
 143.333333333 164.666666667 116.666666667 217 98 277 c 128
 79.3333333333 337 70 401 70 469 c 0
 70 552.333333333 83.3333333333 627.5 110 694.5 c 128
 136.666666667 761.5 175.333333333 818.5 226 865.5 c 128
 276.666666667 912.5 338.666666667 948.666666667 412 974 c 128
 485.333333333 999.333333333 568.666666667 1012 662 1012 c 0
 680.666666667 1012 702.333333333 1011.16666667 727 1009.5 c 128
 751.666666667 1007.83333333 777 1005.66666667 803 1003 c 128
 829 1000.33333333 855 996.833333333 881 992.5 c 128
 907 988.166666667 930.666666667 983.666666667 952 979 c 1
 952 -315 l 2
 952 -327.666666667 956.166666667 -337.5 964.5 -344.5 c 128
 972.833333333 -351.5 983 -356 995 -358 c 2
 1094 -369 l 1
 1094 -446 l 1
 598 -446 l 1
EndSplineSet
EndChar

StartChar: r
Encoding: 114 114 64
Width: 801
GlyphClass: 2
Flags: HW
LayerCount: 2
Back
Fore
SplineSet
700 778 m 1
 686.666666667 793.333333333 671.333333333 806.5 654 817.5 c 128
 636.666666667 828.5 615.333333333 834 590 834 c 0
 556.666666667 834 523 822.833333333 489 800.5 c 128
 455 778.166666667 420.333333333 747 385 707 c 1
 385 131 l 2
 385 118.333333333 389 108 397 100 c 128
 405 92 415.333333333 87.3333333333 428 86 c 1
 563 80 l 1
 563 0 l 1
 51 0 l 1
 51 78 l 1
 152 86 l 2
 164 87.3333333333 174.166666667 92 182.5 100 c 128
 190.833333333 108 195 118.333333333 195 131 c 2
 195 842 l 1
 47 842 l 1
 47 909 l 1
 301 987 l 1
 385 987 l 1
 385 805 l 1
 399.666666667 821 417.5 840.833333333 438.5 864.5 c 128
 459.5 888.166666667 482 911 506 933 c 128
 530 955 554.833333333 973.666666667 580.5 989 c 128
 606.166666667 1004.33333333 631 1012 655 1012 c 0
 665.666666667 1012 677 1011 689 1009 c 128
 701 1007 712.666666667 1004.5 724 1001.5 c 128
 735.333333333 998.5 745.833333333 995.166666667 755.5 991.5 c 128
 765.166666667 987.833333333 773.333333333 984.333333333 780 981 c 1
 780 778 l 1
 700 778 l 1
EndSplineSet
EndChar

StartChar: s
Encoding: 115 115 65
Width: 815
GlyphClass: 2
Flags: HW
LayerCount: 2
Back
Fore
SplineSet
745 297 m 0
 745 247 736 202 718 162 c 128
 700 122 674.333333333 88.1666666667 641 60.5 c 128
 607.666666667 32.8333333333 566.666666667 11.6666666667 518 -3 c 128
 469.333333333 -17.6666666667 414.666666667 -25 354 -25 c 0
 322.666666667 -25 292.166666667 -23.1666666667 262.5 -19.5 c 128
 232.833333333 -15.8333333333 205.5 -11.1666666667 180.5 -5.5 c 128
 155.5 0.166666666667 133.333333333 6 114 12 c 128
 94.6666666667 18 80 23 70 27 c 1
 70 299 l 1
 174 299 l 1
 199 125 l 1
 219.666666667 111.666666667 245.166666667 98.8333333333 275.5 86.5 c 128
 305.833333333 74.1666666667 341 68 381 68 c 0
 410.333333333 68 436.333333333 72.5 459 81.5 c 128
 481.666666667 90.5 500.833333333 102.333333333 516.5 117 c 128
 532.166666667 131.666666667 544.166666667 148.5 552.5 167.5 c 128
 560.833333333 186.5 565 206.333333333 565 227 c 0
 565 255.666666667 559.333333333 280.166666667 548 300.5 c 128
 536.666666667 320.833333333 520.333333333 339.166666667 499 355.5 c 128
 477.666666667 371.833333333 451.5 387.666666667 420.5 403 c 128
 389.5 418.333333333 354.333333333 435.666666667 315 455 c 0
 277.666666667 473 244.666666667 490.833333333 216 508.5 c 128
 187.333333333 526.166666667 163.166666667 545.166666667 143.5 565.5 c 128
 123.833333333 585.833333333 109 608.166666667 99 632.5 c 128
 89 656.833333333 84 684.333333333 84 715 c 0
 84 760.333333333 92.1666666667 801.333333333 108.5 838 c 128
 124.833333333 874.666666667 148.666666667 905.833333333 180 931.5 c 128
 211.333333333 957.166666667 249.833333333 977 295.5 991 c 128
 341.166666667 1005 393.666666667 1012 453 1012 c 0
 483 1012 511.666666667 1010.33333333 539 1007 c 128
 566.333333333 1003.66666667 591.333333333 999.666666667 614 995 c 128
 636.666666667 990.333333333 656.666666667 985.333333333 674 980 c 128
 691.333333333 974.666666667 705 969.666666667 715 965 c 1
 715 723 l 1
 608 723 l 1
 592 866 l 1
 577.333333333 877.333333333 555.666666667 888 527 898 c 128
 498.333333333 908 468 913 436 913 c 0
 379.333333333 913 337.5 900.166666667 310.5 874.5 c 128
 283.5 848.833333333 270 816 270 776 c 0
 270 752.666666667 273.833333333 732.333333333 281.5 715 c 128
 289.166666667 697.666666667 301.833333333 681.333333333 319.5 666 c 128
 337.166666667 650.666666667 360.5 635 389.5 619 c 128
 418.5 603 454.666666667 585 498 565 c 0
 534 549 567 532.333333333 597 515 c 128
 627 497.666666667 653 478.333333333 675 457 c 128
 697 435.666666667 714.166666667 412 726.5 386 c 128
 738.833333333 360 745 330.333333333 745 297 c 0
EndSplineSet
EndChar

StartChar: t
Encoding: 116 116 66
Width: 696
GlyphClass: 2
Flags: HW
LayerCount: 2
Back
Fore
SplineSet
682 43 m 1
 656.666666667 30.3333333333 629 19 599 9 c 0
 573.666666667 0.333333333333 544.333333333 -7.5 511 -14.5 c 128
 477.666666667 -21.5 442.666666667 -25 406 -25 c 0
 328.666666667 -25 272.666666667 -7 238 29 c 128
 203.333333333 65 186 123.666666667 186 205 c 2
 186 885 l 1
 55 885 l 1
 55 952 l 1
 195 1018 l 1
 287 1235 l 1
 377 1235 l 1
 377 987 l 1
 666 987 l 1
 666 885 l 1
 377 885 l 1
 377 313 l 2
 377 272.333333333 380.5 237.833333333 387.5 209.5 c 128
 394.5 181.166666667 404.833333333 158.166666667 418.5 140.5 c 128
 432.166666667 122.833333333 449.166666667 110 469.5 102 c 128
 489.833333333 94 513.666666667 90 541 90 c 0
 561 90 579.5 91.6666666667 596.5 95 c 128
 613.5 98.3333333333 628.333333333 102.333333333 641 107 c 0
 655.666666667 112.333333333 669.333333333 118.333333333 682 125 c 1
 682 43 l 1
EndSplineSet
EndChar

StartChar: u
Encoding: 117 117 67
Width: 1165
GlyphClass: 2
Flags: HW
LayerCount: 2
Back
Fore
SplineSet
797 0 m 1
 797 117 l 1
 779.666666667 103.666666667 758.5 88.6666666667 733.5 72 c 128
 708.5 55.3333333333 681.5 39.8333333333 652.5 25.5 c 128
 623.5 11.1666666667 593.166666667 -0.833333333333 561.5 -10.5 c 128
 529.833333333 -20.1666666667 499 -25 469 -25 c 0
 425 -25 385.5 -18.5 350.5 -5.5 c 128
 315.5 7.5 285.833333333 27.5 261.5 54.5 c 128
 237.166666667 81.5 218.5 115.833333333 205.5 157.5 c 128
 192.5 199.166666667 186 249 186 307 c 2
 186 862 l 1
 43 862 l 1
 43 932 l 1
 295 1012 l 1
 377 1012 l 1
 377 346 l 2
 377 310 380.5 277.666666667 387.5 249 c 128
 394.5 220.333333333 405.833333333 196 421.5 176 c 128
 437.166666667 156 457.666666667 140.833333333 483 130.5 c 128
 508.333333333 120.166666667 539 115 575 115 c 0
 595.666666667 115 616.666666667 117 638 121 c 128
 659.333333333 125 679.666666667 130.166666667 699 136.5 c 128
 718.333333333 142.833333333 736.5 149.5 753.5 156.5 c 128
 770.5 163.5 785 170 797 176 c 1
 797 862 l 1
 653 862 l 1
 653 932 l 1
 903 1012 l 1
 987 1012 l 1
 987 131 l 2
 987 118.333333333 991.5 108 1000.5 100 c 128
 1009.5 92 1020 87.3333333333 1032 86 c 2
 1122 80 l 1
 1122 0 l 1
 797 0 l 1
EndSplineSet
EndChar

StartChar: v
Encoding: 118 118 68
Width: 1083
GlyphClass: 2
Flags: HW
LayerCount: 2
Back
Fore
SplineSet
954 895 m 1
 596 0 l 1
 463 0 l 1
 133 895 l 1
 20 907 l 1
 20 987 l 1
 473 987 l 1
 473 907 l 1
 375 901 l 2
 363.666666667 899.666666667 354.666666667 894.666666667 348 886 c 128
 341.333333333 877.333333333 340 867.333333333 344 856 c 2
 573 215 l 1
 825 856 l 2
 829.666666667 866.666666667 829 876.5 823 885.5 c 128
 817 894.5 808.333333333 899.666666667 797 901 c 2
 705 907 l 1
 705 987 l 1
 1063 987 l 1
 1063 907 l 1
 954 895 l 1
EndSplineSet
EndChar

StartChar: w
Encoding: 119 119 69
Width: 1604
GlyphClass: 2
Flags: HW
LayerCount: 2
Back
Fore
SplineSet
1479 895 m 1
 1198 0 l 1
 1053 0 l 1
 811 766 l 1
 541 0 l 1
 395 0 l 1
 133 895 l 1
 20 907 l 1
 20 987 l 1
 469 987 l 1
 469 907 l 1
 373 901 l 2
 361.666666667 899.666666667 352.833333333 894.666666667 346.5 886 c 128
 340.166666667 877.333333333 338.666666667 867.333333333 342 856 c 2
 512 219 l 1
 776 987 l 1
 922 987 l 1
 1159 219 l 1
 1348 856 l 2
 1351.33333333 866.666666667 1350.16666667 876.5 1344.5 885.5 c 128
 1338.83333333 894.5 1330.33333333 899.666666667 1319 901 c 2
 1225 907 l 1
 1225 987 l 1
 1583 987 l 1
 1583 907 l 1
 1479 895 l 1
EndSplineSet
EndChar

StartChar: x
Encoding: 120 120 70
Width: 1044
GlyphClass: 2
Flags: HW
LayerCount: 2
Back
Fore
SplineSet
584 0 m 1
 584 80 l 1
 653 88 l 2
 662.333333333 89.3333333333 668.833333333 94 672.5 102 c 128
 676.166666667 110 676 117.666666667 672 125 c 1
 496 387 l 1
 295 125 l 2
 289.666666667 119 288 111.666666667 290 103 c 128
 292 94.3333333333 297.666666667 89.3333333333 307 88 c 2
 410 80 l 1
 410 0 l 1
 20 0 l 1
 20 80 l 1
 137 96 l 1
 430 477 l 1
 152 889 l 1
 31 907 l 1
 31 987 l 1
 481 987 l 1
 481 907 l 1
 410 897 l 2
 400.666666667 895.666666667 393.833333333 891 389.5 883 c 128
 385.166666667 875 385 867.333333333 389 860 c 1
 551 631 l 1
 729 860 l 2
 734.333333333 866 735.666666667 873.333333333 733 882 c 128
 730.333333333 890.666666667 724.333333333 895.666666667 715 897 c 2
 627 907 l 1
 627 987 l 1
 995 987 l 1
 995 907 l 1
 885 889 l 1
 610 539 l 1
 913 96 l 1
 1024 80 l 1
 1024 0 l 1
 584 0 l 1
EndSplineSet
EndChar

StartChar: y
Encoding: 121 121 71
Width: 1085
GlyphClass: 2
Flags: HW
LayerCount: 2
Back
Fore
SplineSet
958 895 m 1
 565 -63 l 2
 558.333333333 -79.6666666667 549 -102 537 -130 c 128
 525 -158 510.833333333 -187.833333333 494.5 -219.5 c 128
 478.166666667 -251.166666667 460.166666667 -282.333333333 440.5 -313 c 128
 420.833333333 -343.666666667 400.333333333 -369.666666667 379 -391 c 0
 354.333333333 -415.666666667 327.166666667 -434.833333333 297.5 -448.5 c 128
 267.833333333 -462.166666667 235.666666667 -469 201 -469 c 0
 177 -469 155.666666667 -465.833333333 137 -459.5 c 128
 118.333333333 -453.166666667 102.666666667 -444.666666667 90 -434 c 128
 77.3333333333 -423.333333333 67.6666666667 -410.833333333 61 -396.5 c 128
 54.3333333333 -382.166666667 51 -367.333333333 51 -352 c 0
 51 -328.666666667 56.1666666667 -307.166666667 66.5 -287.5 c 128
 76.8333333333 -267.833333333 93.6666666667 -248.333333333 117 -229 c 1
 309 -317 l 1
 325.666666667 -300.333333333 342.666666667 -278.5 360 -251.5 c 128
 377.333333333 -224.5 393.666666667 -196 409 -166 c 128
 424.333333333 -136 438.333333333 -106.166666667 451 -76.5 c 128
 463.666666667 -46.8333333333 473.666666667 -20.6666666667 481 2 c 1
 133 895 l 1
 20 907 l 1
 20 987 l 1
 473 987 l 1
 473 907 l 1
 375 901 l 2
 363.666666667 899.666666667 354.666666667 894.666666667 348 886 c 128
 341.333333333 877.333333333 340 867.333333333 344 856 c 2
 582 252 l 1
 825 856 l 2
 829.666666667 866.666666667 829 876.5 823 885.5 c 128
 817 894.5 808.333333333 899.666666667 797 901 c 2
 700 907 l 1
 700 987 l 1
 1065 987 l 1
 1065 907 l 1
 958 895 l 1
EndSplineSet
EndChar

StartChar: z
Encoding: 122 122 72
Width: 946
GlyphClass: 2
Flags: HW
LayerCount: 2
Back
Fore
SplineSet
70 0 m 1
 70 109 l 1
 612 891 l 1
 256 891 l 2
 246 891 237.166666667 886.166666667 229.5 876.5 c 128
 221.833333333 866.833333333 217 857.333333333 215 848 c 1
 195 696 l 1
 90 696 l 1
 90 987 l 1
 848 987 l 1
 848 903 l 1
 287 98 l 1
 700 98 l 2
 704.666666667 98 709.5 99.6666666667 714.5 103 c 128
 719.5 106.333333333 724.166666667 110.333333333 728.5 115 c 128
 732.833333333 119.666666667 736.5 124.833333333 739.5 130.5 c 128
 742.5 136.166666667 744.333333333 141.666666667 745 147 c 2
 766 309 l 1
 877 309 l 1
 877 0 l 1
 70 0 l 1
EndSplineSet
EndChar

StartChar: braceleft
Encoding: 123 123 73
Width: 999
GlyphClass: 2
Flags: HW
LayerCount: 2
Back
Fore
SplineSet
858 -252 m 1
 822 -252 786.333333333 -250.666666667 751 -248 c 128
 715.666666667 -245.333333333 682.333333333 -240.5 651 -233.5 c 128
 619.666666667 -226.5 591.166666667 -217.333333333 565.5 -206 c 128
 539.833333333 -194.666666667 518.666666667 -180 502 -162 c 0
 478.666666667 -138 461.333333333 -111.833333333 450 -83.5 c 128
 438.666666667 -55.1666666667 430.5 -25.3333333333 425.5 6 c 128
 420.5 37.3333333333 418 69.3333333333 418 102 c 2
 418 278 l 2
 418 305.333333333 416.333333333 332.333333333 413 359 c 128
 409.666666667 385.666666667 404 411 396 435 c 128
 388 459 376 478.666666667 360 494 c 0
 348 506 334.333333333 515.5 319 522.5 c 128
 303.666666667 529.5 286.5 535 267.5 539 c 128
 248.5 543 227.166666667 545.666666667 203.5 547 c 128
 179.833333333 548.333333333 153 549 123 549 c 1
 123 641 l 1
 153 641 179.833333333 641.666666667 203.5 643 c 128
 227.166666667 644.333333333 248.5 647 267.5 651 c 128
 286.5 655 303.666666667 660.5 319 667.5 c 128
 334.333333333 674.5 348 684 360 696 c 0
 376 711.333333333 388 731 396 755 c 128
 404 779 409.666666667 804.333333333 413 831 c 128
 416.333333333 857.666666667 418 884.666666667 418 912 c 2
 418 1087 l 2
 418 1120.33333333 420.5 1152.5 425.5 1183.5 c 128
 430.5 1214.5 438.666666667 1244.33333333 450 1273 c 128
 461.333333333 1301.66666667 478.666666667 1328 502 1352 c 0
 518.666666667 1370 539.833333333 1384.66666667 565.5 1396 c 128
 591.166666667 1407.33333333 619.666666667 1416.5 651 1423.5 c 128
 682.333333333 1430.5 715.666666667 1435.33333333 751 1438 c 128
 786.333333333 1440.66666667 822 1442 858 1442 c 1
 858 1358 l 1
 849.333333333 1358 836 1357.33333333 818 1356 c 128
 800 1354.66666667 780.5 1352 759.5 1348 c 128
 738.5 1344 718 1337.83333333 698 1329.5 c 128
 678 1321.16666667 661.666666667 1310 649 1296 c 0
 635 1280.66666667 624.5 1261.66666667 617.5 1239 c 128
 610.5 1216.33333333 605.666666667 1191.5 603 1164.5 c 128
 600.333333333 1137.5 599.166666667 1109.33333333 599.5 1080 c 128
 599.833333333 1050.66666667 600 1021.66666667 600 993 c 0
 600 969.666666667 599.5 945.166666667 598.5 919.5 c 128
 597.5 893.833333333 595 868.5 591 843.5 c 128
 587 818.5 581.166666667 794.833333333 573.5 772.5 c 128
 565.833333333 750.166666667 555 730.333333333 541 713 c 0
 513.666666667 677.666666667 481.166666667 651.666666667 443.5 635 c 128
 405.833333333 618.333333333 366 605.333333333 324 596 c 1
 366 586.666666667 405.833333333 573.333333333 443.5 556 c 128
 481.166666667 538.666666667 513.666666667 512.333333333 541 477 c 0
 555 459.666666667 565.833333333 439.833333333 573.5 417.5 c 128
 581.166666667 395.166666667 587 371.5 591 346.5 c 128
 595 321.5 597.5 296.166666667 598.5 270.5 c 128
 599.5 244.833333333 600 220.333333333 600 197 c 0
 600 168.333333333 599.833333333 139.333333333 599.5 110 c 128
 599.166666667 80.6666666667 600.333333333 52.5 603 25.5 c 128
 605.666666667 -1.5 610.5 -26.3333333333 617.5 -49 c 128
 624.5 -71.6666666667 635 -90.6666666667 649 -106 c 0
 661.666666667 -120 678 -131.166666667 698 -139.5 c 128
 718 -147.833333333 738.5 -154 759.5 -158 c 128
 780.5 -162 800 -164.666666667 818 -166 c 128
 836 -167.333333333 849.333333333 -168 858 -168 c 1
 858 -252 l 1
EndSplineSet
EndChar

StartChar: bar
Encoding: 124 124 74
Width: 724
GlyphClass: 2
Flags: HW
LayerCount: 2
Back
Fore
SplineSet
300 -528 m 1
 300 1630 l 1
 424 1630 l 1
 424 -528 l 1
 300 -528 l 1
EndSplineSet
EndChar

StartChar: braceright
Encoding: 125 125 75
Width: 999
GlyphClass: 2
Flags: HW
LayerCount: 2
Back
Fore
SplineSet
877 549 m 1
 817.666666667 549 769.333333333 545.666666667 732 539 c 128
 694.666666667 532.333333333 663.666666667 517.333333333 639 494 c 0
 623 478.666666667 611 459 603 435 c 128
 595 411 589.5 385.666666667 586.5 359 c 128
 583.5 332.333333333 582 305.333333333 582 278 c 2
 582 102 l 2
 582 69.3333333333 579.5 37.3333333333 574.5 6 c 128
 569.5 -25.3333333333 561.166666667 -55.1666666667 549.5 -83.5 c 128
 537.833333333 -111.833333333 520.666666667 -138 498 -162 c 0
 480.666666667 -180 459.333333333 -194.666666667 434 -206 c 128
 408.666666667 -217.333333333 380.333333333 -226.5 349 -233.5 c 128
 317.666666667 -240.5 284.333333333 -245.333333333 249 -248 c 128
 213.666666667 -250.666666667 177.666666667 -252 141 -252 c 1
 141 -168 l 1
 149.666666667 -168 163 -167.333333333 181 -166 c 128
 199 -164.666666667 218.5 -162 239.5 -158 c 128
 260.5 -154 281 -147.833333333 301 -139.5 c 128
 321 -131.166666667 337.333333333 -120 350 -106 c 0
 364.666666667 -90.6666666667 375.333333333 -71.6666666667 382 -49 c 128
 388.666666667 -26.3333333333 393.333333333 -1.5 396 25.5 c 128
 398.666666667 52.5 399.833333333 80.6666666667 399.5 110 c 128
 399.166666667 139.333333333 399 168.333333333 399 197 c 0
 399 220.333333333 399.5 244.833333333 400.5 270.5 c 128
 401.5 296.166666667 404 321.5 408 346.5 c 128
 412 371.5 418 395.166666667 426 417.5 c 128
 434 439.833333333 445 459.666666667 459 477 c 1
 485.666666667 512.333333333 518 538.666666667 556 556 c 128
 594 573.333333333 634 586.666666667 676 596 c 1
 654.666666667 600.666666667 634 606 614 612 c 128
 594 618 574.666666667 625.666666667 556 635 c 128
 537.333333333 644.333333333 519.833333333 655.333333333 503.5 668 c 128
 487.166666667 680.666666667 472.333333333 695.666666667 459 713 c 0
 445 730.333333333 434 750.166666667 426 772.5 c 128
 418 794.833333333 412 818.5 408 843.5 c 128
 404 868.5 401.5 893.833333333 400.5 919.5 c 128
 399.5 945.166666667 399 969.666666667 399 993 c 0
 399 1021.66666667 399.166666667 1050.66666667 399.5 1080 c 128
 399.833333333 1109.33333333 398.666666667 1137.5 396 1164.5 c 128
 393.333333333 1191.5 388.666666667 1216.33333333 382 1239 c 128
 375.333333333 1261.66666667 364.666666667 1280.66666667 350 1296 c 0
 337.333333333 1310 321 1321.16666667 301 1329.5 c 128
 281 1337.83333333 260.5 1344 239.5 1348 c 128
 218.5 1352 199 1354.66666667 181 1356 c 128
 163 1357.33333333 149.666666667 1358 141 1358 c 1
 141 1442 l 1
 177.666666667 1442 213.666666667 1440.66666667 249 1438 c 128
 284.333333333 1435.33333333 317.666666667 1430.5 349 1423.5 c 128
 380.333333333 1416.5 408.666666667 1407.33333333 434 1396 c 128
 459.333333333 1384.66666667 480.666666667 1370 498 1352 c 0
 520.666666667 1328 537.833333333 1301.66666667 549.5 1273 c 128
 561.166666667 1244.33333333 569.5 1214.5 574.5 1183.5 c 128
 579.5 1152.5 582 1120.33333333 582 1087 c 2
 582 912 l 2
 582 884.666666667 583.5 857.666666667 586.5 831 c 128
 589.5 804.333333333 595 779 603 755 c 128
 611 731 623 711.333333333 639 696 c 0
 663.666666667 672.666666667 694.666666667 657.666666667 732 651 c 128
 769.333333333 644.333333333 817.666666667 641 877 641 c 1
 877 549 l 1
EndSplineSet
EndChar

StartChar: asciitilde
Encoding: 126 126 76
Width: 1706
GlyphClass: 2
Flags: HW
LayerCount: 2
Back
Fore
SplineSet
1530 627 m 1
 1490.66666667 599.666666667 1454 576.833333333 1420 558.5 c 128
 1386 540.166666667 1353.5 525.333333333 1322.5 514 c 128
 1291.5 502.666666667 1261.5 494.666666667 1232.5 490 c 128
 1203.5 485.333333333 1174.33333333 483 1145 483 c 0
 1096.33333333 483 1048 490.166666667 1000 504.5 c 128
 952 518.833333333 903.666666667 534.666666667 855 552 c 128
 806.333333333 569.333333333 757 585.166666667 707 599.5 c 128
 657 613.833333333 605.666666667 621 553 621 c 0
 501 621 442.333333333 606.833333333 377 578.5 c 128
 311.666666667 550.166666667 244.666666667 511 176 461 c 1
 176 594 l 1
 249.333333333 646 318.666666667 683.166666667 384 705.5 c 128
 449.333333333 727.833333333 509.666666667 739 565 739 c 0
 615 739 665 731.833333333 715 717.5 c 128
 765 703.166666667 814.666666667 687.5 864 670.5 c 128
 913.333333333 653.5 961.666666667 637.833333333 1009 623.5 c 128
 1056.33333333 609.166666667 1102.33333333 602 1147 602 c 0
 1195.66666667 602 1251.16666667 613.5 1313.5 636.5 c 128
 1375.83333333 659.5 1448 700.666666667 1530 760 c 1
 1530 627 l 1
EndSplineSet
EndChar

StartChar: exclam
Encoding: 33 33 83
Width: 692
GlyphClass: 2
Flags: HW
LayerCount: 2
Back
Fore
SplineSet
473 102 m 0
 473 85.3333333333 469.666666667 69.3333333333 463 54 c 128
 456.333333333 38.6666666667 447.166666667 25.1666666667 435.5 13.5 c 128
 423.833333333 1.83333333333 410.333333333 -7.5 395 -14.5 c 128
 379.666666667 -21.5 363.333333333 -25 346 -25 c 256
 328.666666667 -25 312.333333333 -21.5 297 -14.5 c 128
 281.666666667 -7.5 268.333333333 1.83333333333 257 13.5 c 128
 245.666666667 25.1666666667 236.833333333 38.6666666667 230.5 54 c 128
 224.166666667 69.3333333333 221 85.3333333333 221 102 c 0
 221 119.333333333 224.166666667 135.666666667 230.5 151 c 128
 236.833333333 166.333333333 245.666666667 179.666666667 257 191 c 128
 268.333333333 202.333333333 281.666666667 211.166666667 297 217.5 c 128
 312.333333333 223.833333333 328.666666667 227 346 227 c 256
 363.333333333 227 379.666666667 223.833333333 395 217.5 c 128
 410.333333333 211.166666667 423.833333333 202.333333333 435.5 191 c 128
 447.166666667 179.666666667 456.333333333 166.333333333 463 151 c 128
 469.666666667 135.666666667 473 119.333333333 473 102 c 0
471 1274 m 0
 471 1270 469.833333333 1253.83333333 467.5 1225.5 c 128
 465.166666667 1197.16666667 462.333333333 1161.5 459 1118.5 c 128
 455.666666667 1075.5 451.833333333 1027.16666667 447.5 973.5 c 128
 443.166666667 919.833333333 438.666666667 865.333333333 434 810 c 0
 422.666666667 680 410.333333333 533.666666667 397 371 c 1
 297 371 l 1
 283 533.666666667 270.333333333 680 259 810 c 0
 254.333333333 865.333333333 249.666666667 919.833333333 245 973.5 c 128
 240.333333333 1027.16666667 236.333333333 1075.5 233 1118.5 c 128
 229.666666667 1161.5 226.833333333 1197.16666667 224.5 1225.5 c 128
 222.166666667 1253.83333333 221 1270 221 1274 c 0
 221 1315.33333333 231 1347.83333333 251 1371.5 c 128
 271 1395.16666667 302.666666667 1407 346 1407 c 256
 389.333333333 1407 421 1395.16666667 441 1371.5 c 128
 461 1347.83333333 471 1315.33333333 471 1274 c 0
EndSplineSet
EndChar

StartChar: quoteleft
Encoding: 8216 8216 84
Width: 564
GlyphClass: 2
Flags: HW
LayerCount: 2
Back
Fore
SplineSet
267 1023 m 1
 211.08 1054.95 113 1133.4 113 1207 c 0
 113 1269 169.333 1404 282 1612 c 1
 324 1545 l 1
 293.333 1491 270.333 1444 255 1404 c 1
 230.369 1345.94 229.671 1309.31 231 1300 c 1
 237 1282.67 276.333 1240 349 1172 c 1
 267 1023 l 1
EndSplineSet
EndChar

StartChar: u25CC
Encoding: 9676 9676 85
Width: 1531
GlyphClass: 2
Flags: HW
LayerCount: 2
Back
Fore
SplineSet
1187 812 m 1
 1234.2 812 1246 779 1246 757 c 0
 1246 747 1244.33 738 1241 730 c 1
 1235.67 710 1225.67 694.667 1211 684 c 1
 1196.33 678 1179.33 675 1160 675 c 1
 1120 679 l 1
 1110.22 681.794 1090 691.587 1090 714 c 0
 1090 721.619 1103.66 805.333 1187 812 c 1
1023 975 m 0
 1063.98 975 1084 929.293 1084 913 c 130
 1084 907 l 2
 1084 842.887 1003.27 810.881 970 816 c 1
 963.574 824.567 950 851.284 950 887 c 0
 950.667 892.333 951 896.333 951 899 c 0
 955.072 945.829 986.896 975 1023 975 c 0
797 1024 m 256
 842.6 1024 864.967 992.106 873 966 c 1
 873 954 l 2
 873 917.009 836.151 860 795 860 c 0
 750.152 860 732.997 946.994 736 953 c 1
 736 994.723 758.375 1024 797 1024 c 256
1147 517 m 1
 1152.89 553.818 1205.78 582 1241 582 c 256
 1260.33 582 1277.67 575.667 1293 563 c 1
 1308.33 552.333 1316 536.667 1316 516 c 1
 1310.28 478.816 1277.36 449 1241 449 c 0
 1207.96 449 1157.99 478.531 1147 517 c 1
1244 256 m 1
 1237.33 241.332 1209.41 226 1184 226 c 0
 1155.2 226 1139.83 241.631 1136 247 c 2
 1120 267 l 2
 1112.67 277.667 1106 292.333 1100 311 c 1
 1096.88 339.059 1107.01 346.306 1130.5 354.5 c 128
 1144.83 359.5 1159.33 362 1174 362 c 0
 1195.33 362 1211 359 1221 353 c 1
 1240.33 339 1252.67 322 1258 302 c 0
 1260.67 289.333 1256 274 1244 256 c 1
576 968 m 0
 608.118 968 650 946.112 650 889 c 0
 650 867.75 642.739 837.423 623 819 c 1
 602 815 l 1
 588 815 572.667 819 556 827 c 1
 540.057 837.146 535.854 841.433 521 860 c 1
 518.204 871.184 515 882.8 515 898 c 0
 515 922.95 524.794 968 576 968 c 0
953 155 m 0
 953 217.888 990.826 214.853 992 215 c 0
 1024.11 215 1070.67 180.345 1088 162 c 1
 1095 141 l 1
 1096.33 130.333 1097 123.333 1097 120 c 0
 1097 96.6667 1086.33 78.6667 1065 66 c 1
 1036 61 l 1
 1007.33 61 983.333 73.3333 964 98 c 1
 957 121 l 2
 954.333 131.667 953 143 953 155 c 0
502 709 m 0
 502 674.792 483.587 666.43 439 663 c 1
 362.832 663 350 712.208 350 742 c 0
 350 755.637 362.6 802 413 802 c 0
 449.846 802 502 769.55 502 709 c 0
359 583 m 0
 400.923 583 448 554.291 448 518 c 0
 448 480.478 403.228 451 355 451 c 0
 336.36 451 291.901 459.485 288 518 c 1
 288 561.333 311.667 583 359 583 c 0
801 159 m 0
 842.658 159 876 104.875 876 70 c 0
 876 27.7279 837.478 -8 799 -8 c 0
 772.293 -8 744.37 11.0404 737 70 c 1
 739.682 86.7606 762.6 159 801 159 c 0
433 369 m 0
 472.8 369 501 351.925 501 321 c 0
 501 297.845 478.424 234.515 415 229 c 1
 388.333 229 366.333 240.667 349 264 c 1
 344 275 l 1
 339.557 310.545 343.572 331.8 385 355 c 1
 395.667 364.333 411.667 369 433 369 c 0
648 148 m 0
 648 82.4 601.659 66 565 66 c 0
 521.8 66 511 95.7797 511 126 c 0
 511 191.63 574.279 218 605 218 c 0
 622.2 218 648 206.604 648 148 c 0
1623 1095 m 1
 7 1095 l 1
 -64 1228 l 1
 1555 1228 l 1
 1623 1095 l 1
EndSplineSet
EndChar

StartChar: u0950
Encoding: 2384 2384 86
Width: 1931
GlyphClass: 2
Flags: HW
LayerCount: 2
Back
Fore
SplineSet
1248 1450 m 1
 1100 1299 l 1
 954 1450 l 1
 1099 1597 l 1
 1248 1450 l 1
1507 1310 m 1
 1468 1252 l 1
 1434 1208.67 1394.33 1172.67 1349 1144 c 0
 1285.67 1105.33 1216.33 1086 1141 1086 c 0
 1038.33 1086 942.333 1119.33 853 1186 c 0
 775.667 1244.67 722.667 1313 694 1391 c 1
 693 1462 l 1
 716 1431 l 1
 728.667 1416.33 737.667 1405.33 743 1398 c 0
 787.667 1348 833.333 1307.67 880 1277 c 0
 946 1232.33 1010.67 1210 1074 1210 c 0
 1143.04 1210 1275.61 1227.83 1357 1376 c 1
 1382 1434 l 1
 1507 1310 l 1
1739 877 m 1
 1727.7 923.621 1702.06 952 1631 952 c 0
 1457.6 952 1394.07 783.083 1342 660 c 1
 1373.56 638.209 1452.4 589 1526 589 c 0
 1657.57 589 1743 684.295 1743 823 c 1
 1739 859 l 1
 1739 877 l 1
1113 412 m 0
 1024.2 412 940.471 444.14 891 470 c 1
 891 454 l 2
 891 274.88 717.03 191 592 191 c 0
 472 191 369.667 219.333 285 276 c 1
 217 323.333 160.667 389.333 116 474 c 1
 86.6667 535.333 61.3333 611.667 40 703 c 1
 164 580 l 1
 179.333 509.333 206.333 451.667 245 407 c 1
 301.667 345 376 314 468 314 c 0
 532 314 593.333 333.333 652 372 c 1
 727.333 423.333 765 491.667 765 577 c 0
 764.188 584.715 768.873 668.608 624 710 c 1
 535.835 697.602 481.701 676.187 427 619 c 1
 304 742 l 1
 338 777.333 417 810.333 541 841 c 1
 627.667 860.333 671 920.667 671 1022 c 1
 669.864 1028.82 669 1042.92 669 1047 c 0
 655.418 1113.4 577.95 1131 516 1131 c 0
 427.2 1131 352.657 1087.75 294 1018 c 1
 171 1141 l 1
 223.456 1203.38 298.544 1254 392 1254 c 0
 485.333 1254 566 1233.67 634 1193 c 1
 716.667 1145 768 1074.67 788 982 c 1
 793 936 l 2
 794.333 916.667 794.667 904.333 794 899 c 0
 794 820.822 776.745 776.321 732 745 c 1
 765.333 723.667 795.333 698.333 822 669 c 1
 846.667 638.333 865 600.333 877 555 c 1
 917.442 537.205 954.646 533 988 533 c 0
 1060.67 533 1121.67 580 1171 674 c 1
 1290 937 l 1
 1346 1031.67 1418.67 1079 1508 1079 c 0
 1707.15 1079 1818.12 968.779 1859 794 c 1
 1867 743 l 1
 1867 730.433 1869.4 722.596 1868 703 c 1
 1868 569.307 1778.8 469 1645 469 c 0
 1513 469 1404.37 516.899 1315 600 c 1
 1278.2 510.631 1227.58 412 1113 412 c 0
EndSplineSet
EndChar

StartChar: u093D
Encoding: 2365 2365 87
Width: 998
GlyphClass: 2
Flags: HW
LayerCount: 2
Back
Fore
SplineSet
275 1126 m 0
 275 1193.85 359.381 1224 400 1224 c 2
 766 1224 l 1
 893 1100 l 1
 527 1100 l 2
 483.667 1100 452.333 1092.33 433 1077 c 1
 411 1062.33 400 1041 400 1013 c 1
 404 992 l 1
 418.813 908.059 603.202 799.527 690 701 c 1
 758.667 625 802.667 544.333 822 459 c 0
 828 428.333 831 408.333 831 399 c 1
 832.333 393.667 833 386.333 833 377 c 130
 833 349 l 2
 833 196.956 711.54 115 557 115 c 0
 444.333 115 350.667 148.333 276 215 c 1
 228 259.667 173 357.333 111 508 c 1
 234 385 l 1
 290.451 305.232 371.4 239 463 239 c 0
 607.127 239 709 324.432 709 473 c 0
 709 489.667 707.333 504 704 516 c 0
 693.333 568.667 656.333 622.333 593 677 c 2
 407 839 l 1
 281.3 964.7 275 1061.19 275 1126 c 0
EndSplineSet
EndChar

StartChar: u0903
Encoding: 2307 2307 88
Width: 503
GlyphClass: 2
Flags: HW
LayerCount: 2
Back
Fore
SplineSet
454 768 m 1
 278 591 l 1
 99 771 l 1
 274 946 l 1
 454 768 l 1
456 146 m 1
 280 -31 l 1
 100 149 l 1
 276 324 l 1
 456 146 l 1
623 1100 m 1
 21 1100 l 1
 -99 1223 l 1
 500 1223 l 1
 623 1100 l 1
EndSplineSet
EndChar

StartChar: quoteright
Encoding: 8217 8217 89
Width: 571
GlyphClass: 2
Flags: HW
LayerCount: 2
Back
Fore
SplineSet
331 1588 m 1
 374.186 1562.09 483 1481.2 483 1410 c 0
 483 1346 426.667 1210 314 1002 c 1
 271 1067 l 1
 310.008 1129.06 364 1240.39 364 1298 c 0
 364 1328.04 364.243 1331.22 246 1439 c 1
 331 1588 l 1
EndSplineSet
EndChar

StartChar: parenleft
Encoding: 40 40 90
Width: 770
GlyphClass: 2
Flags: HW
LayerCount: 2
Back
Fore
SplineSet
702 -291 m 1
 630.666666667 -283 566.833333333 -266.166666667 510.5 -240.5 c 128
 454.166666667 -214.833333333 404.5 -181.666666667 361.5 -141 c 128
 318.5 -100.333333333 281.666666667 -53.5 251 -0.5 c 128
 220.333333333 52.5 195.5 110.333333333 176.5 173 c 128
 157.5 235.666666667 143.5 302.166666667 134.5 372.5 c 128
 125.5 442.833333333 121 515.333333333 121 590 c 0
 121 701.333333333 131.166666667 807.5 151.5 908.5 c 128
 171.833333333 1009.5 205 1099.5 251 1178.5 c 128
 297 1257.5 356.833333333 1322.5 430.5 1373.5 c 128
 504.166666667 1424.5 594.666666667 1456 702 1468 c 1
 702 1378 l 1
 630 1366 569.166666667 1339.5 519.5 1298.5 c 128
 469.833333333 1257.5 429.5 1203.5 398.5 1136.5 c 128
 367.5 1069.5 345.166666667 990 331.5 898 c 128
 317.833333333 806 311 703.333333333 311 590 c 0
 311 476 317.833333333 373 331.5 281 c 128
 345.166666667 189 367.5 109.166666667 398.5 41.5 c 128
 429.5 -26.1666666667 469.833333333 -80.5 519.5 -121.5 c 128
 569.166666667 -162.5 630 -189 702 -201 c 1
 702 -291 l 1
EndSplineSet
EndChar

StartChar: parenright
Encoding: 41 41 91
Width: 770
GlyphClass: 2
Flags: HW
LayerCount: 2
Back
Fore
SplineSet
651 590 m 0
 651 515.333333333 646.5 442.833333333 637.5 372.5 c 128
 628.5 302.166666667 614.5 235.666666667 595.5 173 c 128
 576.5 110.333333333 551.666666667 52.5 521 -0.5 c 128
 490.333333333 -53.5 453.5 -100.333333333 410.5 -141 c 128
 367.5 -181.666666667 317.833333333 -214.833333333 261.5 -240.5 c 128
 205.166666667 -266.166666667 141.333333333 -283 70 -291 c 1
 70 -201 l 1
 142 -189 202.833333333 -162.5 252.5 -121.5 c 128
 302.166666667 -80.5 342.166666667 -26.1666666667 372.5 41.5 c 128
 402.833333333 109.166666667 424.833333333 189 438.5 281 c 128
 452.166666667 373 459 476 459 590 c 0
 459 703.333333333 452.166666667 806 438.5 898 c 128
 424.833333333 990 402.833333333 1069.5 372.5 1136.5 c 128
 342.166666667 1203.5 302.166666667 1257.5 252.5 1298.5 c 128
 202.833333333 1339.5 142 1366 70 1378 c 1
 70 1468 l 1
 176.666666667 1456 267 1424.5 341 1373.5 c 128
 415 1322.5 475 1257.5 521 1178.5 c 128
 567 1099.5 600.166666667 1009.5 620.5 908.5 c 128
 640.833333333 807.5 651 701.333333333 651 590 c 0
EndSplineSet
EndChar

StartChar: u0964
Encoding: 2404 2404 92
Width: 637
GlyphClass: 2
Flags: HW
LayerCount: 2
Back
Fore
SplineSet
466 -8 m 1
 325 80 l 1
 324 1256 l 1
 466 1164 l 1
 466 -8 l 1
EndSplineSet
EndChar

StartChar: u0905
Encoding: 2309 2309 112
Width: 1436
GlyphClass: 2
Flags: HW
LayerCount: 2
Back
Fore
SplineSet
1535 1100 m 1
 1022 1100 l 1
 901 1223 l 1
 1411 1223 l 1
 1535 1100 l 1
969 633 m 0
 1103.67 633 1173.56 672.08 1187 700 c 1
 1185 1017 l 1
 1309 1017 l 1
 1308 155 l 1
 1312 125 l 1
 1319.33 93.6667 1336 67.3333 1362 46 c 1
 1390 26 1420.33 16 1453 16 c 1
 1453 2 l 1
 1336.81 2 1221.18 19.8136 1193 129 c 1
 1189 172 l 1
 1190 521 l 1
 1136 509 l 1
 1087 507 l 1
 998.6 507 938.982 528.807 866 558 c 1
 887 497 l 1
 892 460 l 2
 893.5 452.5 892 444.4 892 421 c 0
 892 238.025 714.691 160 594 160 c 0
 355.864 160 208.411 270.528 122 442 c 1
 94 500.667 69.3333 577 48 671 c 1
 168 548 l 1
 202.532 388.852 307.512 284 475 284 c 0
 607.466 284 771 371.341 771 546 c 1
 769 568 l 1
 753.146 647.269 637.402 676.369 632 678 c 1
 557.232 664.997 493.396 655.243 432 588 c 1
 312 711 l 1
 345.333 746.333 424 779.333 548 810 c 1
 633.333 829.333 676 889.667 676 991 c 1
 674.713 1010.31 679.633 1099 522 1099 c 0
 428.939 1099 357.114 1052.28 297 986 c 1
 174 1109 l 1
 234.112 1174.12 308.319 1221 397 1221 c 0
 562.418 1221 798 1147.13 798 854 c 0
 798 838.51 801.938 745.567 739 712 c 1
 775.976 675.024 882.551 633 969 633 c 0
EndSplineSet
EndChar

StartChar: comma
Encoding: 44 44 113
Width: 573
GlyphClass: 2
Flags: HW
LayerCount: 2
Back
Fore
SplineSet
422 20 m 0
 422 -31.3333333333 412.166666667 -78.5 392.5 -121.5 c 128
 372.833333333 -164.5 346.5 -202.166666667 313.5 -234.5 c 128
 280.5 -266.833333333 242.666666667 -292.833333333 200 -312.5 c 128
 157.333333333 -332.166666667 112.666666667 -344 66 -348 c 1
 66 -274 l 1
 102 -266 134.166666667 -255.166666667 162.5 -241.5 c 128
 190.833333333 -227.833333333 214.5 -209.833333333 233.5 -187.5 c 128
 252.5 -165.166666667 267 -137.666666667 277 -105 c 128
 287 -72.3333333333 291.666666667 -32.6666666667 291 14 c 1
 162 14 l 1
 160.666666667 15.3333333333 158 18.5 154 23.5 c 128
 150 28.5 145.833333333 35 141.5 43 c 128
 137.166666667 51 133.333333333 60.5 130 71.5 c 128
 126.666666667 82.5 125 95 125 109 c 0
 125 127 128.166666667 144.333333333 134.5 161 c 128
 140.833333333 177.666666667 149.666666667 192.666666667 161 206 c 128
 172.333333333 219.333333333 185.666666667 230 201 238 c 128
 216.333333333 246 233.333333333 250 252 250 c 0
 281.333333333 250 306.666666667 244.166666667 328 232.5 c 128
 349.333333333 220.833333333 367 204.833333333 381 184.5 c 128
 395 164.166666667 405.333333333 139.833333333 412 111.5 c 128
 418.666666667 83.1666666667 422 52.6666666667 422 20 c 0
EndSplineSet
EndChar

StartChar: hyphen
Encoding: 45 45 114
Width: 655
GlyphClass: 2
Flags: HW
LayerCount: 2
Back
Fore
SplineSet
90 416 m 1
 90 569 l 1
 565 569 l 1
 565 416 l 1
 90 416 l 1
EndSplineSet
EndChar

StartChar: period
Encoding: 46 46 115
Width: 573
GlyphClass: 2
Flags: HW
LayerCount: 2
Back
Fore
SplineSet
401 113 m 0
 401 93.6666666667 397.333333333 75.6666666667 390 59 c 128
 382.666666667 42.3333333333 372.666666667 27.8333333333 360 15.5 c 128
 347.333333333 3.16666666667 332.5 -6.66666666667 315.5 -14 c 128
 298.5 -21.3333333333 280.666666667 -25 262 -25 c 0
 242.666666667 -25 224.833333333 -21.3333333333 208.5 -14 c 128
 192.166666667 -6.66666666667 177.666666667 3.16666666667 165 15.5 c 128
 152.333333333 27.8333333333 142.5 42.3333333333 135.5 59 c 128
 128.5 75.6666666667 125 93.6666666667 125 113 c 0
 125 131.666666667 128.5 149.333333333 135.5 166 c 128
 142.5 182.666666667 152.333333333 197.166666667 165 209.5 c 128
 177.666666667 221.833333333 192.166666667 231.666666667 208.5 239 c 128
 224.833333333 246.333333333 242.666666667 250 262 250 c 0
 280.666666667 250 298.5 246.333333333 315.5 239 c 128
 332.5 231.666666667 347.333333333 221.833333333 360 209.5 c 128
 372.666666667 197.166666667 382.666666667 182.666666667 390 166 c 128
 397.333333333 149.333333333 401 131.666666667 401 113 c 0
EndSplineSet
EndChar

StartChar: slash
Encoding: 47 47 116
Width: 1004
GlyphClass: 2
Flags: HW
LayerCount: 2
Back
Fore
SplineSet
131 -190 m 1
 0 -190 l 1
 872 1374 l 1
 1004 1374 l 1
 131 -190 l 1
EndSplineSet
EndChar

StartChar: u0966
Encoding: 2406 2406 117
Width: 1047
GlyphClass: 2
Flags: HW
LayerCount: 2
Back
Fore
SplineSet
593 826 m 0
 431.016 826 292 699.059 292 523 c 1
 296 479 l 1
 304 439 323.667 406 355 380 c 1
 386.333 356 423.667 344 467 344 c 0
 634.332 344 771 477.388 771 647 c 1
 767 683 l 1
 751.338 762.616 676.116 826 593 826 c 0
166 648 m 0
 166 822.782 307.413 951.638 467 949 c 1
 727.546 949 895 746.58 895 524 c 0
 895 352.581 759.034 222 591 222 c 0
 347.648 222 166 389.744 166 648 c 0
EndSplineSet
EndChar

StartChar: u0967
Encoding: 2407 2407 118
Width: 1047
GlyphClass: 2
Flags: HW
LayerCount: 2
Back
Fore
SplineSet
533 1096 m 0
 464.45 1096 343 1045.81 343 897 c 1
 345 872 l 1
 358.028 805.41 427.49 755.318 518 733 c 1
 621.826 869.613 639 958.6 639 1015 c 0
 638.621 1022.2 645.494 1096 533 1096 c 0
687 -104 m 1
 721.407 -71.5595 748 -43.4182 748 10 c 0
 748 26.2 749.771 44.5037 723 91 c 1
 287 471 l 1
 319 499 l 1
 400.497 573.706 432.242 615.586 454 649 c 1
 421 661 l 1
 384.993 678.221 384.341 679.049 364 696 c 1
 330 720.667 303 746.333 283 773 c 0
 227.595 850.568 223 940.873 223 1023 c 0
 223 1139.81 309.511 1215 410 1215 c 0
 494.667 1215 568 1195 630 1155 c 0
 698.667 1109.67 741.333 1047.33 758 968 c 1
 765 931 l 1
 765 888 l 2
 765 722.6 602.93 545.972 530 474.5 c 130
 472 418 l 1
 849 73 l 1
 901.982 14.5843 902 -27.6769 902 -50 c 0
 902 -78.6667 893.667 -109 877 -141 c 0
 864.333 -167 842.333 -195.667 811 -227 c 1
 687 -104 l 1
EndSplineSet
EndChar

StartChar: u0968
Encoding: 2408 2408 119
Width: 1047
GlyphClass: 2
Flags: HW
LayerCount: 2
Back
Fore
SplineSet
910 776 m 0
 910 551.492 720.334 424 584 424 c 1
 929 -205 l 1
 785 -95 l 1
 431 547 l 1
 602.484 547 786 672.483 786 900 c 1
 785 930 l 1
 780 963 l 1
 761.333 1049.67 698.333 1093 591 1093 c 0
 541.667 1093 497 1087 457 1075 c 1
 284 1017 l 1
 161 1140 l 1
 338 1198 l 2
 350.888 1201.22 417.2 1216 470 1216 c 0
 701 1216 910 1128 910 776 c 0
EndSplineSet
EndChar

StartChar: u0969
Encoding: 2409 2409 120
Width: 1047
GlyphClass: 2
Flags: HW
LayerCount: 2
Back
Fore
SplineSet
715 727 m 1
 824.745 687.805 915.354 563.149 904 390 c 1
 904 301.333 851 236.667 745 196 c 0
 715.667 185.333 663.333 175 588 165 c 1
 858 -220 l 1
 696 -122 l 1
 432 274 l 1
 453.427 274 780 304.672 780 513 c 1
 778 542 l 1
 758.115 626.844 667.383 690 572 690 c 1
 545.333 716 522.333 744.667 503 776 c 1
 484 812 l 1
 529.333 812 572.333 829.667 613 865 c 1
 663 906.333 688 961.333 688 1030 c 1
 684.971 1058.78 652.56 1087.9 605 1094 c 1
 230 1094 l 1
 106 1217 l 1
 481 1217 l 2
 732.456 1217 785.53 1088.95 804 1001 c 0
 808.667 982.333 810.667 969.333 810 962 c 1
 812.667 954 814 936 814 908 c 0
 814 787.239 762.692 762.094 715 727 c 1
EndSplineSet
EndChar

StartChar: u096A
Encoding: 2410 2410 121
Width: 1047
GlyphClass: 2
Flags: HW
LayerCount: 2
Back
Fore
SplineSet
569 237 m 0
 760.289 237 825 310.2 825 420 c 0
 825 435.333 806 464.667 768 508 c 0
 740 538.667 692.333 584.333 625 645 c 1
 537.992 547.238 438 424.692 438 350 c 1
 440 327 l 1
 449.17 282.296 491.6 237 569 237 c 0
311 439 m 0
 311 502.6 363.753 592.934 501 757 c 1
 332 897 l 1
 101 1085 l 1
 43 1229 l 1
 43 1223.67 70.3333 1200 125 1158 c 2
 318 1009 l 1
 556 815 l 1
 608.667 872.333 665.667 930.667 727 990 c 2
 878 1135 l 1
 929 1187 l 2
 943 1202.33 952.333 1213 957 1219 c 1
 1077 1096 l 1
 1069 1082 1042.67 1053.67 998 1011 c 2
 851 871 l 2
 781 805.667 723.333 749.333 678 702 c 1
 716 668 749.333 635.667 778 605 c 0
 844.689 536.459 928.196 434.778 946 360 c 1
 948 338 l 1
 948 224.118 862.059 112 690 112 c 0
 388.333 112 311 288.362 311 439 c 0
EndSplineSet
EndChar

StartChar: u096B
Encoding: 2411 2411 122
Width: 1047
GlyphClass: 2
Flags: HW
LayerCount: 2
Back
Fore
SplineSet
371 457 m 0
 517.013 457 582.315 515.315 608 541 c 1
 745 424 l 1
 1031 -194 l 1
 893 -82 l 1
 682 381 l 1
 647.981 360.589 564.433 334 493 334 c 0
 389.667 334 310.667 346 256 370 c 0
 166.667 408 109.667 482.333 85 593 c 1
 77 633.667 73 676.333 73 721 c 1
 165 1229 l 1
 289 1106 l 1
 193 598 l 1
 195 570 l 1
 202.333 536.667 221.667 509 253 487 c 1
 282.129 468.463 323.179 457 371 457 c 0
EndSplineSet
EndChar

StartChar: u096C
Encoding: 2412 2412 123
Width: 1047
GlyphClass: 2
Flags: HW
LayerCount: 2
Back
Fore
SplineSet
547 1102 m 0
 318.425 1102 243 1030 243 922 c 1
 245 896 l 1
 250.333 868.667 267.667 844 297 822 c 1
 368 783 l 1
 492 660 l 1
 368 611 l 1
 321.333 580.333 298 528.333 298 455 c 1
 299 439 l 1
 306.047 400.242 321.625 353.35 420 314 c 0
 476 292.667 535.667 282 599 282 c 0
 632.333 282 654.333 285.667 665 293 c 1
 817 184 l 1
 831 152.667 871 85.3333 937 -18 c 2
 1036 -175 l 1
 894 -98 l 1
 743 160 l 1
 678 156 l 1
 487.528 156 173 242.8 173 590 c 0
 173 684.2 258.634 727.936 296 747 c 1
 174.907 773.91 121 950.206 121 1003 c 0
 120.333 1005.67 120 1011 120 1019 c 2
 120 1045 l 2
 120 1183.51 256.972 1226 423 1226 c 0
 477.667 1226 534.667 1221.33 594 1212 c 1
 671 1198 l 1
 794 1075 l 1
 719 1089 l 1
 671.943 1095.03 598.163 1102 547 1102 c 0
EndSplineSet
EndChar

StartChar: u096D
Encoding: 2413 2413 124
Width: 1047
GlyphClass: 2
Flags: HW
LayerCount: 2
Back
Fore
SplineSet
733 999 m 0
 678.551 999 575 957.958 575 850 c 0
 575 812.935 587.463 763.537 630 721 c 1
 658.667 695 689.333 682 722 682 c 1
 866.879 697.25 882.168 812.324 887 854 c 1
 871.731 912.212 825.4 999 733 999 c 0
1028 641 m 0
 1028 381.173 921.697 140 645 140 c 0
 324.935 140 230.509 381.354 150 574 c 1
 128 634.667 110.667 686.333 98 729 c 1
 62 874 l 1
 50.5 938.5 l 130
 37.9436 1009.21 8.4088 1222.96 -7 1293 c 1
 113 1170 l 1
 127.352 1096.19 137.017 1041.01 144 977 c 1
 173 790 l 1
 185.692 725.131 194.839 691.139 215 632 c 1
 230.333 582 254.333 524 287 458 c 1
 311 406.667 341 364.333 377 331 c 1
 422.333 285.667 472 263 526 263 c 0
 734.39 263 901.08 423.161 893 609 c 1
 860.073 590.968 812.632 568 749 568 c 0
 683 568 621.333 598.667 564 660 c 1
 482.696 755.278 482.4 823.2 473 842 c 1
 468 872 l 1
 462 898.667 459 925 459 951 c 0
 459 1093.4 583.798 1129 659 1129 c 0
 883.231 1129 1028 822.379 1028 641 c 0
EndSplineSet
EndChar

StartChar: u096E
Encoding: 2414 2414 125
Width: 1047
GlyphClass: 2
Flags: HW
LayerCount: 2
Back
Fore
SplineSet
229 321 m 0
 229 225.6 315.335 162 429 162 c 0
 507 162 580 180.667 648 218 c 1
 696 242.667 744.667 280.333 794 331 c 1
 872 420 l 1
 998 298 l 1
 919 210 l 1
 872.333 162.667 824 124.667 774 96 c 1
 702.667 58 629 39 553 39 c 0
 253.38 39 101 234.266 101 408 c 0
 101 434 105 460.667 113 488 c 1
 146.333 521.333 219.667 606.333 333 743 c 1
 737 1246 l 1
 860 1123 l 1
 456 621 l 2
 348.667 489 274.667 403.667 234 365 c 1
 230.667 351 229 336.333 229 321 c 0
EndSplineSet
EndChar

StartChar: u096F
Encoding: 2415 2415 126
Width: 1047
GlyphClass: 2
Flags: HW
LayerCount: 2
Back
Fore
SplineSet
661 953 m 0
 661 1080.2 565.129 1112 489 1112 c 0
 425 1112 368 1088.33 318 1041 c 1
 271.333 993 248 937 248 873 c 1
 252 837 l 1
 266 799 l 1
 377.447 760.236 441.666 761 461 761 c 0
 523.117 761 542.455 772.283 557 783 c 1
 597 806.333 626.333 837.333 645 876 c 1
 655.667 902.667 661 928.333 661 953 c 0
766 914 m 1
 766 691.973 645.43 653.054 557 642 c 1
 528 642 l 2
 492 642 457 646.667 423 656 c 1
 391.667 666 359.667 678.333 327 693 c 1
 377.589 620.416 403.913 617.295 601 422 c 2
 791 233 l 1
 872 149 l 1
 900.667 122.333 918 92.3333 924 59 c 0
 926.667 48.3333 928 37 928 25 c 0
 928 -52.2 874.553 -123.447 830 -168 c 1
 710 -42 l 1
 748.16 -3.8402 769 25.2 769 70 c 0
 769 104.45 751.472 133.544 741 150 c 1
 335 543 l 1
 181 688 l 1
 159.667 714.667 142.667 754 130 806 c 1
 124 835.333 121 865.667 121 897 c 0
 121 1137.47 309.886 1244 427 1244 c 0
 582.177 1244 732.061 1119.78 760 975 c 2
 764 954 l 1
 766 914 l 1
EndSplineSet
EndChar

StartChar: colon
Encoding: 58 58 127
Width: 573
GlyphClass: 2
Flags: HW
LayerCount: 2
Back
Fore
SplineSet
401 113 m 0
 401 93.6666666667 397.333333333 75.6666666667 390 59 c 128
 382.666666667 42.3333333333 372.666666667 27.8333333333 360 15.5 c 128
 347.333333333 3.16666666667 332.5 -6.66666666667 315.5 -14 c 128
 298.5 -21.3333333333 280.666666667 -25 262 -25 c 0
 242.666666667 -25 224.833333333 -21.3333333333 208.5 -14 c 128
 192.166666667 -6.66666666667 177.666666667 3.16666666667 165 15.5 c 128
 152.333333333 27.8333333333 142.5 42.3333333333 135.5 59 c 128
 128.5 75.6666666667 125 93.6666666667 125 113 c 0
 125 131.666666667 128.5 149.333333333 135.5 166 c 128
 142.5 182.666666667 152.333333333 197.166666667 165 209.5 c 128
 177.666666667 221.833333333 192.166666667 231.666666667 208.5 239 c 128
 224.833333333 246.333333333 242.666666667 250 262 250 c 0
 280.666666667 250 298.5 246.333333333 315.5 239 c 128
 332.5 231.666666667 347.333333333 221.833333333 360 209.5 c 128
 372.666666667 197.166666667 382.666666667 182.666666667 390 166 c 128
 397.333333333 149.333333333 401 131.666666667 401 113 c 0
401 874 m 256
 401 855.333333333 397.333333333 837.666666667 390 821 c 128
 382.666666667 804.333333333 372.666666667 789.833333333 360 777.5 c 128
 347.333333333 765.166666667 332.5 755.333333333 315.5 748 c 128
 298.5 740.666666667 280.666666667 737 262 737 c 0
 242.666666667 737 224.833333333 740.666666667 208.5 748 c 128
 192.166666667 755.333333333 177.666666667 765.166666667 165 777.5 c 128
 152.333333333 789.833333333 142.5 804.333333333 135.5 821 c 128
 128.5 837.666666667 125 855.333333333 125 874 c 256
 125 892.666666667 128.5 910.5 135.5 927.5 c 128
 142.5 944.5 152.333333333 959.166666667 165 971.5 c 128
 177.666666667 983.833333333 192.166666667 993.666666667 208.5 1001 c 128
 224.833333333 1008.33333333 242.666666667 1012 262 1012 c 0
 280.666666667 1012 298.5 1008.33333333 315.5 1001 c 128
 332.5 993.666666667 347.333333333 983.833333333 360 971.5 c 128
 372.666666667 959.166666667 382.666666667 944.5 390 927.5 c 128
 397.333333333 910.5 401 892.666666667 401 874 c 256
EndSplineSet
EndChar

StartChar: semicolon
Encoding: 59 59 128
Width: 573
GlyphClass: 2
Flags: HW
LayerCount: 2
Back
Fore
SplineSet
422 20 m 0
 422 -31.3333333333 412.166666667 -78.5 392.5 -121.5 c 128
 372.833333333 -164.5 346.5 -202.166666667 313.5 -234.5 c 128
 280.5 -266.833333333 242.666666667 -292.833333333 200 -312.5 c 128
 157.333333333 -332.166666667 112.666666667 -344 66 -348 c 1
 66 -274 l 1
 102 -266 134.166666667 -255.166666667 162.5 -241.5 c 128
 190.833333333 -227.833333333 214.5 -209.833333333 233.5 -187.5 c 128
 252.5 -165.166666667 267 -137.666666667 277 -105 c 128
 287 -72.3333333333 291.666666667 -32.6666666667 291 14 c 1
 162 14 l 1
 160.666666667 15.3333333333 158 18.5 154 23.5 c 128
 150 28.5 145.833333333 35 141.5 43 c 128
 137.166666667 51 133.333333333 60.5 130 71.5 c 128
 126.666666667 82.5 125 95 125 109 c 0
 125 127 128.166666667 144.333333333 134.5 161 c 128
 140.833333333 177.666666667 149.666666667 192.666666667 161 206 c 128
 172.333333333 219.333333333 185.666666667 230 201 238 c 128
 216.333333333 246 233.333333333 250 252 250 c 0
 281.333333333 250 306.666666667 244.166666667 328 232.5 c 128
 349.333333333 220.833333333 367 204.833333333 381 184.5 c 128
 395 164.166666667 405.333333333 139.833333333 412 111.5 c 128
 418.666666667 83.1666666667 422 52.6666666667 422 20 c 0
399 874 m 256
 399 855.333333333 395.5 837.666666667 388.5 821 c 128
 381.5 804.333333333 371.666666667 789.833333333 359 777.5 c 128
 346.333333333 765.166666667 331.666666667 755.333333333 315 748 c 128
 298.333333333 740.666666667 280.666666667 737 262 737 c 0
 242.666666667 737 224.833333333 740.666666667 208.5 748 c 128
 192.166666667 755.333333333 177.666666667 765.166666667 165 777.5 c 128
 152.333333333 789.833333333 142.5 804.333333333 135.5 821 c 128
 128.5 837.666666667 125 855.333333333 125 874 c 256
 125 892.666666667 128.666666667 910.5 136 927.5 c 128
 143.333333333 944.5 153.333333333 959.166666667 166 971.5 c 128
 178.666666667 983.833333333 193.333333333 993.666666667 210 1001 c 128
 226.666666667 1008.33333333 244.666666667 1012 264 1012 c 0
 282.666666667 1012 300.333333333 1008.33333333 317 1001 c 128
 333.666666667 993.666666667 348 983.833333333 360 971.5 c 128
 372 959.166666667 381.5 944.5 388.5 927.5 c 128
 395.5 910.5 399 892.666666667 399 874 c 256
EndSplineSet
EndChar

StartChar: u0907
Encoding: 2311 2311 130
Width: 820
GlyphClass: 2
Flags: HW
LayerCount: 2
Back
Fore
SplineSet
912 1100 m 1
 21 1100 l 1
 -99 1223 l 1
 789 1223 l 1
 912 1100 l 1
544 637 m 0
 629.475 637 797 551.622 797 365 c 2
 797 329 l 1
 789.046 297.185 785.473 211.203 652 154 c 0
 588 126 515 112 433 112 c 1
 686 -188 l 1
 546 -160 l 1
 328 107 l 1
 269.106 115.725 149 168.557 149 271 c 0
 149 276.333 149.667 285.333 151 298 c 1
 155.667 316.667 165.667 336 181 356 c 1
 201 361.333 225.333 353 254 331 c 0
 289.333 302.333 316.667 270.333 336 235 c 1
 416 235 482 248 534 274 c 0
 645.384 327.933 672.658 439.764 669 480 c 1
 666.333 495.333 654.333 503 633 503 c 0
 585.827 503 462.63 454 423 454 c 0
 184.6 454 125 635.191 125 749 c 0
 125 797.542 149.4 935 247 935 c 2
 571 935 l 1
 569 1012 l 1
 692 1012 l 1
 696 812 l 1
 372 812 l 2
 296.311 812 254 734.055 254 663 c 0
 254 630.202 262.285 578 299 578 c 0
 403.125 578 440.641 637 544 637 c 0
EndSplineSet
EndChar

StartChar: u0909
Encoding: 2313 2313 131
Width: 1058
GlyphClass: 2
Flags: HW
LayerCount: 2
Back
Fore
SplineSet
21 1100 m 1
 -99 1223 l 1
 1047 1223 l 1
 1171 1100 l 1
 21 1100 l 1
875 865 m 0
 875 766.302 836.662 726.689 814 711 c 1
 980.475 604.8 971 444.648 971 421 c 0
 971 246.159 799.208 160 672 160 c 0
 550.667 160 448.667 188 366 244 c 0
 300.667 287.333 244.667 353.333 198 442 c 1
 167.333 506.667 142.333 582.667 123 670 c 1
 243 547 l 1
 277.532 387.852 382.512 283 550 283 c 0
 685.025 283 846 372.769 846 545 c 1
 844 567 l 1
 838.667 593.667 820.667 618 790 640 c 1
 766.667 655.333 738 667.667 704 677 c 1
 643.964 666.559 574.611 659.491 510 587 c 1
 389 710 l 1
 422.333 745.333 501 778.333 625 809 c 1
 710.333 828.333 753 888.667 753 990 c 2
 753 1002 l 1
 750.333 1010 749 1014.67 749 1016 c 1
 841 1016 l 1
 867.88 962.24 875 909.405 875 865 c 0
EndSplineSet
EndChar

StartChar: u090A
Encoding: 2314 2314 132
Width: 831
GlyphClass: 2
Flags: HW
LayerCount: 2
Back
Fore
SplineSet
21 1100 m 1
 -99 1223 l 1
 1392 1223 l 1
 1515 1100 l 1
 21 1100 l 1
706 684 m 1
 645.964 673.559 576.611 666.491 512 594 c 1
 391 717 l 1
 424.333 752.333 503 785.333 627 816 c 1
 712.333 835.333 755 895.667 755 997 c 2
 755 1009 l 1
 752.333 1017 751 1021.67 751 1023 c 1
 848 1018 l 1
 869 951 l 1
 874.569 924.548 878 899.7 878 867 c 0
 878 767.163 839.418 728.796 817 715 c 1
 872 673 l 1
 962.729 763.729 1067.93 764 1085 764 c 0
 1222.66 764 1377 707.8 1377 483 c 0
 1377 403.4 1345.49 238.992 1230 85 c 1
 1107 208 l 1
 1198.06 312.064 1274 479.805 1274 569 c 0
 1274 582.625 1277.28 642 1206 642 c 0
 1081.49 642 989.546 562.91 962 517 c 1
 969 496 l 1
 970.702 475.575 974 470.524 974 445 c 0
 974 437 973.667 431.333 973 428 c 0
 973 253.159 801.208 167 674 167 c 0
 552.667 167 450.667 195 368 251 c 0
 302.667 294.333 246.667 360.333 200 449 c 1
 169.333 513.667 144.333 589.667 125 677 c 1
 245 554 l 1
 279.532 394.852 384.512 290 552 290 c 0
 687.025 290 848 379.769 848 552 c 1
 846 574 l 1
 840.667 600.667 822.667 625 792 647 c 1
 768.667 662.333 740 674.667 706 684 c 1
EndSplineSet
EndChar

StartChar: question
Encoding: 63 63 133
Width: 995
Flags: HW
LayerCount: 2
Back
Fore
SplineSet
854 1040 m 0
 854 996.666666667 848 957.166666667 836 921.5 c 128
 824 885.833333333 808 853.5 788 824.5 c 128
 768 795.5 744.833333333 769.5 718.5 746.5 c 128
 692.166666667 723.5 664.666666667 702.833333333 636 684.5 c 128
 607.333333333 666.166666667 578.166666667 649.666666667 548.5 635 c 128
 518.833333333 620.333333333 491 607.333333333 465 596 c 1
 465 369 l 1
 350 369 l 1
 350 666 l 1
 382 676.666666667 415.5 691.833333333 450.5 711.5 c 128
 485.5 731.166666667 517.5 755.666666667 546.5 785 c 128
 575.5 814.333333333 599.5 848.833333333 618.5 888.5 c 128
 637.5 928.166666667 647 973.333333333 647 1024 c 0
 647 1119.33333333 621.666666667 1190.33333333 571 1237 c 128
 520.333333333 1283.66666667 448 1307 354 1307 c 1
 270 1098 l 1
 264 1097.33333333 258.666666667 1097 254 1097 c 1
 250 1096.33333333 246.333333333 1096 243 1096 c 2
 236 1096 l 2
 217.333333333 1096 199.833333333 1098 183.5 1102 c 128
 167.166666667 1106 153 1112.5 141 1121.5 c 128
 129 1130.5 119.5 1142 112.5 1156 c 128
 105.5 1170 102 1186.66666667 102 1206 c 0
 102 1230 108.5 1254 121.5 1278 c 128
 134.5 1302 154.5 1323.5 181.5 1342.5 c 128
 208.5 1361.5 242.333333333 1377 283 1389 c 128
 323.666666667 1401 372 1407 428 1407 c 0
 488.666666667 1407 545 1398.33333333 597 1381 c 128
 649 1363.66666667 694 1339.16666667 732 1307.5 c 128
 770 1275.83333333 799.833333333 1237.33333333 821.5 1192 c 128
 843.166666667 1146.66666667 854 1096 854 1040 c 0
537 100 m 256
 537 82.6666666667 533.666666667 66.5 527 51.5 c 128
 520.333333333 36.5 511.166666667 23.3333333333 499.5 12 c 128
 487.833333333 0.666666666667 474.333333333 -8.33333333333 459 -15 c 128
 443.666666667 -21.6666666667 427.333333333 -25 410 -25 c 256
 392.666666667 -25 376.333333333 -21.6666666667 361 -15 c 128
 345.666666667 -8.33333333333 332.333333333 0.833333333333 321 12.5 c 128
 309.666666667 24.1666666667 300.833333333 37.6666666667 294.5 53 c 128
 288.166666667 68.3333333333 285 84.6666666667 285 102 c 256
 285 119.333333333 288.166666667 135.666666667 294.5 151 c 128
 300.833333333 166.333333333 309.666666667 179.666666667 321 191 c 128
 332.333333333 202.333333333 345.666666667 211.166666667 361 217.5 c 128
 376.333333333 223.833333333 392.666666667 227 410 227 c 0
 428 227 444.666666667 223.666666667 460 217 c 128
 475.333333333 210.333333333 488.666666667 201.166666667 500 189.5 c 128
 511.333333333 177.833333333 520.333333333 164.333333333 527 149 c 128
 533.666666667 133.666666667 537 117.333333333 537 100 c 256
EndSplineSet
EndChar

StartChar: u090B
Encoding: 2315 2315 134
Width: 1034
GlyphClass: 2
Flags: HW
LayerCount: 2
Back
Fore
SplineSet
1790 1100 m 1
 15 1100 l 1
 -105 1223 l 1
 1666 1223 l 1
 1790 1100 l 1
1052 3 m 1
 818.678 3 802.98 84.0789 788 144 c 1
 788 470 l 1
 388 167 l 1
 300 255 l 1
 778 619 l 1
 650 721 l 1
 602.667 752.333 556.667 768 512 768 c 0
 460 768 412.667 762 370 750 c 1
 267 717 l 1
 143 840 l 1
 248 872 l 1
 297.333 884.667 345.333 891 392 891 c 0
 455.735 891 506.304 874.869 550 856 c 1
 784 714 l 1
 782 1017 l 1
 905 1017 l 1
 907 656 l 1
 939 648 l 1
 975 646 l 1
 1081.8 646 1186.43 743.43 1242 799 c 1
 1363 676 l 1
 1473 373 l 1
 1464.45 373 1212 329.788 1212 110 c 0
 1212 83.3333 1234.33 66 1279 58 c 1
 1342 54 l 1
 1397.81 54 1479.02 83.0157 1527 115 c 1
 1650 -5 l 1
 1590 -35 l 1
 1531.35 -60.1358 1489.2 -66 1464 -66 c 0
 1331.73 -66 1087 -10.2 1087 213 c 0
 1087 415.067 1338.14 495.238 1354 497 c 1
 1311 622 l 1
 1210.53 537.395 1143.8 524 1102 524 c 0
 1028.67 524 964.667 534 910 554 c 1
 909 157 l 1
 911 125 l 1
 918.333 92.3333 934.333 66 959 46 c 1
 985.667 26.6667 1016.67 17 1052 17 c 1
 1052 3 l 1
EndSplineSet
EndChar

StartChar: u0960
Encoding: 2400 2400 135
Width: 1034
GlyphClass: 2
Flags: HW
LayerCount: 2
Back
Fore
SplineSet
1793 1100 m 1
 18 1100 l 1
 -102 1223 l 1
 1669 1223 l 1
 1793 1100 l 1
1340 -151 m 0
 1369.4 -151 1423.92 -133.289 1487 -89 c 1
 1583 -184 l 1
 1557.7 -223.525 1477.69 -246 1418 -246 c 0
 1194 -246 1156 -34.0617 1156 -5 c 0
 1156 35.1682 1201.02 102.66 1259 136 c 1
 1228.74 148.268 1127 219.159 1127 334 c 0
 1127 435.051 1248.69 514.274 1353 529 c 1
 1317 671 l 1
 1247 620 l 1
 1180.33 572.667 1128 549 1090 549 c 2
 1031 549 l 1
 974.388 558.846 972.389 552.381 918 569 c 1
 917 148 l 1
 919 116 l 1
 926.333 83.3333 942.333 57 967 37 c 1
 993.667 17.6667 1024.67 8 1060 8 c 1
 1060 -6 l 1
 826.678 -6 810.98 75.0789 796 135 c 1
 796 163 l 1
 795 464 l 1
 394 158 l 1
 306 246 l 1
 794 615 l 1
 795 622 l 1
 660 714 l 1
 613.333 743.333 567 758 521 758 c 0
 469 758 421.667 752 379 740 c 1
 276 707 l 1
 152 830 l 1
 257 862 l 1
 306.333 874.667 354.333 881 401 881 c 0
 467 881 537 863.333 611 828 c 1
 798 726 l 1
 796 1007 l 1
 919 1007 l 1
 921 671 l 1
 942.333 665.667 965 663 989 663 c 0
 1097.58 663 1193.77 771.759 1258 845 c 1
 1379 722 l 1
 1467 408 l 1
 1343.1 376.172 1267 306 1267 238 c 0
 1267 197.762 1287.4 182 1318 182 c 0
 1334 182 1334.52 182.821 1358 189 c 2
 1394 200 l 1
 1500 79 l 1
 1372.7 58.6312 1289 -34.2293 1289 -99 c 0
 1289 -118.167 1291.81 -151 1340 -151 c 0
EndSplineSet
EndChar

StartChar: u090F
Encoding: 2319 2319 139
Width: 1023
GlyphClass: 2
Flags: HW
LayerCount: 2
Back
Fore
SplineSet
1120 1100 m 1
 27 1100 l 1
 -93 1223 l 1
 996 1223 l 1
 1120 1100 l 1
1112 -213 m 2
 1061 -287 l 1
 937 -164 l 1
 959 -134 l 1
 978 -105 l 2
 980.667 -100.333 982 -91.6667 982 -79 c 1
 974.667 -49.6667 911 0.333333 791 71 c 1
 605.667 177 492.333 245.667 451 277 c 1
 327 366.333 255.667 451.333 237 532 c 1
 233 574 l 1
 231 1012 l 1
 355 1012 l 1
 357 517 l 1
 359.498 472.039 381.597 419.162 564 303 c 1
 919 89 l 1
 1046.33 6.33333 1117 -66 1131 -128 c 1
 1132.33 -138.667 1133 -145.667 1133 -149 c 0
 1133 -171 1126 -192.333 1112 -213 c 2
657 505 m 0
 708.6 505 743 537.975 743 643 c 2
 741 1018 l 1
 864 1018 l 1
 863 519 l 2
 863 427.403 821.4 401 759 401 c 1
 705 405 l 1
 647 416 l 1
 524 539 l 1
 592 517 l 2
 618.667 509 640.333 505 657 505 c 0
EndSplineSet
EndChar

StartChar: u0915.half
Encoding: 65551 -1 140
Width: 1040
GlyphClass: 3
Flags: HW
AnchorPoint: "N" 185 165 basechar 0
LayerCount: 2
Back
Fore
SplineSet
1577 1100 m 1
 26 1100 l 1
 -94 1223 l 1
 1454 1223 l 1
 1577 1100 l 1
859 735 m 1
 864.199 738.899 952 805 1014 805 c 1
 1137 682 l 1
 1098.33 682 1043.67 656.333 973 605 c 1
 859 517 l 1
 859 141 l 1
 861 113 l 1
 868.333 82.3333 884.333 58.3333 909 41 c 1
 935.667 24.3333 966 16 1000 16 c 1
 1000 2 l 1
 808.214 2 757.977 56.0941 740 128 c 1
 738 171 l 1
 739 424 l 1
 607.431 337.658 522.686 333 485 333 c 0
 248.734 333 131 477.904 131 684 c 0
 131 824.759 231.05 903 361 903 c 0
 397 903 432.667 900 468 894 c 1
 506 888.667 535 882 555 874 c 1
 679 751 l 1
 583 770 l 1
 536.333 777.333 503.333 781 484 781 c 0
 329.331 781 252 674.422 252 561 c 2
 252 545 l 1
 257.01 514.94 268.886 458 362 458 c 256
 436.8 458 558.322 486.709 736 640 c 1
 735 1018 l 1
 858 1018 l 1
 858 972.491 858.751 925.202 860 879 c 1
 859 735 l 1
EndSplineSet
Ligature2: "'half' Half Forms in Devanagari lookup 3 subtable" u0915 u094D
LCarets2: 1 2
EndChar

StartChar: u0958.half
Encoding: 65552 -1 141
Width: 1040
GlyphClass: 3
Flags: HW
LayerCount: 2
Back
Fore
SplineSet
456 106 m 1
 337 -17 l 1
 214 108 l 1
 334 228 l 1
 456 106 l 1
1577 1098 m 1
 26 1098 l 1
 -94 1221 l 1
 1454 1221 l 1
 1577 1098 l 1
363 455 m 256
 438.2 455 553.732 480.697 739 638 c 1
 738 1016 l 1
 861 1016 l 1
 861 970.491 861.751 923.202 863 877 c 1
 862 733 l 1
 867.199 736.899 955 803 1017 803 c 1
 1140 680 l 1
 1101.33 680 1046.67 654.333 976 603 c 1
 862 515 l 1
 862 139 l 1
 864 111 l 1
 871.333 80.3333 887.333 56.3333 912 39 c 1
 938.667 22.3333 969 14 1003 14 c 1
 1003 0 l 1
 811.214 0 760.977 54.0941 743 126 c 1
 741 169 l 1
 740 421 l 1
 608.431 334.658 523.686 330 486 330 c 0
 249.734 330 132 474.904 132 681 c 0
 132 821.759 232.05 900 362 900 c 0
 398 900 433.667 897 469 891 c 1
 507 885.667 536 879 556 871 c 1
 680 748 l 1
 584 767 l 1
 537.333 774.333 504.333 778 485 778 c 0
 330.331 778 253 671.422 253 558 c 2
 253 542 l 1
 258.01 511.941 269.886 455 363 455 c 256
EndSplineSet
Ligature2: "'half' Half Forms in Devanagari lookup 3 subtable" u0958 u094D
EndChar

StartChar: u0915
Encoding: 2325 2325 142
Width: 954
GlyphClass: 2
Flags: HW
AnchorPoint: "N" 104 156 basechar 0
LayerCount: 2
Back
Fore
SplineSet
1577 1100 m 1
 26 1100 l 1
 -94 1223 l 1
 1454 1223 l 1
 1577 1100 l 1
1249 600 m 0
 1231.78 679.649 1162.42 680 1137 680 c 0
 1098.33 680 1043.67 654.333 973 603 c 1
 859 515 l 1
 859 139 l 1
 861 111 l 1
 868.333 80.3333 884.333 56.3333 909 39 c 1
 935.667 22.3333 966 14 1000 14 c 1
 1000 0 l 1
 808.214 0 757.977 54.0941 740 126 c 1
 738 169 l 1
 739 424 l 1
 607.431 337.658 522.686 333 485 333 c 0
 248.734 333 131 477.904 131 684 c 0
 131 824.759 231.05 903 361 903 c 0
 397 903 432.667 900 468 894 c 1
 506 888.667 535 882 555 874 c 1
 679 751 l 1
 583 770 l 1
 536.333 777.333 503.333 781 484 781 c 0
 329.331 781 252 674.422 252 561 c 2
 252 545 l 1
 257.01 514.94 268.886 458 362 458 c 256
 436.8 458 558.322 486.709 736 640 c 1
 735 1018 l 1
 858 1018 l 1
 858 972.491 858.751 925.202 860 879 c 1
 859 735 l 1
 864.199 738.899 952 805 1014 805 c 0
 1218.57 805 1370 691.445 1370 476 c 0
 1370 431.385 1364.31 289.301 1225 112 c 1
 1102 235 l 1
 1165.01 302.144 1251 453.764 1251 568 c 2
 1251 584 l 1
 1249.67 591.333 1249 596.667 1249 600 c 0
EndSplineSet
EndChar

StartChar: u0958
Encoding: 2392 2392 143
Width: 954
GlyphClass: 2
Flags: HW
LayerCount: 2
Back
Fore
SplineSet
456 106 m 1
 337 -17 l 1
 214 108 l 1
 334 228 l 1
 456 106 l 1
1577 1098 m 1
 26 1098 l 1
 -94 1221 l 1
 1454 1221 l 1
 1577 1098 l 1
363 453 m 256
 512.368 453 662.656 570.299 739 638 c 1
 738 1016 l 1
 861 1016 l 1
 861 970.491 861.751 923.202 863 877 c 1
 862 733 l 1
 867.199 736.899 955 803 1017 803 c 0
 1221.57 803 1373 689.445 1373 474 c 0
 1373 429.385 1367.31 287.301 1228 110 c 1
 1105 233 l 1
 1168.01 300.144 1254 451.764 1254 566 c 2
 1254 582 l 1
 1252.67 589.333 1252 594.667 1252 598 c 0
 1234.78 677.649 1165.42 678 1140 678 c 0
 1101.33 678 1046.67 652.333 976 601 c 1
 862 513 l 1
 862 137 l 1
 864 109 l 1
 871.333 78.3333 887.333 54.3333 912 37 c 1
 938.667 20.3333 969 12 1003 12 c 1
 1003 -2 l 1
 811.214 -2 760.977 52.0941 743 124 c 1
 741 167 l 1
 740 419 l 1
 608.431 332.658 523.686 328 486 328 c 0
 249.734 328 132 472.904 132 679 c 0
 132 819.759 232.05 898 362 898 c 0
 398 898 433.667 895 469 889 c 1
 507 883.667 536 877 556 869 c 1
 680 746 l 1
 584 765 l 1
 537.333 772.333 504.333 776 485 776 c 0
 330.331 776 253 669.422 253 556 c 2
 253 540 l 1
 258.01 509.941 269.886 453 363 453 c 256
EndSplineSet
EndChar

StartChar: u0915.vatu
Encoding: 65553 -1 144
Width: 954
GlyphClass: 3
Flags: HW
AnchorPoint: "N" 52 -108 basechar 0
LayerCount: 2
Back
Fore
SplineSet
1577 1100 m 1
 26 1100 l 1
 -94 1223 l 1
 1454 1223 l 1
 1577 1100 l 1
1249 598 m 0
 1231.78 677.649 1162.42 678 1137 678 c 0
 1098.33 678 1043.67 652.333 973 601 c 1
 862 517 l 1
 862 141 l 1
 864 113 l 1
 871.333 82.3333 887.333 58.3333 912 41 c 1
 938.667 24.3333 969 16 1003 16 c 1
 1003 2 l 1
 811.214 2 760.977 56.0941 743 128 c 1
 741 171 l 1
 740 423 l 1
 206 27 l 1
 117 116 l 1
 412 337 l 1
 233.145 359.357 162.345 479.398 140 583 c 1
 131 636 l 1
 131 682 l 2
 131 822.759 231.05 901 361 901 c 0
 397 901 432.667 898 468 892 c 1
 506 886.667 535 880 555 872 c 1
 679 749 l 1
 583 768 l 1
 536.333 775.333 503.333 779 484 779 c 0
 329.331 779 252 672.422 252 559 c 2
 252 543 l 1
 257.01 512.94 268.886 456 362 456 c 256
 436.8 456 558.322 484.709 736 638 c 1
 735 1016 l 1
 858 1016 l 1
 858 970.491 858.751 923.202 860 877 c 1
 859 733 l 1
 864.199 736.899 952 803 1014 803 c 0
 1218.57 803 1370 689.445 1370 474 c 0
 1370 429.385 1364.31 287.301 1225 110 c 1
 1102 233 l 1
 1165.01 300.144 1251 451.764 1251 566 c 2
 1251 582 l 1
 1249.67 589.333 1249 594.667 1249 598 c 0
EndSplineSet
Ligature2: "'vatu' Vattu Variants in Devanagari lookup 4 subtable" u0915 u0930.sub
LCarets2: 1 0
EndChar

StartChar: u0915_u094D_u0924
Encoding: 65554 -1 145
Width: 1086
GlyphClass: 2
Flags: HW
LayerCount: 2
Back
Fore
SplineSet
1698 1100 m 1
 40 1100 l 1
 -81 1223 l 1
 1576 1223 l 1
 1698 1100 l 1
1361 593 m 0
 1361 643.218 1355.06 710 1246 710 c 0
 1207.33 710 1152.67 684.333 1082 633 c 2
 958 544 l 1
 958 155 l 1
 960 123 l 1
 967.333 90.3333 983.333 64 1008 44 c 1
 1034.67 24.6667 1065 15 1099 15 c 1
 1099 1 l 1
 857.502 1 847.58 96.6817 836 143 c 1
 836 707 l 1
 615 707 l 2
 519.417 707 444 619.627 444 454 c 1
 448 415 l 1
 457.333 368.333 483.333 319.333 526 268 c 0
 559.333 229.333 594.667 197 632 171 c 1
 661 48 l 1
 478.228 192.61 323 350.118 323 574 c 0
 323 624.068 330.484 667.844 343 704 c 1
 232 704 l 1
 111 827 l 1
 841 827 l 1
 839 1013 l 1
 962 1013 l 1
 963 756 l 1
 1048 809 l 1
 1074.67 823 1099.67 830 1123 830 c 0
 1394.06 830 1481 650.599 1481 500 c 0
 1481 460.964 1478.03 309.679 1336 138 c 1
 1212 261 l 1
 1280.79 330.878 1361 480.721 1361 593 c 0
EndSplineSet
EndChar

StartChar: u0915_u094D_u0937.half
Encoding: 65556 -1 147
Width: 842
GlyphClass: 3
Flags: HW
AnchorPoint: "N" 124 108 basechar 0
LayerCount: 2
Back
Fore
SplineSet
474 1104 m 0
 383.763 1104 275 1074.4 275 956 c 1
 276.549 932.764 274.125 885.673 410 820 c 1
 491.11 870.068 581 939.091 581 1065 c 1
 576.821 1098.43 501.554 1104 474 1104 c 0
704 962 m 1
 704 873.457 657.913 811.398 606 764 c 1
 680.667 748.667 751.333 741 818 741 c 0
 912 741 979 755.333 1019 784 c 1
 1019 618 l 1
 959 610 l 1
 888 608 l 1
 732 608 618.442 635.768 498 683 c 1
 374.152 603.61 281 547.4 281 457 c 1
 285 428 l 1
 292.333 394.667 311.667 367 343 345 c 1
 376.333 325 413.333 315 454 315 c 0
 504.647 315 541.401 327.55 574 352 c 1
 584 371.333 608.333 396.667 647 428 c 0
 697 470 744.333 491 789 491 c 1
 842.735 442.639 844 383.751 844 372 c 0
 844 315.6 796.408 245.873 695 231 c 1
 924 -116 l 1
 773 -25 l 1
 703 87 l 2
 656.333 161 630.333 198 625 198 c 1
 592.333 188.667 562.667 184 536 184 c 0
 353.458 184 156 343.59 156 587 c 256
 156 661 227.876 706.869 331 772 c 1
 194.439 872.524 166.471 962.512 151 1036 c 1
 150 1079 l 1
 150 1180.16 231.946 1228 349 1228 c 0
 524.409 1228 668.332 1148.91 698 1016 c 1
 703 991 l 1
 704 962 l 1
EndSplineSet
Ligature2: "'half' Half Forms in Devanagari lookup 3 subtable" u0915_u094D_u0937 u094D
LCarets2: 1 0
EndChar

StartChar: u0916.half
Encoding: 65557 -1 149
Width: 1043
GlyphClass: 3
Flags: HW
AnchorPoint: "N" 130 125 basechar 0
LayerCount: 2
Back
Fore
SplineSet
851 513 m 256
 927.6 513 1047.75 540.73 1234 695 c 1
 1233 481 l 1
 1194.33 457 1151 435.333 1103 416 c 1
 1058.33 399.333 1015.67 391 975 391 c 0
 759.082 391 618 511.73 618 740 c 0
 618 867.978 706.616 960 852 960 c 0
 929.2 960 1008.98 943.098 1045 930 c 1
 1168 807 l 1
 1159.75 809.999 1038.64 836 973 836 c 0
 834.058 836 742 747.768 742 617 c 0
 742 587.47 744.138 513 851 513 c 256
748 160 m 0
 958.486 160 1123.47 256.822 1239 365 c 1
 1238 151 l 1
 1184.87 115.933 1125.91 83.3827 1045 58 c 1
 990.333 43.3333 933.333 36 874 36 c 0
 476.134 36 92 463.399 92 646 c 0
 92 681.5 109.525 715 171 715 c 0
 237.408 715 253.388 693.913 300 691 c 1
 358.549 691 388 755.93 388 839 c 0
 388 871.901 381.832 954.586 348 1015 c 1
 418 1015 l 1
 454.5 978.5 500 864.456 500 732 c 2
 500 689 l 1
 491.799 652.096 484.842 568 421 568 c 0
 393.1 568 365.2 587 328 587 c 0
 300 587 286 573.667 286 547 c 0
 286 437.296 537.013 160 748 160 c 0
1240 1101 m 1
 39 1101 l 1
 -82 1224 l 1
 1116 1224 l 1
 1240 1101 l 1
EndSplineSet
Ligature2: "'half' Half Forms in Devanagari lookup 3 subtable" u0916 u094D
LCarets2: 1 0
EndChar

StartChar: u0959.half
Encoding: 65558 -1 151
Width: 1043
GlyphClass: 3
Flags: HW
LayerCount: 2
Back
Fore
SplineSet
338 106 m 1
 220 -17 l 1
 97 108 l 1
 217 228 l 1
 338 106 l 1
851 511 m 256
 927.6 511 1047.75 538.73 1234 693 c 1
 1233 479 l 1
 1194.33 455 1151 433.333 1103 414 c 1
 1058.33 397.333 1015.67 389 975 389 c 0
 759.082 389 618 509.73 618 738 c 0
 618 865.978 706.616 958 852 958 c 0
 929.2 958 1008.98 941.098 1045 928 c 1
 1168 805 l 1
 1159.75 807.999 1038.64 834 973 834 c 0
 834.058 834 742 745.768 742 615 c 0
 742 585.47 744.138 511 851 511 c 256
748 158 m 0
 958.486 158 1123.47 254.822 1239 363 c 1
 1238 149 l 1
 1184.87 113.933 1125.91 81.3827 1045 56 c 1
 990.333 41.3333 933.333 34 874 34 c 0
 476.134 34 92 461.399 92 644 c 0
 92 679.5 109.525 713 171 713 c 0
 237.408 713 253.388 691.913 300 689 c 1
 358.549 689 388 753.93 388 837 c 0
 388 869.901 381.832 952.586 348 1013 c 1
 418 1013 l 1
 454.5 976.5 500 862.456 500 730 c 2
 500 687 l 1
 491.799 650.096 484.842 566 421 566 c 0
 393.1 566 365.2 585 328 585 c 0
 300 585 286 571.667 286 545 c 0
 286 435.296 537.013 158 748 158 c 0
1240 1099 m 1
 39 1099 l 1
 -82 1222 l 1
 1116 1222 l 1
 1240 1099 l 1
EndSplineSet
Ligature2: "'half' Half Forms in Devanagari lookup 3 subtable" u0959 u094D
EndChar

StartChar: u0916.half.vatu
Encoding: 65560 -1 153
Width: 1043
GlyphClass: 3
Flags: HW
LayerCount: 2
Back
Fore
SplineSet
851 513 m 256
 927.6 513 1047.75 540.73 1234 695 c 1
 1233 481 l 1
 1194.33 457 1151 435.333 1103 416 c 1
 1058.33 399.333 1015.67 391 975 391 c 0
 759.082 391 618 511.73 618 740 c 0
 618 867.978 706.616 960 852 960 c 0
 929.2 960 1008.98 943.098 1045 930 c 1
 1168 807 l 1
 1159.75 809.999 1038.64 836 973 836 c 0
 834.058 836 742 747.768 742 617 c 0
 742 587.47 744.138 513 851 513 c 256
1241 1098 m 1
 40 1098 l 1
 -81 1221 l 1
 1117 1221 l 1
 1241 1098 l 1
746 154 m 0
 956.486 154 1121.47 250.822 1237 359 c 1
 1236 148 l 1
 801 -160 l 1
 713 -71 l 1
 851 32 l 1
 462.749 32 93 456.454 93 634 c 0
 93 669.525 108.8 708 172 708 c 0
 229.107 708 254.936 687.692 298 685 c 1
 356.549 685 386 749.93 386 833 c 0
 386 865.901 379.832 948.586 346 1009 c 1
 416 1009 l 1
 452.5 972.5 498 858.456 498 726 c 2
 498 683 l 1
 489.799 646.096 482.842 562 419 562 c 0
 391.1 562 363.2 581 326 581 c 0
 298 581 284 567.667 284 541 c 0
 284 431.296 535.013 154 746 154 c 0
EndSplineSet
Ligature2: "'vatu' Vattu Variants in Devanagari lookup 4 subtable" u0916.half u0930.sub
LCarets2: 1 0
EndChar

StartChar: u0917.half
Encoding: 65561 -1 156
Width: 602
GlyphClass: 3
Flags: HW
AnchorPoint: "N" 25 430 basechar 0
LayerCount: 2
Back
Fore
SplineSet
732 1100 m 1
 27 1100 l 1
 -93 1223 l 1
 609 1223 l 1
 732 1100 l 1
240 505 m 0
 291.6 505 326 537.975 326 643 c 2
 324 1018 l 1
 447 1018 l 1
 446 519 l 2
 446 427.403 404.4 401 342 401 c 1
 288 405 l 1
 230 416 l 1
 107 539 l 1
 175 517 l 2
 201.667 509 223.333 505 240 505 c 0
EndSplineSet
Ligature2: "'half' Half Forms in Devanagari lookup 3 subtable" u0917 u094D
LCarets2: 1 0
EndChar

StartChar: u095A.half
Encoding: 65562 -1 158
Width: 602
GlyphClass: 3
Flags: HW
LayerCount: 2
Back
Fore
SplineSet
387 200 m 1
 267 77 l 1
 143 203 l 1
 264 320 l 1
 387 200 l 1
731 1099 m 1
 26 1099 l 1
 -94 1222 l 1
 608 1222 l 1
 731 1099 l 1
239 504 m 0
 290.6 504 325 536.975 325 642 c 2
 323 1017 l 1
 446 1017 l 1
 445 518 l 2
 445 426.403 403.4 400 341 400 c 1
 287 404 l 1
 229 415 l 1
 106 538 l 1
 174 516 l 2
 200.667 508 222.333 504 239 504 c 0
EndSplineSet
Ligature2: "'half' Half Forms in Devanagari lookup 3 subtable" u095A u094D
EndChar

StartChar: u0917.half.vatu
Encoding: 65564 -1 160
Width: 602
GlyphClass: 3
Flags: HW
LayerCount: 2
Back
Fore
SplineSet
732 1100 m 1
 27 1100 l 1
 -93 1223 l 1
 609 1223 l 1
 732 1100 l 1
842 424 m 1
 345 58 l 1
 259 146 l 1
 844 574 l 1
 842 424 l 1
240 506 m 0
 291.6 506 326 538.975 326 644 c 2
 324 1019 l 1
 447 1019 l 1
 446 520 l 2
 446 428.403 404.4 402 342 402 c 1
 288 406 l 1
 230 417 l 1
 107 540 l 1
 175 518 l 2
 201.667 510 223.333 506 240 506 c 0
EndSplineSet
Ligature2: "'vatu' Vattu Variants in Devanagari lookup 4 subtable" u0917.half u0930.sub
EndChar

StartChar: u0918.half
Encoding: 65565 -1 162
Width: 688
GlyphClass: 3
Flags: HW
AnchorPoint: "N" 110 305 basechar 0
LayerCount: 2
Back
Fore
SplineSet
835 1100 m 1
 26 1100 l 1
 -94 1223 l 1
 710 1223 l 1
 835 1100 l 1
194 643 m 0
 194 671.063 195.478 755.236 272 802 c 1
 200.667 861.333 155.333 933 136 1017 c 1
 275 1017 l 1
 307.412 871.146 371.39 844.512 405 835 c 1
 448.333 835 495.333 827.667 546 813 c 1
 558.973 810.838 572.286 806.734 609 791 c 1
 733 668 l 1
 661 693 l 1
 599 710.333 547.667 719 507 719 c 0
 383.722 719 320 660.185 320 537 c 0
 320.827 521.29 316.358 476.689 394 450 c 1
 432 438 476 432 526 432 c 0
 668.4 432 847.584 616.511 882 677 c 1
 881 411 l 1
 861.78 394.525 762.6 306 585 306 c 0
 376.465 306 194 440.8 194 643 c 0
EndSplineSet
Ligature2: "'half' Half Forms in Devanagari lookup 3 subtable" u0918 u094D
LCarets2: 1 0
EndChar

StartChar: u0918.half.vatu
Encoding: 65567 -1 164
Width: 688
GlyphClass: 3
Flags: HW
LayerCount: 2
Back
Fore
SplineSet
835 1100 m 1
 26 1100 l 1
 -94 1223 l 1
 710 1223 l 1
 835 1100 l 1
528 428 m 0
 670.4 428 849.584 612.511 884 673 c 1
 883 407 l 1
 520 145 l 1
 403 57 l 1
 317 145 l 1
 532 303 l 1
 374.101 321.576 199 436.6 199 637 c 0
 199 708.357 226.699 768.917 274 800 c 1
 202.667 856.667 157.333 927.333 138 1012 c 1
 277 1012 l 1
 309.412 866.146 373.39 839.512 407 830 c 1
 450.333 830 497.333 822.667 548 808 c 1
 560.973 805.838 574.286 801.734 611 786 c 1
 735 663 l 1
 663 688 l 1
 601 705.333 549.667 714 509 714 c 0
 452.333 714 409.333 702 380 678 c 1
 341.333 648.667 322 600 322 532 c 1
 324.008 515.934 321.475 477.276 396 447 c 1
 432 434.333 476 428 528 428 c 0
EndSplineSet
Ligature2: "'vatu' Vattu Variants in Devanagari lookup 4 subtable" u0918.half u0930.sub
EndChar

StartChar: u0919
Encoding: 2329 2329 165
Width: 1023
GlyphClass: 2
Flags: HW
AnchorPoint: "N" 160 125 basechar 0
LayerCount: 2
Back
Fore
SplineSet
1569 1100 m 1
 21 1100 l 1
 -99 1223 l 1
 1446 1223 l 1
 1569 1100 l 1
1323 697 m 1
 1181 559 l 1
 1049 697 l 1
 1183 834 l 1
 1323 697 l 1
779 613 m 0
 975.277 613 1098 504.961 1098 304 c 0
 1098 152.2 910.554 51 751 51 c 0
 368.2 51 244.978 271.994 113 528 c 1
 255 436 l 1
 309.281 323.695 426.6 174 684 174 c 0
 831.705 174 975 251.951 975 399 c 1
 973 425 l 1
 965.731 468.614 931 491 903 491 c 0
 816.399 491 757.504 431 638 431 c 0
 450.2 431 325 585.443 325 752 c 0
 325 826.131 359 936 495 936 c 2
 818 936 l 1
 816 1013 l 1
 939 1013 l 1
 943 813 l 1
 619 813 l 2
 506.627 813 457 724.504 457 654 c 0
 457 601.917 469 562 517 562 c 0
 628.862 562 693.236 613 779 613 c 0
EndSplineSet
EndChar

StartChar: u091A.half
Encoding: 65568 -1 167
Width: 799
GlyphClass: 3
Flags: HW
AnchorPoint: "N" 120 250 basechar 0
LayerCount: 2
Back
Fore
SplineSet
967 1100 m 1
 21 1100 l 1
 -99 1223 l 1
 843 1223 l 1
 967 1100 l 1
759 309 m 0
 595.476 309 395 417.244 395 654 c 0
 395 680.667 397.667 705 403 727 c 1
 235 727 l 1
 112 850 l 1
 705 850 l 1
 826 727 l 1
 663 728 l 1
 611.653 721.582 520 691.6 520 546 c 1
 523.327 516.053 533.747 441 728 441 c 0
 872.635 441 1024.42 602.122 1055 658 c 1
 1055 415 l 1
 940.176 321.374 818.2 309 759 309 c 0
EndSplineSet
Ligature2: "'half' Half Forms in Devanagari lookup 3 subtable" u091A u094D
LCarets2: 1 0
EndChar

StartChar: u091A.half.vatu
Encoding: 65570 -1 169
Width: 799
GlyphClass: 3
Flags: HW
LayerCount: 2
Back
Fore
SplineSet
967 1100 m 1
 21 1100 l 1
 -99 1223 l 1
 843 1223 l 1
 967 1100 l 1
729 437 m 0
 873.635 437 1025.42 598.122 1056 654 c 1
 1056 411 l 1
 670 140 l 1
 619.627 108.517 583.548 81.9014 548 55 c 1
 460 143 l 1
 692 312 l 1
 554.085 335.822 398 436.888 398 651 c 0
 398 677.667 400.667 702 406 724 c 1
 238 724 l 1
 115 847 l 1
 708 847 l 1
 829 724 l 1
 664 724 l 1
 612.653 717.582 521 687.6 521 542 c 1
 524.327 512.053 534.747 437 729 437 c 0
EndSplineSet
Ligature2: "'vatu' Vattu Variants in Devanagari lookup 4 subtable" u091A.half u0930.sub
EndChar

StartChar: u091B
Encoding: 2331 2331 170
Width: 1209
GlyphClass: 2
Flags: HW
AnchorPoint: "N" 95 100 basechar 0
LayerCount: 2
Back
Fore
SplineSet
1421 1100 m 1
 27 1100 l 1
 -93 1223 l 1
 1297 1223 l 1
 1421 1100 l 1
1008 818 m 0
 916.8 818 856 734.55 856 607 c 1
 858 586 l 1
 871.304 512.087 969.998 435.668 1040 399 c 1
 1085.77 470.771 1128 566.4 1128 678 c 1
 1124 722 l 1
 1102.14 815.403 1031.2 818 1008 818 c 0
691 1 m 0
 365.249 1 261 137.4 261 342 c 256
 261 377.333 270.333 407.667 289 433 c 1
 198.682 491.812 155 566.724 155 721 c 0
 155 816.119 235.244 884 318 884 c 0
 363.333 884 404 880.333 440 873 c 2
 519 855 l 1
 639 732 l 1
 539 753 l 1
 503 758.333 470.667 761 442 761 c 0
 310.8 761 278 682.7 278 596 c 0
 278.998 587.017 277.593 532.049 365 500 c 1
 435.091 536.798 531.548 541 567 541 c 2
 582 541 l 1
 594 540 l 1
 718 417 l 1
 697 418 l 1
 664 419 l 1
 503.223 419 392 367.293 392 229 c 1
 393 207 l 1
 400.333 175.667 422.333 153.667 459 141 c 0
 488.333 131.667 524.667 127 568 127 c 0
 652.667 127 731.333 146 804 184 c 1
 870 217.333 928 264.667 978 326 c 1
 866.445 398.753 727 522.431 727 731 c 0
 727 824.589 793.675 943 908 943 c 2
 933 943 l 1
 931 1017 l 1
 1054 1017 l 1
 1055 919 l 1
 1149 885.667 1208.33 811.667 1233 697 c 1
 1240.01 657.765 1246 604.291 1246 556 c 0
 1246 434 1195.67 314.333 1095 197 c 0
 983 66.3333 848.333 1 691 1 c 0
EndSplineSet
EndChar

StartChar: u091C.half
Encoding: 65571 -1 174
Width: 788
GlyphClass: 3
Flags: HW
AnchorPoint: "N" 130 275 basechar 0
LayerCount: 2
Back
Fore
SplineSet
1019 1100 m 1
 27 1100 l 1
 -93 1223 l 1
 895 1223 l 1
 1019 1100 l 1
469 405 m 0
 644.603 405 682 489.068 682 590 c 1
 678 633 l 1
 668.667 679.667 642.333 725.667 599 771 c 1
 535 829 l 1
 1033 829 l 1
 1035 703 l 1
 740 703 l 1
 779 628 l 2
 782.333 620 788 602.667 796 576 c 2
 806 545 l 1
 813.41 509.802 815 481.992 815 455 c 0
 815 404.259 753.368 281 550 281 c 0
 208 281 144.606 592.966 122.5 712 c 128
 118.167 735.333 116 756.333 116 775 c 1
 191 704 l 1
 195 672 l 1
 220.391 547.72 322.725 405 469 405 c 0
EndSplineSet
Ligature2: "'half' Half Forms in Devanagari lookup 3 subtable" u091C u094D
LCarets2: 1 5
EndChar

StartChar: u095B.half
Encoding: 65572 -1 176
Width: 788
GlyphClass: 3
Flags: HW
LayerCount: 2
Back
Fore
SplineSet
666 82 m 1
 547 -41 l 1
 426 84 l 1
 544 201 l 1
 666 82 l 1
1018 1098 m 1
 26 1098 l 1
 -94 1221 l 1
 894 1221 l 1
 1018 1098 l 1
468 403 m 0
 643.603 403 681 487.068 681 588 c 1
 677 631 l 1
 667.667 677.667 641.333 723.667 598 769 c 1
 534 827 l 1
 1032 827 l 1
 1034 701 l 1
 739 701 l 1
 778 626 l 2
 781.333 618 787 600.667 795 574 c 2
 805 543 l 1
 812.41 507.802 814 479.992 814 453 c 0
 814 402.259 752.368 279 549 279 c 0
 207 279 143.606 590.966 121.5 710 c 128
 117.167 733.333 115 754.333 115 773 c 1
 190 702 l 1
 194 670 l 1
 219.391 545.72 321.725 403 468 403 c 0
EndSplineSet
Ligature2: "'half' Half Forms in Devanagari lookup 3 subtable" u095B u094D
LCarets2: 1 0
EndChar

StartChar: u091C.half.vatu
Encoding: 65574 -1 178
Width: 788
GlyphClass: 3
Flags: HW
LayerCount: 2
Back
Fore
SplineSet
1019 1100 m 1
 27 1100 l 1
 -93 1223 l 1
 895 1223 l 1
 1019 1100 l 1
469 405 m 0
 644.603 405 682 489.068 682 590 c 1
 678 633 l 1
 668.667 679.667 642.333 725.667 599 771 c 1
 535 829 l 1
 1033 829 l 1
 1035 703 l 1
 740 703 l 1
 779 628 l 2
 782.333 620 788 602.667 796 576 c 2
 806 545 l 1
 813.41 509.802 815 481.992 815 455 c 0
 815 404.259 753.368 281 550 281 c 0
 208 281 144.606 592.966 122.5 712 c 128
 118.167 735.333 116 756.333 116 775 c 1
 191 704 l 1
 195 672 l 1
 220.391 547.72 322.725 405 469 405 c 0
1042 310 m 1
 547 -56 l 1
 458 32 l 1
 1043 460 l 1
 1042 310 l 1
EndSplineSet
Ligature2: "'vatu' Vattu Variants in Devanagari lookup 4 subtable" u091C.half u0930.sub
EndChar

StartChar: u091C_u094D_u091E.half
Encoding: 65576 -1 180
Width: 656
GlyphClass: 3
Flags: HW
AnchorPoint: "N" 72 -20 basechar 0
LayerCount: 2
Back
Fore
SplineSet
816 1100 m 1
 27 1100 l 1
 -93 1223 l 1
 692 1223 l 1
 816 1100 l 1
333 239 m 1
 506.538 239 530 329 530 389 c 1
 529 412 l 1
 518.333 460 472.667 509 392 559 c 1
 234 645 l 1
 141 773 l 1
 849 773 l 1
 851 651 l 1
 398 651 l 1
 482 603 l 1
 576.488 546.307 657.943 472.986 681 366 c 1
 685 344 l 1
 685 330 685.333 316.667 686 304 c 0
 686 155.2 564.219 118 453 118 c 2
 411 118 l 1
 396 122 l 1
 677 -225 l 1
 508 -162 l 1
 217 196 l 1
 207.667 202 201.667 210.333 199 221 c 0
 193.421 251.687 218.297 258 233 258 c 0
 250.936 258 265.273 247.727 269 244 c 1
 294 240 l 1
 333 239 l 1
EndSplineSet
Ligature2: "'half' Half Forms in Devanagari lookup 3 subtable" u091C_u094D_u091E u094D
LCarets2: 1 0
EndChar

StartChar: u091D.half
Encoding: 65577 -1 182
Width: 782
GlyphClass: 3
Flags: HW
AnchorPoint: "N" 108 -100 basechar 0
LayerCount: 2
Back
Fore
SplineSet
912 1100 m 1
 21 1100 l 1
 -99 1223 l 1
 789 1223 l 1
 912 1100 l 1
801 364 m 0
 801 163.2 581.4 113 435 113 c 1
 688 -188 l 1
 548 -160 l 1
 330 107 l 1
 271.106 115.725 151 168.557 151 271 c 0
 151 276.333 151.667 285.333 153 298 c 1
 157.667 316.667 167.667 336 183 356 c 1
 203 361.333 227.333 353 256 331 c 0
 291.333 302.333 317.667 271 335 237 c 1
 415 237 481 250 533 276 c 0
 596.333 306.667 639.667 357 663 427 c 1
 669 448.333 671.333 466.333 670 481 c 1
 667.333 496.333 655.333 504 634 504 c 0
 586.827 504 463.63 455 424 455 c 0
 185.6 455 126 636.191 126 750 c 0
 126 798.542 150.4 936 248 936 c 2
 572 936 l 1
 570 1013 l 1
 693 1013 l 1
 697 813 l 1
 373 813 l 2
 297.311 813 255 735.055 255 664 c 0
 255 631.202 263.285 579 300 579 c 0
 404.125 579 441.641 638 545 638 c 0
 636.191 638 632.946 590 758 590 c 0
 833.105 590 931.325 622.403 1007 674 c 1
 1007 502 l 1
 987.736 487.552 932 468 882 468 c 0
 844.667 468 809 472.667 775 482 c 1
 786 453 l 1
 794 421 l 2
 798.667 399.667 801 380.667 801 364 c 0
EndSplineSet
Ligature2: "'half' Half Forms in Devanagari lookup 3 subtable" u091D u094D
LCarets2: 1 12
EndChar

StartChar: u091D.half.vatu
Encoding: 65579 -1 184
Width: 823
GlyphClass: 3
Flags: HW
LayerCount: 2
Back
Fore
SplineSet
912 1100 m 1
 21 1100 l 1
 -99 1223 l 1
 789 1223 l 1
 912 1100 l 1
1042 192 m 1
 785 -10 l 1
 697 78 l 1
 1042 342 l 1
 1042 192 l 1
801 364 m 0
 801 163.2 581.4 113 435 113 c 1
 688 -188 l 1
 548 -160 l 1
 330 107 l 1
 271.106 115.725 151 168.557 151 271 c 0
 151 276.333 151.667 285.333 153 298 c 1
 157.667 316.667 167.667 336 183 356 c 1
 203 361.333 227.333 353 256 331 c 0
 291.333 302.333 317.667 271 335 237 c 1
 415 237 481 250 533 276 c 0
 596.333 306.667 639.667 357 663 427 c 1
 669 448.333 671.333 466.333 670 481 c 1
 667.333 496.333 655.333 504 634 504 c 0
 586.827 504 463.63 455 424 455 c 0
 185.6 455 126 636.191 126 750 c 0
 126 798.542 150.4 936 248 936 c 2
 572 936 l 1
 570 1013 l 1
 693 1013 l 1
 697 813 l 1
 373 813 l 2
 297.311 813 255 735.055 255 664 c 0
 255 631.202 263.285 579 300 579 c 0
 404.125 579 441.641 638 545 638 c 0
 636.191 638 632.946 590 758 590 c 0
 833.105 590 931.325 622.403 1007 674 c 1
 1007 502 l 1
 987.736 487.552 932 468 882 468 c 0
 844.667 468 809 472.667 775 482 c 1
 786 453 l 1
 794 421 l 2
 798.667 399.667 801 380.667 801 364 c 0
EndSplineSet
Ligature2: "'vatu' Vattu Variants in Devanagari lookup 4 subtable" u091D.half u0930.sub
EndChar

StartChar: u091E.half
Encoding: 65580 -1 186
Width: 851
GlyphClass: 3
Flags: HW
AnchorPoint: "N" 155 250 basechar 0
LayerCount: 2
Back
Fore
SplineSet
999 1100 m 1
 21 1100 l 1
 -99 1223 l 1
 875 1223 l 1
 999 1100 l 1
893 651 m 2
 917.002 651 981.61 651.08 1087 705 c 1
 1085 542 l 1
 1057 533.333 1034.33 529 1017 529 c 2
 981 529 l 1
 970.333 531.667 962.333 533.333 957 534 c 2
 891 550 l 1
 891 409.388 791.711 299 619 299 c 0
 497 299 389.333 333 296 401 c 1
 216.667 460.333 150 546.333 96 659 c 1
 206 610 l 1
 272.552 528.09 336.663 425 519 425 c 0
 682.893 425 767 575.741 767 668 c 0
 767 713.242 747.4 779 669 779 c 0
 607.667 779 558 765.667 520 739 c 1
 462 679 l 1
 341 802 l 1
 401 863 l 1
 439.667 891 491 905 555 905 c 0
 717.664 905 842.465 798.808 877 651 c 1
 893 651 l 2
EndSplineSet
Ligature2: "'half' Half Forms in Devanagari lookup 3 subtable" u091E u094D
LCarets2: 1 0
EndChar

StartChar: u091F
Encoding: 2335 2335 187
Width: 872
GlyphClass: 2
Flags: HW
AnchorPoint: "N" 145 140 basechar 0
AnchorPoint: "B" 536 -48 basechar 0
LayerCount: 2
Back
Fore
SplineSet
1085 1100 m 1
 21 1100 l 1
 -99 1223 l 1
 960 1223 l 1
 1085 1100 l 1
525 241 m 0
 736.2 241 859.111 329.068 877 340 c 1
 1000 218 l 1
 944.981 182.631 839.213 110 645 110 c 0
 306.6 110 81 416.157 81 659 c 0
 81 763.5 130.8 898 330 898 c 2
 644 898 l 1
 642 1012 l 1
 765 1012 l 1
 769 774 l 1
 453 774 l 2
 289 774 248 648.398 248 568 c 256
 248 415.793 354.511 241 525 241 c 0
EndSplineSet
EndChar

StartChar: u091F_u094D_u091F
Encoding: 65581 -1 188
Width: 916
GlyphClass: 2
Flags: HW
LayerCount: 2
Back
Fore
SplineSet
1199 1100 m 1
 21 1100 l 1
 -99 1223 l 1
 1075 1223 l 1
 1199 1100 l 1
601 418 m 0
 682.581 418 791.289 434.47 883 497 c 1
 982 401 l 1
 933 371 l 1
 889.667 347.667 844.667 330 798 318 c 1
 798 144 l 1
 546 144 l 2
 449.197 144 384 86.6303 384 -26 c 0
 384 -168.869 485.243 -285 603 -285 c 0
 683.982 -285 791.589 -268.702 883 -207 c 1
 983 -303 l 1
 971 -311 958 -319 944 -327 c 2
 908 -346 l 1
 844 -375.333 774.333 -390 699 -390 c 0
 418.165 -390 248 -130.963 248 53 c 0
 248 130.947 288.346 244 446 244 c 2
 699 244 l 1
 699 312 l 1
 421.107 312 248 568.377 248 755 c 0
 248 832.947 288.346 946 446 946 c 2
 697 946 l 1
 698 1020 l 1
 796 1020 l 1
 795 848 l 1
 543 848 l 2
 412.6 848 380 749.838 380 681 c 0
 380 578.589 451.425 418 601 418 c 0
EndSplineSet
EndChar

StartChar: u091F_u094D_u0920
Encoding: 65582 -1 189
Width: 916
GlyphClass: 2
Flags: HW
LayerCount: 2
Back
Fore
SplineSet
1199 1100 m 1
 21 1100 l 1
 -99 1223 l 1
 1075 1223 l 1
 1199 1100 l 1
322 -148 m 1
 316.67 -227.953 393.938 -334 529 -334 c 0
 609 -334 679.667 -306 741 -250 c 1
 792.299 -206.341 836.45 -141.902 838 -52 c 1
 834 -13 l 1
 814.657 79.5717 719.725 136 629 136 c 0
 468.644 136 322 8.56602 322 -148 c 1
217 -49 m 0
 217 121.4 378.392 235 525 235 c 0
 588.333 235 646 223.333 698 200 c 1
 700 312 l 1
 630 314 l 1
 534 328 450.667 372.667 380 448 c 1
 316 514.667 274.333 590.667 255 676 c 0
 249.667 702.667 247 727.667 247 751 c 0
 247 829.197 287 942 447 942 c 2
 698 942 l 1
 699 1016 l 1
 797 1016 l 1
 796 844 l 1
 544 844 l 2
 413.6 844 381 745.838 381 677 c 0
 381 574.589 452.425 414 602 414 c 0
 683.581 414 792.289 430.47 884 493 c 1
 983 397 l 1
 936 367 l 1
 895.333 345 850 328.667 800 318 c 1
 799 144 l 1
 867 91.3333 909.667 23.3333 927 -60 c 1
 934 -102 l 2
 934.667 -108 935 -122 935 -144 c 0
 935 -301.622 788.977 -428 627 -428 c 0
 373.45 -428 217 -260.064 217 -49 c 0
EndSplineSet
EndChar

StartChar: u0920
Encoding: 2336 2336 190
Width: 965
GlyphClass: 2
Flags: HW
AnchorPoint: "N" 140 130 basechar 0
LayerCount: 2
Back
Fore
SplineSet
1199 1100 m 1
 21 1100 l 1
 -99 1223 l 1
 1075 1223 l 1
 1199 1100 l 1
520 211 m 0
 717.922 211 904.608 360.767 906 564 c 1
 906 587 l 1
 902 612 l 1
 876.025 729.573 761.295 797 645 797 c 0
 444.998 797 259 641.93 259 439 c 0
 259 396 264 408.9 264 396 c 1
 284.422 295.169 391.587 211 520 211 c 0
132 567 m 1
 132 768.272 317.579 925 518 925 c 0
 590.667 925 662 910.333 732 881 c 1
 732 1018 l 1
 855 1018 l 1
 856 810 l 1
 969.072 717.658 1004.27 611.063 1018 547 c 1
 1027 494 l 2
 1027.67 491.333 1028 480 1028 460 c 2
 1028 444 l 2
 1028 253.613 848.148 90 639 90 c 0
 341.535 90 183.343 275.515 142 461 c 1
 133 518 l 1
 132 567 l 1
EndSplineSet
EndChar

StartChar: u0920_u094D_u0920
Encoding: 65583 -1 191
Width: 848
GlyphClass: 2
Flags: HW
LayerCount: 2
Back
Fore
SplineSet
1065 1100 m 1
 21 1100 l 1
 -99 1223 l 1
 941 1223 l 1
 1065 1100 l 1
253 -148 m 1
 247.63 -228.545 322.86 -335 459 -335 c 0
 613.417 -335 769 -212.767 769 -52 c 1
 765 -13 l 1
 745.657 79.5717 650.725 136 560 136 c 0
 399.644 136 253 8.56602 253 -148 c 1
252 570 m 0
 252 437.453 375.677 384 459 384 c 0
 617.194 384 768 504.95 768 666 c 1
 764 705 l 1
 744.657 797.572 649.725 854 559 854 c 0
 404.531 854 252 728.331 252 570 c 0
151 669 m 1
 151 834.347 308.731 955 461 955 c 0
 523 955 580.333 943 633 919 c 1
 631 1019 l 1
 731 1019 l 1
 732 861 l 1
 836.794 779.26 869 659.58 869 572 c 0
 869 461.127 800.061 387.4 731 341 c 1
 732 148 l 1
 823.18 77.2892 868 -31.8991 868 -140 c 0
 868 -302.554 712.886 -424 559 -424 c 0
 305.45 -424 149 -256.064 149 -45 c 0
 149 120.841 306.901 241 456 241 c 0
 517.254 241 583.826 225.943 630 207 c 1
 631 299 l 1
 604.333 293.667 580 291 558 291 c 0
 230.349 291 152 554.28 152 632 c 1
 151 669 l 1
EndSplineSet
EndChar

StartChar: u0921
Encoding: 2337 2337 193
Width: 1058
GlyphClass: 2
Flags: HW
AnchorPoint: "N" 140 130 basechar 0
LayerCount: 2
Back
Fore
SplineSet
1339 1100 m 1
 21 1100 l 1
 -99 1223 l 1
 1217 1223 l 1
 1339 1100 l 1
778 613 m 0
 974.277 613 1097 504.961 1097 304 c 0
 1097 152.2 909.554 51 750 51 c 0
 367.2 51 243.978 271.994 112 528 c 1
 254 436 l 1
 308.281 323.695 425.6 174 683 174 c 0
 830.705 174 974 251.951 974 399 c 1
 972 425 l 1
 964.731 468.614 930 491 902 491 c 0
 815.399 491 756.504 431 637 431 c 0
 449.2 431 324 585.443 324 752 c 0
 324 826.131 358 936 494 936 c 2
 817 936 l 1
 815 1013 l 1
 938 1013 l 1
 942 813 l 1
 618 813 l 2
 505.627 813 456 724.504 456 654 c 0
 456 601.917 468 562 516 562 c 0
 627.862 562 692.236 613 778 613 c 0
EndSplineSet
EndChar

StartChar: u095C
Encoding: 2396 2396 194
Width: 1058
GlyphClass: 2
Flags: HW
LayerCount: 2
Back
Fore
SplineSet
879 -200 m 1
 760 -320 l 1
 636 -197 l 1
 756 -77 l 1
 879 -200 l 1
1339 1100 m 1
 21 1100 l 1
 -99 1223 l 1
 1217 1223 l 1
 1339 1100 l 1
778 613 m 0
 974.277 613 1097 504.961 1097 304 c 0
 1097 152.2 909.554 51 750 51 c 0
 367.2 51 243.978 271.994 112 528 c 1
 254 436 l 1
 308.281 323.695 425.6 174 683 174 c 0
 830.705 174 974 251.951 974 399 c 1
 972 425 l 1
 964.731 468.614 930 491 902 491 c 0
 815.399 491 756.504 431 637 431 c 0
 449.2 431 324 585.443 324 752 c 0
 324 826.131 358 936 494 936 c 2
 817 936 l 1
 815 1013 l 1
 938 1013 l 1
 942 813 l 1
 618 813 l 2
 505.627 813 456 724.504 456 654 c 0
 456 601.917 468 562 516 562 c 0
 627.862 562 692.236 613 778 613 c 0
EndSplineSet
EndChar

StartChar: u0921_u094D_u0921
Encoding: 65584 -1 195
Width: 1058
GlyphClass: 2
Flags: HW
LayerCount: 2
Back
Fore
SplineSet
1339 1100 m 1
 21 1100 l 1
 -99 1223 l 1
 1217 1223 l 1
 1339 1100 l 1
428 -13 m 0
 428 46.6 455 136 563 136 c 2
 820 136 l 1
 816 221 l 1
 794 217 l 1
 768 216 l 1
 469.218 216 367.105 390.373 257 598 c 1
 373 524 l 1
 415.157 440.583 509.4 316 714 316 c 0
 823.169 316 947 371.268 947 495 c 1
 944.263 525.107 936.803 562.473 887 567 c 1
 814.739 567 757.244 518 681 518 c 0
 533.705 518 431 639.579 431 773 c 0
 431 832.6 458 922 566 922 c 2
 823 922 l 1
 823 1013 l 1
 923 1013 l 1
 923 824 l 1
 663 824 l 2
 569.3 824 536 742.138 536 696 c 0
 536 658.002 545.4 623 583 623 c 0
 685.375 623 722.125 665 793 665 c 0
 906.564 665 1047 615.2 1047 416 c 0
 1047 315.8 958.769 268.414 918 249 c 1
 922 35 l 1
 661 35 l 2
 567.993 35 532 -42.9984 532 -96 c 0
 532 -133.569 541.2 -167 578 -167 c 0
 674.725 -167 724.412 -124 790 -124 c 0
 906.784 -124 1045 -173.8 1045 -373 c 0
 1045 -499.716 892.303 -575 766 -575 c 0
 468.88 -575 365.297 -403.262 257 -191 c 1
 371 -266 l 1
 459.608 -446.988 620.71 -473 712 -473 c 0
 821.169 -473 945 -417.732 945 -294 c 1
 943 -273 l 1
 935 -237.667 915.333 -220 884 -220 c 0
 814.475 -220 754.727 -268 678 -268 c 0
 530.705 -268 428 -146.421 428 -13 c 0
EndSplineSet
EndChar

StartChar: u0921_u094D_u0922
Encoding: 65585 -1 196
Width: 1058
GlyphClass: 2
Flags: HW
LayerCount: 2
Back
Fore
SplineSet
1339 1100 m 1
 21 1100 l 1
 -99 1223 l 1
 1217 1223 l 1
 1339 1100 l 1
862 -214 m 1
 860.442 -189.078 854.57 -148.172 797 -146 c 1
 713.189 -146 649 -207.017 649 -298 c 0
 649 -324.575 678.983 -361 711 -361 c 0
 796.888 -361 862 -296.427 862 -214 c 1
308 -49 m 0
 308 37.8812 348 160 508 160 c 2
 743 160 l 1
 740 213 l 1
 652.667 213 576.667 231.333 512 268 c 0
 406.499 329.431 341.674 431.434 258 594 c 1
 374 520 l 1
 416.157 436.583 510.4 312 715 312 c 0
 824.169 312 948 367.268 948 491 c 1
 945.263 521.107 937.803 558.473 888 563 c 1
 815.739 563 758.244 514 682 514 c 0
 534.705 514 432 635.579 432 769 c 0
 432 828.6 459 918 567 918 c 2
 824 918 l 1
 824 1009 l 1
 924 1009 l 1
 924 820 l 1
 664 820 l 2
 570.3 820 537 738.138 537 692 c 0
 537 654.002 546.4 619 584 619 c 0
 686.375 619 723.125 661 794 661 c 0
 907.564 661 1048 611.2 1048 412 c 0
 1048 302.293 938.878 241.597 833 216 c 1
 833 67 l 1
 598 67 l 2
 463.097 67 429 -47.3961 429 -123 c 0
 429 -233.221 496.709 -377 646 -377 c 1
 622.195 -364.182 572.564 -337.681 556 -259 c 1
 551 -216 l 1
 551 -129.323 620.701 -59 710 -59 c 0
 850.76 -59 955 -143.727 955 -306 c 0
 955 -440.4 831.287 -474 744 -474 c 0
 460.444 -474 308 -238.913 308 -49 c 0
EndSplineSet
EndChar

StartChar: u0922
Encoding: 2338 2338 197
Width: 1012
GlyphClass: 2
Flags: HW
AnchorPoint: "N" 140 95 basechar 0
LayerCount: 2
Back
Fore
SplineSet
1180 1100 m 1
 10 1100 l 1
 -111 1223 l 1
 1056 1223 l 1
 1180 1100 l 1
910 399 m 1
 905.889 472.994 853.274 486.139 824 487 c 0
 709.425 487 626 407.195 626 284 c 0
 626 244.019 669.965 198 714 198 c 0
 817.153 198 910 267.758 910 399 c 1
1031 273 m 0
 1031 144.901 914.608 51 751 51 c 0
 382.221 51 165 358.431 165 622 c 0
 165 736.359 218.6 899 433 899 c 2
 749 899 l 1
 747 1013 l 1
 870 1013 l 1
 872 775 l 1
 557 775 l 2
 396.683 775 330 641.923 330 523 c 0
 330 505.8 331.424 479.426 339 437 c 1
 368.077 295.581 470.033 183 622 183 c 1
 602 193 585 203.333 571 214 c 1
 517.844 261.139 495 329.861 495 396 c 0
 495 513.692 587.5 606 700 606 c 0
 910.567 606 1031 450.302 1031 273 c 0
EndSplineSet
EndChar

StartChar: u095D
Encoding: 2397 2397 198
Width: 1012
GlyphClass: 2
Flags: HW
LayerCount: 2
Back
Fore
SplineSet
784 -200 m 1
 665 -320 l 1
 544 -197 l 1
 665 -77 l 1
 784 -200 l 1
1180 1100 m 1
 10 1100 l 1
 -111 1223 l 1
 1056 1223 l 1
 1180 1100 l 1
910 399 m 1
 905.889 472.994 853.274 486.139 824 487 c 0
 709.425 487 626 407.195 626 284 c 0
 626 244.019 669.965 198 714 198 c 0
 817.153 198 910 267.758 910 399 c 1
1029 274 m 0
 1029 148.064 901.279 52.2628 751 51 c 1
 382.221 51 165 358.431 165 622 c 0
 165 736.359 218.6 899 433 899 c 2
 749 899 l 1
 747 1013 l 1
 870 1013 l 1
 872 775 l 1
 557 775 l 2
 396.683 775 330 641.923 330 523 c 0
 330 505.8 331.424 479.426 339 437 c 1
 368.077 295.581 470.033 183 622 183 c 1
 602 193 585 203.333 571 214 c 1
 517.844 261.139 495 329.861 495 396 c 0
 495 513.692 587.5 606 700 606 c 0
 838.344 606 1029 539.6 1029 274 c 0
EndSplineSet
EndChar

StartChar: u0923.half
Encoding: 65586 -1 200
Width: 820
GlyphClass: 3
Flags: HW
AnchorPoint: "N" 90 340 basechar 0
LayerCount: 2
Back
Fore
SplineSet
498 482 m 0
 597.52 482 659 525.041 659 684 c 2
 658 1017 l 1
 781 1017 l 1
 782.333 999.667 783 916 783 766 c 2
 784 561 l 2
 784 469.366 726.066 365 564 365 c 0
 422.409 365 224 449.056 224 684 c 1
 222 1017 l 1
 345 1017 l 1
 347 604 l 1
 359.185 494.332 468.123 482 498 482 c 0
949 1100 m 1
 9 1100 l 1
 -112 1223 l 1
 826 1223 l 1
 949 1100 l 1
EndSplineSet
Ligature2: "'half' Half Forms in Devanagari lookup 3 subtable" u0923 u094D
LCarets2: 1 0
EndChar

StartChar: u0924.half
Encoding: 65587 -1 202
Width: 564
GlyphClass: 3
Flags: HW
AnchorPoint: "N" 105 100 basechar 0
LayerCount: 2
Back
Fore
SplineSet
695 1100 m 1
 39 1100 l 1
 -82 1223 l 1
 571 1223 l 1
 695 1100 l 1
151 575 m 2
 151 732.305 219.8 829 323 829 c 2
 776 829 l 1
 771 708 l 1
 442 708 l 2
 346.417 708 271 620.627 271 455 c 1
 275 416 l 1
 284.333 369.333 310.333 320.333 353 269 c 0
 386.333 230.333 421.667 198 459 172 c 1
 488 49 l 1
 449.358 79.4205 409.2 108.8 363 155 c 1
 313 202.333 271.667 250 239 298 c 1
 202.333 354 176.333 414.667 161 480 c 1
 153 526 l 2
 151.667 536.667 151 548 151 560 c 2
 151 575 l 2
EndSplineSet
Ligature2: "'half' Half Forms in Devanagari lookup 3 subtable" u0924 u094D
LCarets2: 1 0
EndChar

StartChar: u0924.half.vatu
Encoding: 65589 -1 204
Width: 649
GlyphClass: 3
Flags: HW
LayerCount: 2
Back
Fore
SplineSet
765 1100 m 1
 22 1100 l 1
 -98 1223 l 1
 642 1223 l 1
 765 1100 l 1
782 616 m 1
 652 718 l 1
 605.333 751.333 560.333 768 517 768 c 0
 465 768 417.667 762 375 750 c 1
 272 717 l 1
 148 840 l 1
 251 872 l 1
 300.333 884.667 348.333 891 395 891 c 0
 465 891 544.333 866 633 816 c 1
 841 689 l 1
 841 512 l 1
 395 168 l 1
 306 256 l 1
 782 616 l 1
EndSplineSet
Ligature2: "'vatu' Vattu Variants in Devanagari lookup 4 subtable" u0924.half u0930.sub
EndChar

StartChar: u0924_u094D_u0924.half
Encoding: 65591 -1 206
Width: 719
GlyphClass: 3
Flags: HW
LayerCount: 2
Back
Fore
SplineSet
882 1100 m 1
 24 1100 l 1
 -96 1223 l 1
 758 1223 l 1
 882 1100 l 1
324 575 m 0
 324 625.068 331.484 668.844 344 705 c 1
 233 705 l 1
 112 828 l 1
 951 828 l 1
 950 705 l 1
 616 708 l 2
 520.417 708 445 620.627 445 455 c 1
 449 416 l 1
 458.333 369.333 484.333 320.333 527 269 c 0
 560.333 230.333 595.667 198 633 172 c 1
 662 49 l 1
 479.228 193.61 324 351.118 324 575 c 0
EndSplineSet
Ligature2: "'half' Half Forms in Devanagari lookup 3 subtable" u0924_u094D_u0924 u094D
EndChar

StartChar: u0925.half
Encoding: 65592 -1 208
Width: 754
GlyphClass: 3
Flags: HW
AnchorPoint: "N" 65 245 basechar 0
LayerCount: 2
Back
Fore
SplineSet
449 1098 m 0
 338.895 1098 277 1031.73 277 919 c 1
 279 898 l 1
 288.303 846.831 349.969 797 419 797 c 1
 421 793 l 1
 480.274 853.483 531 930.198 531 1033 c 2
 531 1041 l 1
 523.304 1094.87 465.4 1098 449 1098 c 0
597 347 m 0
 750.44 347 896.117 470.764 952 549 c 1
 951 311 l 1
 853.713 242.327 765.4 224 719 224 c 0
 460.482 224 284.931 314.171 153 644 c 1
 193.632 654.158 276.526 682.824 344 732 c 1
 255.028 781.277 187.544 861.824 160 972 c 1
 155 1005 l 2
 153.667 1015.67 153 1023.33 153 1028 c 0
 153.667 1034 154 1038.33 154 1041 c 0
 154 1154.44 218.723 1221 326 1221 c 0
 401.333 1221 466 1204.67 520 1172 c 1
 586.667 1133.33 628.667 1072.67 646 990 c 1
 650.5 953 l 130
 652.167 939 653 925 653 911 c 0
 653 631.056 338.154 547.824 319 546 c 1
 361.753 435.045 449.374 347 597 347 c 0
EndSplineSet
Ligature2: "'half' Half Forms in Devanagari lookup 3 subtable" u0925 u094D
LCarets2: 1 0
EndChar

StartChar: u0925.half.vatu
Encoding: 65594 -1 210
Width: 754
GlyphClass: 3
Flags: HW
LayerCount: 2
Back
Fore
SplineSet
449 1098 m 0
 338.895 1098 277 1031.73 277 919 c 1
 279 898 l 1
 288.303 846.831 349.969 797 419 797 c 1
 421 793 l 1
 480.274 853.483 531 930.198 531 1033 c 2
 531 1041 l 1
 523.304 1094.87 465.4 1098 449 1098 c 0
595 342 m 0
 748.44 342 894.117 465.764 950 544 c 1
 949 306 l 1
 434 -59 l 1
 345 29 l 1
 615 227 l 1
 516.333 237.667 431.333 270.667 360 326 c 1
 280.667 392 211.333 496.667 152 640 c 1
 191.859 649.965 275.612 678.926 342 727 c 1
 253.028 776.277 185.544 856.824 158 967 c 1
 153 1000 l 2
 151.667 1010.67 151 1018.33 151 1023 c 0
 151.667 1029 152 1033.33 152 1036 c 0
 152 1149.44 216.723 1216 324 1216 c 0
 399.333 1216 464 1199.67 518 1167 c 1
 584.667 1128.33 626.667 1067.67 644 985 c 1
 648.5 948 l 130
 650.167 934 651 920 651 906 c 0
 651 626.056 336.154 542.824 317 541 c 1
 359.753 430.045 447.374 342 595 342 c 0
EndSplineSet
Ligature2: "'vatu' Vattu Variants in Devanagari lookup 4 subtable" u0925.half u0930.sub
EndChar

StartChar: u0926
Encoding: 2342 2342 211
Width: 960
GlyphClass: 2
Flags: HW
AnchorPoint: "N" 180 80 basechar 0
LayerCount: 2
Back
Fore
SplineSet
1085 1100 m 1
 21 1100 l 1
 -99 1223 l 1
 960 1223 l 1
 1085 1100 l 1
522 774 m 2
 346 774 302 655.463 302 573 c 2
 302 539 l 1
 308.391 513.434 315.487 438.949 392.5 366.5 c 128
 437.5 324.167 493 303 559 303 c 0
 599 303 635.333 306 668 312 c 1
 589 473 l 1
 758 364 l 1
 1017 -140 l 1
 859 -61 l 1
 738 176 l 1
 712 172 l 1
 680 171 l 1
 351.042 171 138 437.758 138 668 c 0
 138 769.686 194.782 898 399 898 c 2
 714 898 l 1
 712 1012 l 1
 836 1012 l 1
 838 774 l 1
 522 774 l 2
EndSplineSet
EndChar

StartChar: u0926_u0943
Encoding: 65595 -1 212
Width: 979
GlyphClass: 2
Flags: HW
LayerCount: 2
Back
Fore
SplineSet
1085 1100 m 1
 21 1100 l 1
 -99 1223 l 1
 960 1223 l 1
 1085 1100 l 1
851 -367 m 0
 879.6 -367 930.218 -353.488 994 -310 c 1
 1094 -405 l 1
 1075.24 -438.499 997.32 -467 927 -467 c 0
 709.839 -467 665 -267.67 665 -217 c 0
 665 -181.2 682.037 -100.444 845 -38 c 1
 738 171 l 1
 712 167 l 1
 680 166 l 1
 351.042 166 138 432.758 138 663 c 0
 138 764.686 194.782 893 399 893 c 2
 714 893 l 1
 712 1007 l 1
 836 1007 l 1
 838 769 l 1
 522 769 l 2
 346 769 302 650.463 302 568 c 2
 302 534 l 1
 308.391 508.434 315.487 433.949 392.5 361.5 c 128
 437.5 319.167 493 298 559 298 c 0
 599 298 636.667 300.667 672 306 c 1
 593 467 l 1
 762 358 l 1
 1018 -129 l 1
 874.223 -144.685 791 -243.262 791 -306 c 0
 791 -336.611 803 -367 851 -367 c 0
EndSplineSet
EndChar

StartChar: u0926.vatu
Encoding: 65596 -1 213
Width: 940
GlyphClass: 3
Flags: HW
LayerCount: 2
Back
Fore
SplineSet
1085 1100 m 1
 21 1100 l 1
 -99 1223 l 1
 960 1223 l 1
 1085 1100 l 1
518 774 m 2
 342 774 298 655.463 298 573 c 2
 298 539 l 1
 304.391 513.434 311.487 438.949 388.5 366.5 c 128
 433.5 324.167 489 303 555 303 c 0
 595 303 632.667 305.667 668 311 c 1
 589 472 l 1
 758 363 l 1
 1017 -141 l 1
 859 -62 l 1
 746 161 l 1
 290 -175 l 1
 202 -86 l 1
 567 180 l 1
 299.222 228.687 133 472.8 133 668 c 0
 133 768.802 188.724 898 395 898 c 2
 710 898 l 1
 708 1012 l 1
 832 1012 l 1
 834 774 l 1
 518 774 l 2
EndSplineSet
Ligature2: "'vatu' Vattu Variants in Devanagari lookup 4 subtable" u0926 u0930.sub
EndChar

StartChar: u0926_u094D_u0926
Encoding: 65597 -1 214
Width: 900
GlyphClass: 2
Flags: HW
LayerCount: 2
Back
Fore
SplineSet
999 1100 m 1
 21 1100 l 1
 -99 1223 l 1
 875 1223 l 1
 999 1100 l 1
226 430 m 2
 226 495.4 248.234 526.937 258 539 c 1
 195.139 602.478 127 695.6 127 800 c 0
 127 856.4 158.387 941 328 941 c 2
 662 941 l 1
 661 1015 l 1
 784 1015 l 1
 785 818 l 1
 449 818 l 2
 272.381 818 246 763.4 246 727 c 0
 246 708.338 246.614 669.179 326 600 c 1
 408.789 644.037 541.443 648 566 648 c 2
 603 647 l 1
 629 646 l 1
 752 523 l 1
 730 524 l 1
 693 525 l 1
 500.969 525 349 463.714 349 305 c 0
 349 189.753 466.921 167 537 167 c 0
 593.667 167 641 180 679 206 c 1
 602 364 l 1
 772 255 l 1
 1010 -223 l 1
 854 -142 l 1
 744 80 l 1
 696.667 62.6667 646.667 54 594 54 c 0
 508.667 54 435 75.3333 373 118 c 1
 302.333 164 256.333 234 235 328 c 1
 226 381 l 1
 226 430 l 2
EndSplineSet
EndChar

StartChar: u0926_u094D_u0927
Encoding: 65598 -1 215
Width: 1367
GlyphClass: 2
Flags: HW
LayerCount: 2
Back
Fore
SplineSet
1514 1100 m 1
 21 1100 l 1
 -99 1223 l 1
 1392 1223 l 1
 1514 1100 l 1
445 381 m 0
 445 435 395.399 440 381 440 c 0
 333.289 440 265 393.953 265 309 c 1
 268.895 291.471 288.09 266 327 266 c 0
 412.842 266 445 346.983 445 381 c 0
336 512 m 1
 423.013 512 524 431.938 524 323 c 0
 524 257 492.305 232.444 468 213 c 1
 451.333 201 428.667 195 400 195 c 2
 369 195 l 1
 340.921 202.488 331.41 200.766 303 217 c 1
 303 202.6 307.875 197.183 319 181 c 1
 329 163.667 343.667 151 363 143 c 1
 390.12 133.96 413.347 133 435 133 c 2
 472 133 l 1
 479.333 134.333 484.333 135 487 135 c 2
 550 145 l 1
 550 171 556 196 568 220 c 1
 573.181 234.507 587.154 257.154 615 285 c 1
 717 185 l 1
 696.785 166.048 677 148.433 677 95 c 0
 677 42.3617 711.692 -39 810 -39 c 0
 852 -39 888.333 -27 919 -3 c 1
 990.045 45.4401 1024.19 141.084 1036 207 c 1
 749.289 239.901 559 482.714 559 700 c 0
 559 800.277 611.074 934 818 934 c 2
 1133 934 l 1
 1133 1019 l 1
 1256 1019 l 1
 1257 811 l 1
 943 811 l 2
 767 811 723 688.677 723 613 c 0
 723 474.021 818.845 340 980 340 c 0
 1020 340 1057.67 342.667 1093 348 c 1
 1014 507 l 1
 1182 400 l 1
 1442 -105 l 1
 1284 -26 l 1
 1171 195 l 1
 1171 141 1160 90.3333 1138 43 c 1
 1113.33 -15.6667 1075 -64 1023 -102 c 1
 987.667 -126 939.667 -138 879 -138 c 0
 728.419 -138 612.001 -63.4183 577 44 c 1
 549 38.6667 523 36 499 36 c 0
 316 36 194 180.569 194 345 c 1
 199 398 l 1
 207 435.333 223.333 465 248 487 c 1
 262 497 276 503.667 290 507 c 1
 336 512 l 1
EndSplineSet
EndChar

